<?xml version="1.0" encoding="UTF-8" standalone="no"?>
<!-- Created with Inkscape (http://www.inkscape.org/) -->

<svg
   version="1.1"
   id="svg1"
   width="725.98889"
   height="184.6441"
   viewBox="0 0 725.98889 184.6441"
   xmlns="http://www.w3.org/2000/svg"
   xmlns:svg="http://www.w3.org/2000/svg">
  <defs
     id="defs1" />
  <g
     id="g1"
     transform="translate(-44.824417,-110.13449)">
    <path
       id="path1"
       style="fill:#2d2d2d"
       d="m 752.17383,110.14844 c -4.02712,0.1113 -8.01673,1.10259 -11.69929,2.71564 -3.30457,1.70356 -6.23268,4.04815 -9.06339,6.43686 -2.8093,2.52409 -5.51623,5.2254 -7.65453,8.35237 -1.32079,2.26342 -1.69082,4.94305 -1.91092,7.51466 -0.1198,2.80926 0.32143,5.71454 1.60547,8.23633 1.56138,2.64372 4.93569,4.16289 7.92821,3.27533 1.36671,-0.26833 2.7014,-1.50416 2.40537,-2.99591 -0.39974,-1.81611 -1.98309,-2.9885 -3.13824,-4.32084 -1.01177,-1.6798 -0.82596,-3.749 -0.79155,-5.63067 -4e-5,-2.2149 1.80173,-3.75315 3.20925,-5.22397 3.22333,-3.2104 6.70358,-6.22332 10.63696,-8.53363 2.42355,-1.18639 5.10519,-1.89492 7.7999,-2.04509 2.25044,-0.0973 4.51547,0.69849 6.13033,2.28552 2.06852,2.0368 3.93879,4.46615 4.57805,7.35623 0.54223,2.08713 0.86638,4.30798 0.24841,6.4183 -1.02907,4.34348 -2.98076,8.45358 -5.70942,11.98775 -0.92921,1.24603 -1.96254,2.47491 -2.94563,3.54904 -3.0077,3.18486 -6.33428,6.05829 -9.74207,8.80454 -2.88911,2.11245 -5.79399,4.20652 -8.60695,6.42216 -3.08819,2.35649 -6.09457,4.83328 -8.76887,7.6594 -2.7661,2.82531 -5.3554,5.89788 -7.0514,9.50038 -2.62528,5.28864 -4.10548,11.12269 -4.52014,17.00286 -0.18549,1.56159 0.31151,3.27444 1.66982,4.18 1.33394,1.04169 3.44349,0.77369 4.41211,-0.64062 1.86695,-2.41519 2.16196,-5.56088 3.0248,-8.39723 0.98137,-3.40667 1.53397,-7.06391 3.66271,-10.00317 2.98337,-4.17155 6.77559,-7.68099 10.58157,-11.08701 3.96116,-3.56524 8.15508,-6.8554 12.3659,-10.11701 3.74532,-3.02806 7.49648,-6.08358 10.83573,-9.56355 2.64491,-3.08467 4.93398,-6.50061 6.68196,-10.1719 1.8642,-3.92772 2.56772,-8.31195 2.45343,-12.63591 0.0248,-2.91657 -0.33264,-5.94045 -1.87283,-8.48195 -2.1307,-3.70766 -4.9443,-7.08385 -8.43704,-9.57666 -2.44682,-1.63525 -5.38344,-2.40123 -8.31771,-2.27225 z m -584.71485,1.91211 c -2.03035,0.0235 -3.32838,1.88808 -4.15428,3.52045 -0.96477,1.95456 -1.45574,4.10012 -2.34739,6.08859 -1.9148,4.58195 -3.77487,9.22547 -6.37948,13.47014 -2.6998,4.26413 -6.3589,7.82058 -10.14575,11.11442 -3.60316,3.07484 -7.7522,5.69479 -11.83833,7.88452 -3.49125,1.86289 -7.22107,3.59491 -10.74805,5.16211 -6.1762,2.71936 -12.52318,5.17182 -19.15625,6.50977 -0.38492,0.004 -1.40164,0.34646 -1.41638,-0.0658 2.05883,-6.3881 4.47995,-12.66144 7.38327,-18.71521 2.08374,-4.37822 4.42295,-8.64821 7.12296,-12.67796 0.84333,-1.2492 2.535,-1.20491 3.87736,-1.35403 3.75704,-0.16339 7.71284,0.126 11.22029,-1.48386 2.13538,-1.13706 3.63542,-3.15842 4.91797,-5.15429 1.11671,-1.9342 2.20925,-4.26021 1.37968,-6.51251 -0.8798,-2.56352 -2.99642,-4.6081 -5.42536,-5.73106 -1.70869,-0.6664 -3.54524,-1.29847 -5.39963,-1.13729 -1.95072,0.49811 -3.43338,2.00289 -4.93437,3.26166 -2.59235,2.2696 -4.67049,5.04914 -7.20626,7.3731 -0.73326,0.74957 -1.80663,1.03487 -2.81849,0.77643 -2.97615,-0.58725 -5.89395,-1.44302 -8.86942,-2.04215 -6.547432,-1.41359 -13.122647,-2.85175 -19.810754,-3.39462 -2.32131,-0.2332 -4.687543,0.62435 -6.311809,2.30061 -3.134137,3.02982 -5.354888,7.0322 -6.007952,11.36249 -0.525138,3.57347 -0.543624,7.3337 0.646554,10.7824 0.853474,2.05934 2.000221,4.21045 3.984375,5.37109 1.273395,0.77089 3.084182,1.10601 4.269532,-0.0117 1.387766,-1.2834 1.574544,-3.43459 0.800582,-5.0963 -0.37164,-1.11425 -1.272518,-1.90488 -1.844952,-2.88968 -0.661941,-1.87096 -0.271974,-3.90688 -0.171269,-5.84011 0.182094,-2.13692 0.551291,-4.4484 2.18184,-6.00012 0.86834,-0.79029 1.610626,-1.91199 2.809189,-2.19722 2.413387,-0.18076 4.798991,0.43771 7.173818,0.78496 5.571064,0.98429 11.163476,1.9281 16.635446,3.37987 0.50347,0.15798 0.997,0.3482 1.47785,0.56563 -2.10947,3.29164 -4.10088,6.66757 -5.88474,10.14741 -2.735881,5.67183 -4.879292,11.60072 -6.981524,17.52887 -1.103103,2.83643 -2.164834,5.72136 -3.720644,8.34687 -0.786112,0.73103 -1.873363,1.09029 -2.811961,1.60457 -6.242652,2.9811 -12.872828,5.03619 -19.159662,7.91607 -3.084732,1.3509 -6.168477,2.78495 -8.835692,4.87314 -4.803991,3.58411 -9.490066,7.66292 -12.29201,13.06314 -1.962177,3.74806 -3.100835,7.89118 -3.718793,12.06162 -0.615292,4.18571 1.136344,8.33937 3.518303,11.69464 1.413657,1.84409 2.89362,3.78672 4.970703,4.91602 2.415017,1.05121 5.163484,1.61415 7.757752,0.91758 2.48387,-0.52734 4.910886,-1.43793 6.955273,-2.9727 3.541618,-2.48341 6.75182,-5.46505 9.30308,-8.9694 3.357291,-4.39765 6.267024,-9.11884 8.841047,-14.01242 2.787362,-5.14453 5.487008,-10.34023 7.831831,-15.70403 1.186594,-2.53098 2.186395,-5.15052 3.432111,-7.65161 0.605075,-1.20799 2.16542,-1.06279 3.299916,-1.20036 4.76321,-0.14733 9.54009,-0.12957 14.29649,0.19304 0.77539,0.0967 1.62398,0.0561 2.345,0.32568 1.15539,1.1398 1.73216,2.69031 1.9875,4.26466 0.81494,3.81059 0.45543,7.72846 0.42926,11.59096 -0.15073,8.03013 -0.84699,16.13763 -0.8693,24.2139 0.0687,2.28703 -0.0439,4.67556 0.80125,6.8418 1.18126,2.67548 4.45152,4.05812 7.22765,3.24565 5.27491,-1.32431 10.01776,-4.15244 14.47878,-7.18055 1.03804,-0.72419 2.02284,-1.52774 2.91556,-2.42564 0.53094,2.24724 1.50354,4.78478 3.80078,5.73242 3.34657,1.38528 7.3266,1.55422 10.59571,-0.15039 3.73205,-1.91396 6.73315,-4.91835 9.86008,-7.6536 5.62973,-5.17653 11.38534,-10.41382 15.47568,-16.94753 1.45514,-2.50576 2.48852,-5.22849 3.68143,-7.86357 0.65333,-1.43818 1.11846,-2.83091 1.83437,-4.19155 0.31155,-0.56082 0.74107,-1.25708 1.48437,-1.11914 4.97419,-0.76069 9.69252,-2.59961 14.53711,-3.89258 -2.76386,7.23696 -6.04581,14.26267 -8.81333,21.49854 -1.53762,3.8447 -2.8949,7.75596 -4.19052,11.68738 -0.75443,2.09565 -1.44174,4.12693 -2.41728,6.16153 -0.42819,0.68792 -0.86246,1.63762 -1.76635,1.71675 -2.87913,1.05019 -5.55039,2.59306 -8.25446,4.02087 -6.26605,3.49471 -12.4934,7.05997 -18.74576,10.57936 -4.64075,2.79376 -9.25474,5.64387 -13.70498,8.73433 -2.98919,2.2047 -6.00304,4.48285 -8.34755,7.39226 -1.82403,2.72226 -2.64832,6.01028 -2.93779,9.24239 -0.22788,2.97719 0.0633,6.1301 1.72386,8.6954 1.46836,2.33405 3.36444,4.49866 5.77252,5.88838 2.10286,0.89022 4.44158,0.96307 6.68825,1.16054 3.35057,0.15695 6.90864,0.29554 9.9641,-1.32851 2.68059,-1.43286 5.18596,-3.18814 7.56149,-5.07959 3.66416,-3.0346 7.03682,-6.4859 9.56588,-10.53773 2.83205,-4.21097 5.3916,-8.59756 7.73744,-13.09641 2.4365,-4.51725 4.8587,-9.18218 7.24066,-13.63978 1.24919,-2.24966 2.347,-4.41097 3.72656,-6.58594 2.32717,-1.63248 5.01332,-2.94235 7.47265,-4.17774 6.51407,-3.09152 13.01094,-6.24208 19.71134,-8.91496 0.53862,-0.37058 0.9651,-0.2603 1.19687,0.35246 1.21056,2.17368 2.53517,4.48667 4.76758,5.75196 2.06019,0.85465 4.38095,0.5762 6.53066,0.27034 4.43781,-0.65614 8.07188,-3.55649 11.30251,-6.47168 1.10458,-1.00337 2.18892,-2.02988 3.30159,-3.02523 0.15939,3.53274 0.71674,7.24782 2.875,10.16211 0.84387,1.37314 2.40298,2.01221 3.93579,2.23336 2.94154,0.54015 5.93402,-0.1448 8.78687,-0.8525 2.7894,-0.9502 5.22373,-2.69889 7.57018,-4.4395 2.077,-1.64581 4.10844,-3.37793 5.90137,-5.33319 1.06941,-1.12337 1.68641,-2.91948 0.78439,-4.32327 -0.89433,-1.48665 -2.66068,-2.76452 -4.46102,-2.18724 -2.10526,0.70589 -3.65132,2.42078 -5.31588,3.81137 -2.3384,2.06244 -4.86098,4.16358 -7.89115,5.12613 -0.9278,0.13264 -1.9729,0.52636 -2.87305,0.125 -1.29608,-1.13977 -1.12981,-3.0519 -1.11102,-4.61952 0.12488,-3.33299 1.26076,-6.51345 2.18778,-9.68572 2.35542,-7.49581 5.43125,-14.73877 8.4854,-21.97005 1.53737,-3.78736 3.67226,-7.37334 4.55358,-11.39762 0.2974,-1.16557 -0.15347,-2.42531 -1.16652,-3.08881 -1.38818,-1.04234 -3.49257,-1.34254 -4.88867,-0.14844 -2.5396,2.01161 -3.66498,5.1668 -5.05133,7.98138 -0.36677,0.77918 -0.7076,1.56987 -1.04437,2.36237 -0.75761,-2.24096 -1.53022,-4.61757 -3.20346,-6.35571 -1.63081,-1.23323 -3.66372,-1.82144 -5.63444,-2.26929 -1.96464,-0.47092 -3.97548,0.3325 -5.45507,1.61719 -2.49706,2.14189 -4.78915,4.52295 -6.94255,7.0074 -3.84092,4.50884 -6.86973,9.65908 -9.23351,15.07906 -2.09683,4.58675 -3.97069,9.27143 -5.66965,14.01901 -0.30875,0.75933 -0.60819,1.53032 -1.04687,2.22656 -1.86384,-0.22082 -3.65549,0.59297 -5.39859,1.14252 -4.72997,1.69054 -9.30252,3.93751 -13.82355,5.94652 -1.64808,0.72546 -3.30179,1.43981 -4.97708,2.10042 2.33745,-7.73479 5.51964,-15.17818 8.64191,-22.61957 2.47456,-5.71636 5.00133,-11.42504 7.98768,-16.89569 0.67635,-1.19304 1.68524,-2.19465 2.08525,-3.54139 0.67249,-1.60212 0.43573,-3.54833 -0.75865,-4.84325 -1.3747,-1.75119 -4.38452,-2.30715 -5.964,-0.53565 -0.56394,0.75216 -0.83983,1.68843 -1.54479,2.34863 -1.13925,1.49091 -3.03805,2.00101 -4.67118,2.75363 -4.78137,1.91282 -9.75458,3.31695 -14.75966,4.50777 -0.51516,0.22071 -0.94019,0.17411 -0.96872,-0.46892 -0.44881,-1.91318 -0.68354,-3.92342 -1.70712,-5.64772 -1.69297,-3.09507 -4.73353,-5.17572 -7.82705,-6.70433 -2.38038,-1.17098 -5.15268,-0.74304 -7.63476,-0.16797 -2.86056,0.80316 -5.35285,2.51345 -7.82444,4.10557 -3.57775,2.46692 -6.91908,5.29095 -9.94119,8.41396 -1.9355,2.24802 -3.24003,4.95056 -4.62925,7.55106 -2.54862,4.8289 -4.11725,10.10101 -5.41621,15.38268 -0.83496,3.55866 -1.32927,7.193 -1.60493,10.8358 -1.84589,-0.46275 -3.57137,0.66998 -5.15733,1.45356 -2.68347,1.52799 -5.15849,3.39405 -7.85428,4.90409 -1.35922,0.7664 -2.70769,1.6157 -4.21886,2.04664 -0.79187,-3.63548 -0.14662,-7.36845 0.10156,-11.02929 0.51185,-5.74096 1.42727,-11.45027 1.52365,-17.22289 0.13953,-3.71312 -0.0212,-7.45205 -0.82702,-11.08965 -0.43843,-2.14292 -0.95628,-4.37817 -2.44017,-6.06678 -0.80367,-1.01562 -1.69156,-1.97151 -2.69005,-2.79842 4.46335,-2.57655 9.20846,-4.6256 13.71005,-7.13442 4.07911,-2.29561 8.20734,-4.56766 11.91879,-7.43746 3.29823,-2.81214 6.43221,-5.8439 9.19929,-9.18398 2.96471,-4.03834 5.40174,-8.43983 7.69632,-12.8851 2.06671,-4.1526 4.01108,-8.39995 5.32299,-12.85823 0.48318,-1.72624 0.55517,-3.71171 -0.32205,-5.32503 -0.56913,-0.90762 -1.62162,-1.4227 -2.68555,-1.35937 z m -39.38476,8.88672 c 0.35717,0.14667 1.34357,0.42215 0.95404,0.90827 -1.38961,2.20172 -3.85097,3.60199 -6.42279,3.85149 1.47828,-1.90612 3.29805,-3.67146 5.46875,-4.75976 z m 465.69531,18.99023 c -3.57117,0.22334 -6.96756,2.21019 -9.00586,5.13281 -1.28411,2.04782 -0.66786,4.59926 0.0293,6.73828 0.75662,1.985 1.72311,4.23597 3.8414,5.07572 2.68944,1.11992 5.76152,1.34364 8.59243,0.67149 2.04396,-0.48957 3.47384,-2.20334 4.34547,-4.02455 0.97425,-2.03273 2.19297,-4.19505 1.875,-6.53125 -0.41374,-2.29995 -2.11514,-4.14821 -3.95079,-5.47734 -1.66643,-1.14661 -3.71291,-1.67927 -5.72695,-1.58516 z m -372.41992,1.71484 c -3.58395,0.12114 -7.03788,2.17792 -8.92736,5.21053 -0.99035,1.99116 -1.7146,4.23205 -1.5492,6.47893 0.36077,2.37156 1.70423,4.83292 4.08093,5.66848 2.84208,1.08116 6.07666,1.24088 8.98992,0.34313 2.47913,-0.86652 4.50901,-2.79255 5.8354,-5.02333 1.2715,-2.36401 0.9809,-5.18507 0.49023,-7.7207 -0.36735,-1.83091 -1.86619,-3.20186 -3.59023,-3.78205 -1.70551,-0.63633 -3.4891,-1.20563 -5.32969,-1.17499 z m 373.01758,6.29297 c 0.74556,-0.0502 0.0934,0.92013 0.0825,1.36129 -0.3551,-0.0349 -0.87159,-0.56921 -1.27391,-0.82222 -0.94951,-0.51923 0.0939,-0.55251 0.65751,-0.55478 0.17785,-0.002 0.35601,0.0119 0.5339,0.0157 z m -371.72461,1.24414 c 0.29563,0.39876 -0.2962,1.01095 -0.51056,1.41296 -0.6714,0.65662 -1.79246,0.64291 -2.66913,0.49134 -0.49003,-0.19407 0.63675,-0.7861 0.89691,-1.05008 0.68711,-0.43701 1.46451,-0.78032 2.28278,-0.85422 z m 366.55078,12.7461 c -2.07703,0.17355 -3.37069,2.20647 -3.8752,4.04784 -1.19506,3.84056 -2.76316,7.55528 -4.20972,11.30634 -4.7192,11.84542 -9.72663,23.57808 -15.05433,35.16276 -2.62547,5.55547 -5.1946,11.1369 -7.83316,16.6852 -1.07725,2.00943 -2.24877,4.0609 -4.11638,5.4437 -4.28174,3.54686 -9.03528,6.4579 -13.54562,9.69562 -3.91444,2.74492 -7.48515,5.94326 -11.07611,9.09013 -4.17252,3.77297 -8.1432,7.79248 -11.70267,12.15243 -4.11532,5.25803 -6.88433,11.68926 -7.25412,18.39741 -0.12895,1.8049 0.32403,3.65712 1.49039,5.07031 1.49455,2.09785 3.71047,3.57234 6.13483,4.38652 2.39908,0.91943 4.99306,1.07012 7.51508,1.40478 1.71612,-0.018 3.45526,-0.59789 4.85504,-1.58857 2.47464,-2.14587 4.48351,-4.76832 6.49879,-7.33504 4.00934,-5.35466 7.61603,-11.0034 11.02258,-16.75723 3.45133,-6.06429 6.49282,-12.35879 9.27031,-18.75766 1.7559,-4.06904 3.43308,-8.20137 5.70667,-12.01611 0.89518,-1.03363 2.0829,-1.83832 3.0708,-2.64908 4.99798,-3.88356 10.48257,-7.07266 15.88602,-10.34678 3.58813,-2.09246 7.30239,-4.26574 10.79505,-6.62146 1.12492,-0.72922 2.17509,-1.56377 3.12487,-2.50354 0.48427,-0.51205 0.52471,0.45132 0.81598,0.69657 1.59821,2.00591 3.9388,3.31284 6.3251,4.16304 3.34665,1.15508 7.15765,0.78103 10.22208,-0.99153 2.38021,-1.21496 4.37432,-3.02733 6.15749,-4.99296 2.19975,-2.33069 4.33608,-4.72291 6.39537,-7.17785 0.0918,2.78595 0.30684,5.64259 1.32031,8.26367 1.49675,3.22164 5.31632,4.98411 8.76367,4.33594 3.77462,-0.57096 6.95523,-2.86257 10.52344,-4.04492 0.54761,-0.21687 1.1555,-0.20683 1.57617,0.2539 2.14715,1.27998 4.39979,2.65533 6.96886,2.7675 4.04805,0.44128 7.99299,-0.85472 11.81358,-2.01377 4.39365,-1.34753 8.36573,-3.73175 12.3072,-6.03961 3.84615,-2.36992 7.631,-4.87996 11.07638,-7.80982 0.93531,-0.74351 1.68261,-1.90082 1.37305,-3.13672 -0.43255,-2.10181 -2.8581,-3.52075 -4.90095,-2.80102 -3.47481,1.0576 -6.11023,3.65284 -9.12791,5.51971 -4.4298,2.85031 -9.12407,5.32916 -14.13325,6.99616 -0.36244,0.10882 -1.11056,0.37431 -1.62915,0.52565 -2.09019,0.62645 -4.3697,1.23342 -6.53101,0.61497 -1.42686,-0.49022 -1.63429,-2.20448 -1.89885,-3.48347 -0.5039,-3.1839 -0.59689,-6.50839 0.44704,-9.60054 2.07692,-6.40761 4.95235,-12.72503 9.52821,-17.75112 2.81708,-2.92077 5.8846,-5.64477 9.314,-7.82811 2.73798,-1.63591 5.89587,-3.17328 9.1751,-2.59632 1.10685,0.0283 1.64609,1.19746 1.52195,2.17382 -0.20646,1.46732 -0.95173,2.82378 -0.97643,4.33204 -0.30104,2.09715 0.74351,4.4757 2.80109,5.24784 1.40464,0.46604 2.71099,-0.55394 3.48624,-1.6363 1.74166,-2.31077 2.88626,-5.11092 3.18707,-7.99122 0.0919,-2.11518 -1.25125,-3.95826 -2.50565,-5.53713 -2.08939,-2.46719 -4.97618,-4.52339 -8.30243,-4.69277 -3.95014,-0.32376 -7.66401,1.48181 -11.01367,3.36523 -4.22875,2.51094 -8.15586,5.52935 -11.7562,8.8753 -3.10588,3.12279 -5.69326,6.75817 -7.75356,10.64619 -1.5672,3.35862 -3.15224,6.71501 -4.54092,10.15166 -1.02224,3.25805 -1.11621,6.70293 -1.1583,10.08857 0.0185,1.06501 -0.44268,2.09069 -1.32613,2.70776 -1.97419,1.53996 -3.99884,3.22493 -6.47856,3.84693 -0.87155,0.1865 -1.77754,0.0895 -2.63867,-0.10156 -0.82332,-3.7209 -0.0196,-7.57233 1.1289,-11.13477 1.37843,-3.87854 2.90284,-7.7045 4.64394,-11.43494 2.76072,-6.40038 5.86262,-12.69459 7.80724,-19.40881 0.51845,-1.84306 0.47366,-4.23836 -1.16407,-5.51562 -1.26565,-1.01218 -3.1628,-0.71551 -4.256,0.41256 -1.46104,1.31911 -2.3939,3.09401 -3.20689,4.85892 -1.46416,-1.80794 -3.193,-3.66367 -5.58499,-4.11363 -3.34746,-0.62651 -6.92272,-0.28516 -9.98727,1.25621 -3.91455,1.97284 -7.45513,4.60118 -10.93376,7.24768 -3.12561,2.35244 -5.59244,5.42286 -8.15156,8.34883 -2.86057,3.38299 -5.06067,7.28264 -6.8971,11.29997 -1.30445,3.20279 -2.45137,6.52289 -2.87743,9.96863 0.0368,1.31112 -0.27369,2.65051 -1.16139,3.65651 -1.87395,2.19386 -4.25044,3.88626 -6.5308,5.62836 -4.16817,2.87262 -8.48105,5.5307 -12.72029,8.29715 -1.59801,1.02693 -3.2133,2.02779 -4.86244,2.97084 3.75812,-8.88981 8.19263,-17.47236 12.06837,-26.30939 1.36528,-2.96572 2.56348,-6.00159 3.69109,-9.06401 1.93893,-5.0992 4.19186,-10.07224 6.13627,-15.16834 0.82466,-2.38947 1.78529,-4.78427 2.04763,-7.31568 0.12558,-2.22478 -2.17122,-4.19405 -4.32031,-4.09375 z m -93.39648,-0.006 c -2.24149,-0.0356 -4.01734,1.71775 -4.89844,3.64062 -0.96706,2.14184 -1.90202,4.37468 -3.59188,6.06473 -4.21241,4.99362 -8.10055,10.26259 -12.58904,15.02092 -0.86028,0.92797 -1.73288,1.84616 -2.65697,2.71123 1.24191,-6.38372 2.97123,-12.6862 3.71484,-19.15821 0.12732,-2.98014 -1.2978,-6.18962 -4.02539,-7.59765 -1.44046,-0.70887 -3.10876,0.0782 -3.98828,1.29687 -2.36586,3.38985 -3.7513,7.33018 -5.63022,10.98893 -3.46857,7.01948 -7.15488,13.94461 -11.44472,20.50204 -3.34298,5.34315 -7.40966,10.19788 -10.68042,15.58554 -1.73103,2.05744 -4.01858,3.82455 -6.68605,4.41568 -0.40553,-0.10279 -0.50237,-0.80107 -0.69336,-1.16211 -0.36405,-1.17224 -0.36887,-2.51919 -0.44901,-3.6146 -0.10448,-1.48363 -0.0343,-3.23507 -0.0129,-4.83729 0.0383,-1.68337 -0.59489,-3.60797 -2.26574,-4.30459 -2.02835,-0.98734 -4.30838,0.0725 -6.01344,1.23319 -1.56432,1.18102 -2.98163,2.54916 -4.58899,3.67954 -2.45901,1.84416 -5.14935,3.67113 -7.6836,5.20703 0.0839,-0.53899 0.36249,-1.30533 0.52737,-1.92732 3.15265,-10.78705 6.99744,-21.35382 10.85711,-31.90287 0.98839,-2.92593 2.05589,-5.85299 2.59404,-8.90223 0.23593,-1.95787 -1.12665,-3.98766 -2.97641,-4.61595 -1.8902,-0.53442 -3.60638,1.02121 -4.35912,2.62441 -2.58396,6.21916 -4.59794,12.67394 -7.49701,18.76417 -1.92364,4.16504 -4.00666,8.28607 -6.7578,11.97597 -3.36188,4.72073 -7.14189,9.15469 -11.44566,13.04526 -2.04457,1.8017 -4.05113,3.85469 -6.68646,4.75198 -1.2436,0.16176 -2.0714,-1.11802 -2.55001,-2.09 -0.54658,-1.51106 -0.36387,-3.17689 -0.3444,-4.75669 0.15728,-3.37591 1.29863,-6.59624 2.19038,-9.8276 0.90753,-3.04828 1.91319,-6.14523 2.94889,-9.06232 0.97831,-2.79381 2.05065,-5.66151 3.14361,-8.47329 0.96299,-2.42282 1.98536,-5.01136 3.14537,-7.42319 0.98775,-2.21278 2.00258,-4.51864 2.12026,-6.97134 -0.0903,-1.72766 -1.39411,-3.44495 -3.10742,-3.82813 -1.35451,-0.36745 -2.45896,0.78054 -3.17579,1.78516 -2.46613,3.44736 -4.08172,7.39627 -6.24269,11.02769 -1.60295,2.81126 -3.46476,5.46398 -5.10027,8.25669 -3.68664,6.07698 -7.19406,12.27961 -11.41364,18.01268 -1.65644,2.41514 -3.68343,4.54508 -5.90918,6.44089 -3.7898,3.30268 -7.90754,6.36187 -12.59889,8.25104 -1.07102,0.42376 -2.20201,-0.23512 -3.17354,-0.65533 -1.50842,-0.78732 -2.24206,-2.46859 -2.9167,-3.9423 -0.89192,-2.13716 -0.80242,-4.50963 -0.33394,-6.73505 1.25117,-6.06514 2.89464,-12.0527 4.87752,-17.91924 0.70191,-2.15717 1.57844,-4.27294 2.93001,-6.11175 2.38253,-3.45436 5.08165,-6.7439 8.31687,-9.43511 0.73294,-0.59042 1.82584,-1.30194 2.70508,-0.55545 1.11704,0.64251 1.67181,1.86476 1.85823,3.09336 0.65881,2.71181 0.47423,5.51263 0.69646,8.26992 0.13284,1.58788 0.69988,3.52062 2.40585,4.02833 1.85312,0.59877 3.6395,-0.88474 4.36042,-2.50009 0.80673,-1.89356 0.99126,-3.99667 1.09701,-6.03409 -0.1313,-2.65245 -1.00553,-5.21654 -1.99219,-7.66211 -1.39555,-3.12825 -3.91141,-6.00479 -7.34551,-6.85613 -1.95229,-0.60001 -4.13955,-0.55817 -5.95526,0.44693 -2.37521,1.15146 -4.67548,2.58549 -6.35157,4.66353 -3.90469,4.47225 -7.01909,9.60122 -9.5002,14.98288 -1.0483,2.49996 -1.67776,5.15196 -2.49549,7.73237 -1.61195,5.40033 -3.22304,10.86698 -3.64209,16.51318 -0.061,4.09838 1.43012,8.12472 3.71142,11.48931 1.27716,1.99061 3.32423,3.49225 5.68094,3.87842 2.72493,0.46684 5.56217,0.47338 8.26977,-0.10676 4.20734,-1.21589 8.00916,-3.55496 11.35157,-6.34844 4.04808,-3.27078 7.83982,-6.88545 11.01931,-11.01826 0.40127,-0.49346 0.77077,-1.01145 1.15555,-1.51766 -0.73184,3.55982 -1.3319,7.29146 -0.39649,10.875 0.43092,1.9248 1.26626,3.86796 2.92969,5.03906 2.53657,1.9321 5.75122,3.11146 8.96094,2.92383 2.76048,-0.26192 5.11245,-1.90321 7.15234,-3.66406 3.51834,-2.94172 6.73269,-6.21709 9.94922,-9.47852 -0.67436,2.55026 -1.0436,5.37808 -2.84375,7.4336 -8.56225,5.39434 -17.2928,10.53394 -25.67865,16.20734 -5.79178,3.89387 -11.58352,7.85071 -16.67957,12.64631 -2.35724,2.17167 -4.67732,4.46903 -6.19763,7.32786 -2.98021,5.13435 -5.22843,10.97701 -4.86876,17.00701 0.21996,4.01039 1.464,7.99801 3.68242,11.35445 1.52806,2.06552 3.24805,4.1175 5.51368,5.39648 2.56656,1.03821 5.38763,1.24724 8.12967,1.33585 2.24647,0.0903 4.64064,-0.12733 6.50156,-1.51595 2.74961,-1.97619 4.98785,-4.55535 7.38749,-6.92341 4.48844,-4.68264 8.47582,-9.90567 11.33864,-15.74694 2.09601,-4.03306 4.36212,-7.97481 6.58976,-11.93456 3.31443,-6.65158 5.73221,-13.70162 8.04893,-20.7489 0.97757,-2.82124 1.90405,-5.66426 3.02934,-8.43093 4.14581,-3.09613 8.61103,-5.73377 13.00988,-8.4489 0.84278,-0.49701 1.72322,-1.05859 2.56433,-1.47884 0.26176,4.25591 3.39829,7.88557 7.12831,9.67971 1.41458,0.745 3.09745,0.77369 4.57579,0.19748 2.92642,-0.93809 5.51832,-2.71082 7.65305,-4.90094 4.09549,-3.90218 7.17093,-8.68742 10.42133,-13.27645 3.99933,-5.71752 7.45284,-11.79359 10.78598,-17.91659 -1.15033,4.84536 -2.74989,9.5777 -3.72266,14.46484 -0.35142,1.58706 -0.44325,3.59439 0.99219,4.68945 1.56654,1.17291 3.81536,0.78212 5.30643,-0.33504 2.87158,-1.9004 4.7106,-4.88557 7.02091,-7.36543 2.53095,-2.87744 5.09333,-5.72833 7.73321,-8.50656 -2.23522,7.30016 -4.42329,14.63139 -5.99804,22.10719 -0.36274,2.04984 -0.94054,4.10202 -0.89259,6.19555 0.52783,2.69476 2.47973,4.84558 4.49043,6.59575 1.26181,1.1903 3.16189,1.47884 4.75833,0.84817 3.81416,-1.29741 7.21593,-3.56599 10.37463,-6.02381 2.4118,-2.00091 4.90066,-3.93382 7.10247,-6.16792 1.27416,-1.47478 2.65995,-3.38067 2.13742,-5.44165 -0.29732,-1.6156 -2.00393,-2.98901 -3.65625,-2.42968 -2.18555,1.01642 -4.03383,2.61772 -5.9614,4.04035 -3.45882,2.68807 -6.75324,5.65579 -10.62454,7.75261 -0.47724,0.0856 -0.007,-0.95002 -0.0786,-1.29815 0.84384,-5.7753 2.0486,-11.50606 3.70752,-17.10419 1.10109,-3.71916 2.41107,-7.58095 3.81481,-11.27789 2.06358,-5.42081 4.57704,-10.92741 6.72073,-16.4536 0.74139,-2.07763 1.79306,-4.0923 2.05431,-6.30562 0.21507,-1.50946 -0.80387,-3.07176 -2.33594,-3.33398 -0.50383,-0.1229 -1.02362,-0.13116 -1.53906,-0.13672 z m -318.86133,8.21093 c 1.17056,1.59587 3.04496,2.73278 5.03711,2.82032 0.63923,0.66854 0.62864,1.71503 0.64843,2.58594 -2.12883,0.46966 -4.39158,0.55073 -6.52343,0.0586 -1.70642,-0.54099 -2.9959,-1.96892 -3.89649,-3.46094 1.28732,-1.09344 2.8206,-1.84683 4.35547,-2.52539 0.1263,0.17383 0.2526,0.34766 0.37891,0.52148 z m 76.22265,2.48829 c 0.79716,0.64538 1.64094,1.4822 1.48828,2.6082 -0.0306,2.45101 -0.98039,5.04057 0.0742,7.39961 0.37058,0.79884 1.02907,1.4392 1.78711,1.87109 -0.89909,2.6305 -2.16688,5.12377 -3.41835,7.6018 -2.20798,4.08696 -4.48091,8.22648 -7.76132,11.56927 -2.77738,2.9678 -5.9225,5.85062 -9.86419,7.12802 -0.81424,0.23498 -1.67938,0.0714 -2.4952,-0.0745 -0.43818,-1.70343 0.30418,-3.39871 0.67496,-5.04379 1.63457,-5.78008 3.86573,-11.28376 6.26383,-16.7491 1.71088,-3.62178 4.15636,-6.84097 6.6868,-9.92369 1.91696,-2.19043 3.91576,-4.32146 6.058,-6.29318 0.20823,-0.11048 0.3015,-0.4026 0.50586,-0.0937 z m 378.04883,0.40625 c 0.41896,0.0751 1.21317,-0.0713 1.08536,0.6047 0.11256,2.51128 0.18784,5.0942 1.12363,7.4617 -0.26118,1.67804 -1.3346,3.09193 -2.18475,4.52143 -1.49179,2.35754 -3.1848,4.71043 -4.2759,7.32561 -0.64071,1.41335 -1.71688,2.60244 -2.5999,3.87757 -3.84763,5.05533 -7.86439,10.00931 -12.36653,14.50016 -1.30154,1.17001 -2.83449,2.21153 -4.56121,2.59945 -1.13431,-0.12081 -2.41185,-0.41667 -3.2034,-1.2912 -0.76104,-1.597 -0.63835,-3.44329 -0.75613,-5.17023 -0.11253,-3.47064 -0.16328,-7.08791 1.30586,-10.31832 2.15961,-5.4606 5.93955,-10.07513 9.96434,-14.2717 3.02233,-3.03786 6.1278,-6.07954 9.80457,-8.32355 1.92536,-1.13324 4.22295,-1.40914 6.41523,-1.51562 0.0829,0 0.16589,0 0.24883,0 z m -466.24805,3.23828 c 2.48175,2.04384 4.30061,4.9828 7.39844,6.19922 2.64998,1.14832 5.61847,0.93324 8.35352,1.73437 -0.72011,2.41117 -1.63797,4.79478 -2.9375,6.95703 -3.75006,5.8723 -8.64653,10.89889 -13.78685,15.56049 -3.07167,2.75857 -6.21306,5.64463 -10.11002,7.17423 -0.60982,-0.0394 -1.2507,-0.22298 -1.76915,-0.53159 -0.37368,-2.2701 0.0227,-4.58371 0.16016,-6.86133 0.5023,-4.61665 1.30384,-9.22532 2.69626,-13.66166 1.19176,-3.33365 2.45264,-6.68625 4.31968,-9.70896 1.65166,-2.4641 3.39616,-4.9334 5.67546,-6.8618 z m -77.425777,2.55468 c -2.777046,6.31126 -5.895264,12.51714 -9.121094,18.56055 -1.440318,2.61668 -2.887255,5.43311 -4.728325,7.87807 -2.685673,3.62704 -5.64669,7.16698 -9.478337,9.63422 -1.653928,1.12628 -3.429683,2.13712 -5.419676,2.5099 -0.58408,0.0848 -1.235029,0.42968 -1.785651,0.34035 -1.823647,-1.77772 -3.806258,-3.78436 -4.074339,-6.45433 -0.387583,-3.20473 0.415398,-6.4083 1.274437,-9.47341 1.049463,-3.46511 2.977966,-6.6569 5.445077,-9.29616 2.634724,-2.47321 5.623378,-4.56603 8.757689,-6.35701 1.692269,-0.9045 3.39989,-1.69795 5.08884,-2.45748 4.695294,-2.15178 9.578421,-3.84468 14.390988,-5.70696 -0.116536,0.27409 -0.233072,0.54818 -0.349609,0.82226 z m 630.845707,28.68555 c -3.11493,0.0786 -6.16846,1.3885 -8.32178,3.65051 -1.98027,2.05305 -3.22519,4.69777 -4.23176,7.33463 -0.89218,2.23254 -0.63818,4.84543 0.67854,6.85861 1.40453,2.1925 3.35305,4.08276 5.65429,5.3125 2.13984,0.86019 4.48822,1.24675 6.79102,1.16602 2.92676,-0.32106 5.994,-1.20037 8.08008,-3.39649 2.06155,-2.01578 3.55664,-4.61849 4.23786,-7.41883 0.47603,-2.34506 -0.86384,-4.53377 -2.08855,-6.4175 -1.30581,-1.98611 -3.02888,-3.6653 -5.02041,-4.95859 -1.54506,-1.08676 -3.25434,-2.14943 -5.2135,-2.12551 -0.18844,-0.012 -0.37714,-0.005 -0.56579,-0.005 z m -0.84571,8.57617 c 0.9013,0.63046 1.52886,1.61376 2.56883,2.06768 0.86535,0.49484 1.85064,0.73995 2.83742,0.79951 0.62432,0.11447 0.0336,0.6952 -0.0996,1 -1.27671,1.79981 -3.06601,3.42486 -5.25541,3.95825 -1.42646,-0.0128 -3.0245,-0.68514 -3.52922,-2.1267 -0.55878,-0.84317 0.0984,-1.74503 0.44674,-2.51905 0.70226,-1.27539 1.64472,-2.45599 2.86524,-3.26758 l 0.0884,0.0468 z m -319.92578,14.38477 c -1.17675,4.0671 -2.27036,8.17033 -3.91834,12.08062 -1.49378,3.85063 -3.40116,7.51655 -5.37834,11.13641 -2.12878,3.90088 -4.08799,7.89591 -6.31538,11.74204 -3.25445,5.18024 -6.87077,10.25303 -11.57153,14.22843 -1.49384,1.26036 -3.23,2.26387 -5.16873,2.6295 -0.79152,0.16434 -1.61123,0.50072 -2.39572,0.51503 -2.00023,-1.18633 -3.77409,-2.7697 -4.99034,-4.76773 -1.44598,-2.15097 -1.73795,-4.81968 -2.00141,-7.33422 -0.24033,-3.20698 0.69477,-6.37236 1.79635,-9.34854 1.27579,-3.03969 3.10356,-5.85846 5.31844,-8.29756 3.47778,-3.19535 7.22417,-6.08972 11.0084,-8.91122 4.37379,-3.18375 8.94232,-6.09348 13.6473,-8.76129 3.11079,-1.83894 6.11102,-3.85349 9.08204,-5.90711 0.46577,-0.29709 0.94123,-0.5793 1.42828,-0.8403 -0.18034,0.61198 -0.36068,1.22396 -0.54102,1.83594 z m -212.5625,0.25195 c -3.2039,5.61041 -6.28911,11.28812 -9.47265,16.91016 -2.24631,3.84052 -4.52201,7.69624 -7.44017,11.07593 -2.02822,2.4752 -4.12352,4.94617 -6.76543,6.79381 -1.75957,1.37451 -3.77645,2.41624 -5.96841,2.88863 -2.26798,0.54048 -4.77807,0.8992 -6.99006,-0.0396 -1.69376,-0.9821 -3.13858,-2.45664 -4.0664,-4.18359 -1.03486,-1.97039 -0.28009,-4.24131 0.30517,-6.22591 0.72185,-2.4843 2.74069,-4.25552 4.54571,-5.98192 3.03622,-2.75812 6.67077,-4.72617 10.12959,-6.88983 8.49362,-5.13073 17.29877,-9.71646 25.89062,-14.67578 -0.056,0.10937 -0.11198,0.21875 -0.16797,0.32812 z M 550.15625,247.369 c -3.94898,8.26717 -8.38262,16.35613 -13.04186,24.18323 -0.64736,1.0803 -1.3642,2.25364 -1.98333,3.20035 -1.48451,2.2973 -3.06374,4.53284 -4.71895,6.71017 -0.38026,0.47666 -0.94551,1.22565 -1.42604,1.78431 -1.23814,1.49756 -2.72272,2.92851 -4.57982,3.5985 -1.57889,-0.18735 -3.1988,-0.49434 -4.62507,-1.21628 -0.84629,-0.53847 -1.67722,-1.43644 -1.43801,-2.5243 0.25442,-3.50142 1.39631,-6.98958 3.59834,-9.75885 3.23754,-4.16735 7.10203,-7.78996 10.8398,-11.49793 4.61809,-4.40452 9.25809,-8.806 14.24227,-12.79801 1.15944,-0.89268 2.33882,-1.7603 3.54869,-2.58353 -0.13868,0.30078 -0.27735,0.60156 -0.41602,0.90234 z" />
  </g>
</svg>
