<?xml version="1.0" encoding="UTF-8" standalone="no"?>
<!-- Created with Inkscape (http://www.inkscape.org/) -->

<svg
   version="1.1"
   id="svg1"
   width="794.36938"
   height="169.00999"
   viewBox="0 0 794.36938 169.00999"
   xmlns="http://www.w3.org/2000/svg"
   xmlns:svg="http://www.w3.org/2000/svg">
  <defs
     id="defs1" />
  <g
     id="g1"
     transform="translate(-61.573978,-87.174608)">
    <path
       id="path1"
       style="fill:#363636"
       d="m 142.05664,87.179688 c -1.71846,-0.01789 -3.65829,1.098415 -3.77734,2.958984 -1.52081,4.918365 -3.3373,9.738253 -5.06334,14.555138 -2.85946,7.81578 -5.70695,15.58035 -8.74772,23.31664 -0.93698,2.30638 -1.976,4.57 -3.07371,6.804 -0.52417,1.02308 -1.14023,2.28323 -1.71621,3.39178 -4.58192,8.86198 -9.49773,17.53892 -14.06699,26.42854 -1.00649,2.36713 -2.48985,4.50387 -3.77882,6.72612 -4.269685,6.91353 -8.552174,13.82759 -13.189932,20.50239 -2.619038,3.52468 -6.214652,6.53161 -10.501494,7.72859 -1.8768,0.48595 -4.236017,0.59177 -5.686006,-0.91804 -1.440263,-2.08809 -1.95531,-4.65036 -2.40021,-7.10607 -0.446854,-3.04607 -0.712262,-6.23065 0.122866,-9.23378 1.130145,-2.99512 3.541789,-5.30765 6.074154,-7.16525 1.237613,-0.8439 2.554741,-1.67745 4.044987,-1.96756 0.193731,2.29327 1.294669,4.54563 3.035156,6.05664 1.136819,0.95067 2.880177,0.59766 3.788266,-0.49962 1.611837,-1.46159 2.106609,-3.7913 1.670382,-5.86712 -0.697288,-3.65114 -3.341693,-7.1022 -7.054241,-8.0208 -2.528519,-0.82778 -5.322116,-0.23734 -7.527594,1.17075 -2.889697,1.84893 -5.473598,4.18125 -7.68736,6.79882 -2.93695,3.50371 -4.646737,7.96505 -4.890621,12.52366 -0.233285,4.38888 0.239523,8.85423 1.630631,13.03352 1.277851,3.80468 3.811184,7.46355 7.655876,8.99028 4.037275,1.65479 8.613027,0.7637 12.479464,-0.93947 4.774295,-1.92811 8.410231,-5.77054 11.511369,-9.75642 5.164277,-6.7559 9.467177,-14.11379 13.792067,-21.42069 5.92834,-10.08759 11.21525,-20.53317 16.52819,-30.95279 2.91933,-5.86936 5.92898,-11.7022 8.53513,-17.71941 0.55151,-1.07628 0.48115,-2.31802 0.9948,-3.40845 0.34459,-0.92892 0.74437,-1.83652 1.16544,-2.73304 -0.58189,14.46195 -1.74025,28.92953 -2.29469,43.41994 -0.0714,2.76473 -0.25523,5.55784 0.12749,8.30574 0.16854,1.48392 1.37923,2.85258 2.93311,2.84729 1.58903,0.15296 3.09308,-0.69433 4.01338,-1.95578 2.07491,-2.78848 3.38192,-6.04701 4.8234,-9.18571 2.5986,-5.95684 5.17642,-11.83762 7.97481,-17.71722 1.76942,-3.68225 3.75133,-7.44728 5.6191,-11.1692 2.76951,-5.40935 5.45122,-10.86447 8.31902,-16.22279 -1.80379,7.30736 -2.98697,14.74737 -4.63281,22.08984 -0.1371,0.57372 -0.2887,1.29844 -0.43961,1.90161 -0.95125,4.15235 -1.37027,8.40434 -1.91195,12.62378 -0.92283,8.34897 -1.87841,16.75972 -1.24242,25.1682 0.50508,6.99617 1.28961,13.97118 2.15425,20.93121 0.2666,1.52647 0.19061,3.29296 1.39871,4.44942 2.12965,2.172 4.8041,3.92288 7.77797,4.65521 1.00185,0.3042 2.01762,0.0655 2.98199,-0.23453 1.1223,-0.25321 2.35997,-0.0932 3.34329,-0.81015 2.2816,-1.34088 4.05266,-3.34942 5.81472,-5.28631 1.35471,2.16547 2.68652,4.75102 5.30469,5.5664 3.15235,0.89099 6.47864,-0.1296 9.32872,-1.51143 2.93812,-1.59944 5.16415,-4.19873 7.26511,-6.74383 2.42017,-3.05878 4.6069,-6.41153 5.61485,-10.22132 2.18301,-7.12842 4.02365,-14.35956 5.66946,-21.62866 0.23167,-1.14278 0.82303,-2.26512 1.94453,-2.74491 2.34673,-1.17209 4.77336,-2.19642 7.01045,-3.58177 1.49521,-0.84924 2.89199,-1.85295 4.27626,-2.86886 -1.80803,4.24088 -3.68131,8.46899 -4.96502,12.90701 -2.16667,7.28945 -3.52695,14.93364 -2.97722,22.55774 0.35329,3.90691 1.19223,8.04916 3.84995,11.08526 1.48058,1.7043 3.74957,2.87791 6.0467,2.45892 3.34724,-0.55895 6.06019,-2.8558 8.41986,-5.15151 4.96939,-5.03956 8.77333,-11.09026 12.15574,-17.27047 0.33204,-0.61592 0.71638,-1.34514 1.0071,-1.89554 -1.34657,3.38903 -1.35712,7.10479 -1.34222,10.69714 0.11322,3.46563 0.28483,7.00027 1.35784,10.32239 0.82051,2.16023 2.42303,4.36851 4.86523,4.72852 2.59625,0.36537 5.12867,-0.63403 7.54324,-1.45679 3.01629,-1.30775 5.5383,-3.49791 8.01145,-5.61743 2.31966,-2.1594 4.71986,-4.34497 6.35077,-7.09428 0.71768,-1.13664 0.77031,-2.6481 -0.0441,-3.75143 -0.94852,-1.59292 -3.0986,-1.97126 -4.72274,-1.27402 -3.55452,1.41798 -5.92134,4.57717 -8.76302,6.98475 -1.76921,1.41383 -3.6481,2.91611 -5.91072,3.3967 -0.30279,-0.56368 -0.25079,-1.43812 -0.32227,-2.12891 -0.0799,-5.39931 0.81034,-10.75832 1.7876,-16.05152 1.46689,-7.68505 3.81064,-15.16072 5.78466,-22.72179 0.95679,-3.71317 2.1073,-7.39313 2.70207,-11.18745 0.26434,-1.45565 -0.17542,-3.16104 -1.57054,-3.88639 -1.25413,-0.86676 -2.74842,-1.91957 -4.35027,-1.37551 -1.91433,0.63264 -2.52758,2.80099 -3.00781,4.54493 -0.63639,2.5875 -1.09839,5.22861 -2.11048,7.70843 -2.79386,7.27079 -6.87894,13.94695 -11.0596,20.48629 -2.04508,3.29193 -3.87417,6.70985 -5.68693,10.13211 -2.41997,4.01912 -5.4285,7.71088 -8.96392,10.80075 -0.7196,0.56227 -1.45205,1.22684 -2.3197,1.50132 -1.39795,-0.93807 -1.91703,-2.70824 -2.28756,-4.26675 -0.66408,-3.35911 0.16845,-6.7634 0.76998,-10.06723 1.3758,-6.28852 3.11895,-12.53164 5.6875,-18.44532 2.24399,-4.44277 3.75981,-9.2027 5.32611,-13.91366 0.72506,-2.44971 1.62972,-4.88182 1.92585,-7.43008 0.14003,-1.95628 -1.38575,-3.85206 -3.36328,-4.01758 -2.15779,-0.28158 -4.16482,1.04679 -5.39092,2.73223 -3.51204,4.09738 -7.53182,7.78862 -12.00542,10.81431 -0.95844,0.62836 -1.94474,1.23908 -3.02359,1.639 -0.64193,-1.92211 -0.59839,-4.0241 -1.47265,-5.88281 -1.44959,-3.62833 -4.82021,-6.24529 -8.56024,-7.19095 -2.20455,-0.57818 -4.7275,-1.04799 -6.79511,0.20733 -2.24572,1.34698 -4.02805,3.31608 -5.89936,5.11908 -6.38754,6.63033 -10.11929,15.32181 -12.49334,24.10282 -1.24312,4.52823 -2.02946,9.16061 -2.80883,13.78553 -0.83303,4.04579 -1.94957,8.21029 -4.51325,11.53428 -1.1783,1.50836 -3.08166,2.84354 -5.08026,2.3755 -0.85565,-0.77666 -0.97121,-2.06189 -1.27213,-3.1257 -0.856,-4.37663 -1.30277,-8.82415 -1.7057,-13.26193 -0.3951,-5.12635 -0.39695,-10.27622 -0.18428,-15.41119 0.0623,-1.20282 0.13394,-2.65982 0.22504,-3.9583 0.44676,-6.72133 1.29308,-13.51619 2.36675,-20.09834 2.06443,-12.62824 5.12773,-25.07584 8.79688,-37.32813 1.23666,-4.58429 2.59985,-9.191675 2.93355,-13.950205 0.10512,-1.941214 -0.10943,-4.306711 -1.91575,-5.447513 -1.55962,-0.967822 -3.44744,-0.32832 -5.07054,0.106704 -0.62882,0.203576 -1.09048,0.630336 -1.29833,1.262375 -7.31823,14.030539 -14.38807,28.193229 -21.95814,42.091349 -3.4615,5.84966 -6.2109,12.07692 -9.13415,18.20292 0.33681,-12.39002 1.0561,-24.82018 1.97906,-37.23855 0.40898,-4.82721 0.69845,-9.67805 1.49743,-14.460404 0.62699,-2.885196 1.17033,-6.073481 -0.12493,-8.85769 -0.72536,-1.493061 -2.27928,-2.50998 -3.95703,-2.423828 z m 220.28516,0.04492 c -4.14075,0.234451 -7.81568,2.433858 -11.27167,4.534138 -7.20057,4.452461 -13.53442,10.576834 -17.46661,18.133834 -2.13669,4.23245 -3.57171,9.16185 -2.43164,13.89258 0.92826,3.86479 4.05294,7.26661 7.99218,8.10937 2.72934,0.58028 5.56706,-0.82736 7.09766,-3.08984 1.39171,-1.97782 2.11801,-4.35613 2.54492,-6.71289 0.3337,-1.84563 -0.66826,-3.66106 -2.1514,-4.71086 -1.34967,-1.13985 -3.53875,-1.26644 -4.8362,0.0261 -1.28578,1.20646 -1.52467,3.0552 -1.56634,4.72672 -0.0521,0.30931 -0.26398,0.9827 -0.66872,0.88189 -0.57372,-0.5925 -0.43127,-1.57037 -0.48532,-2.33435 0.16578,-3.6495 1.34652,-7.28073 3.4072,-10.30236 2.19474,-3.08721 4.85254,-5.83792 7.87429,-8.12328 1.02274,-0.80982 2.06558,-1.5942 3.13352,-2.343522 0.32984,-0.23146 0.98221,-0.669929 1.44336,-0.96289 0.61146,-0.376856 0.99467,-0.623656 1.6461,-0.975847 2.34046,-1.294306 5.21848,-2.426536 7.85058,-1.312638 1.32764,0.609889 2.60258,1.475519 3.50918,2.630282 0.53892,1.483985 0.205,3.114305 0.18283,4.657325 -0.0868,3.55491 -1.10118,7.00727 -2.53217,10.24021 -2.52663,5.81784 -5.51326,11.42083 -8.14955,17.18854 -3.93548,8.48149 -7.82233,16.99369 -11.27699,25.68395 -1.36534,3.24159 -1.99629,6.71652 -2.98624,10.0778 -1.06676,4.03956 -2.3652,8.01592 -3.39545,12.06421 -1.26043,5.66732 -1.95203,11.54385 -1.23305,17.33406 0.46079,3.27581 2.47152,6.06541 4.61936,8.47276 2.59859,2.7622 6.14948,5.0326 10.05837,4.99404 2.80946,-0.11478 5.31789,-1.60875 7.67006,-3.0135 3.76336,-2.41668 7.32808,-5.27843 10.04478,-8.85955 5.03056,-7.0678 9.25317,-14.66738 13.41602,-22.26563 1.6447,-3.04963 3.26226,-6.11349 4.85352,-9.1914 -3.15533,9.48601 -5.56195,19.38566 -5.36524,29.44648 0.0858,3.34457 0.0249,6.84231 1.3931,9.96583 0.93622,2.21856 3.16911,3.65674 5.52103,3.92466 2.11745,0.34813 4.31267,0.16142 6.30694,-0.65107 4.54903,-1.77244 8.64994,-4.56202 12.33287,-7.73779 3.64379,-3.19066 6.50164,-7.14617 9.37247,-11.01539 5.29202,-7.35349 10.10697,-15.06046 14.2064,-23.14366 2.20715,-3.98844 4.45144,-7.98839 7.22684,-11.6152 1.31955,-1.50623 2.77944,-3.15293 4.79074,-3.66996 1.32166,-0.25337 2.02009,1.21585 2.39379,2.2351 0.45333,1.18739 0.73091,2.50407 0.24392,3.73093 -1.14065,3.38772 -3.35555,6.34352 -5.9394,8.77525 -1.26918,1.2748 -2.91631,2.02779 -4.37313,3.04253 -1.59676,1.1392 -3.13975,3.02332 -2.65916,5.11463 0.5599,2.21066 3.14103,3.21333 5.22851,2.91602 2.23324,-0.28477 4.24563,-1.33608 6.23769,-2.31048 1.64236,-0.83076 3.60473,-0.15834 4.85771,1.05741 1.8054,1.6643 3.46828,3.65254 4.22882,6.02065 -2.05189,1.96039 -4.58668,3.32489 -7.04747,4.70051 -3.24149,1.76954 -6.64806,3.21389 -10.13417,4.42449 -4.0289,1.69243 -7.80007,4.32319 -10.26562,7.98242 -1.3218,1.95704 -2.02762,4.54776 -1.01005,6.79325 1.33453,3.11362 4.03518,5.46035 6.95673,7.0613 2.22764,1.23405 4.86121,1.79226 7.37514,1.24013 4.4792,-0.89399 8.67818,-2.91435 12.47114,-5.42085 3.44662,-2.26016 6.10005,-5.60352 7.81446,-9.32813 1.32607,-2.87299 1.9694,-5.98429 2.74023,-9.0332 0.90052,-2.64963 3.23898,-4.40642 5.24532,-6.20665 1.28914,-1.09256 2.45709,-2.05652 3.79266,-3.11382 0.7748,-0.61899 1.55667,-1.22929 2.34874,-1.82602 -0.28835,1.21264 -0.69592,2.69203 -1.07227,4.01172 -0.28288,0.96314 -0.64405,2.16559 -0.95703,3.2207 -0.46903,1.49235 -0.99988,3.19524 -1.48687,4.77372 -4.32772,14.13026 -7.74884,28.51739 -11.53716,42.78114 -1.42785,5.58032 -3.03996,11.14431 -3.78065,16.86897 -0.43781,2.28609 1.61368,4.75101 3.98438,4.47371 2.31519,-0.22694 3.82153,-2.48321 4.12939,-4.63502 1.11352,-5.40496 2.573,-10.6545 3.90595,-16.01646 2.50044,-9.87765 5.2156,-19.70812 7.28311,-29.68871 0.29701,-1.46614 0.33522,-2.97651 0.86208,-4.39375 1.30126,-4.35641 3.23878,-8.48687 4.62098,-12.81657 1.17923,-3.36103 2.10739,-6.80034 3.10181,-10.21738 1.02912,-3.60789 3.77796,-6.30586 6.27058,-8.96287 5.17457,-5.28749 10.3256,-10.62859 16.00625,-15.38095 0.33808,-0.2114 0.81935,-0.91039 0.95489,-0.1537 1.31783,3.15247 1.61473,6.61091 1.97046,9.97702 0.19646,2.88385 0.56021,5.78517 0.31785,8.6754 -0.0905,1.74685 -1.38349,3.08067 -2.78364,3.9686 -4.35928,2.82004 -9.21318,4.77209 -13.59169,7.56423 -3.88335,2.46544 -7.77204,5.1884 -10.47901,8.97447 -2.01496,2.71111 -2.26459,6.43366 -1.03158,9.52535 1.64989,4.28666 5.50218,7.70726 9.98405,8.74921 2.88229,0.4973 5.48299,-1.18557 7.90039,-2.49805 3.62414,-2.01171 6.63172,-5.04099 8.71596,-8.61579 2.27263,-3.72436 3.7737,-7.91405 5.38605,-11.87476 0.71293,-1.67065 1.344,-3.17828 2.12845,-4.82195 -1.15691,4.35893 -1.26075,9.16383 0.66993,13.32422 1.25355,2.86572 3.82458,5.29166 7.008,5.71394 3.86353,0.56119 7.60086,-1.29472 10.60137,-3.56745 2.46797,-1.81275 4.42686,-4.18512 6.64063,-6.27735 0.036,3.93117 0.27958,8.00492 2.00933,11.60614 0.77117,1.66828 2.18721,3.15629 4.07183,3.45248 2.99883,0.60555 6.13475,0.4293 9.1112,-0.22488 2.52043,-0.55351 4.49996,-2.32683 6.51271,-3.82788 1.14954,-0.91273 2.24419,-1.8911 3.35352,-2.85156 1.59171,2.19817 3.48607,4.226 5.86821,5.57527 5.87797,3.4833 13.54834,3.5151 19.53193,0.26233 1.5175,-0.72482 3.08048,-1.43746 4.75025,-1.68526 2.15838,-0.8813 3.8383,-2.60356 5.463,-4.22409 2.92918,-2.99571 6.10813,-5.81924 9.76161,-7.90286 -0.0193,3.35342 1.13604,6.61235 2.63281,9.57422 1.06917,1.88133 2.33801,3.82815 4.28245,4.89294 2.07075,0.98642 4.44711,0.28469 6.49906,-0.39483 4.23627,-1.61316 7.87443,-4.46079 11.17328,-7.51055 2.0292,-2.33799 3.52502,-5.07988 5.11023,-7.7252 3.24574,-5.68507 6.3546,-11.46814 8.91252,-17.49953 0.46759,-0.95387 0.62337,-2.04475 1.14632,-2.96241 1.65347,-2.00879 3.96256,-3.32979 6.13983,-4.69524 1.602,-0.97419 3.2391,-1.89176 4.90819,-2.74581 -2.226,5.86555 -4.33619,11.77808 -6.28914,17.74004 -1.19637,3.64588 -1.93483,7.4664 -1.80541,11.3162 0.12038,3.73381 0.14088,7.58288 1.44905,11.13169 0.88597,2.47201 2.96207,4.4271 5.46533,5.20569 1.63736,0.66771 3.519,0.69636 5.12642,-0.0788 3.18192,-1.4834 5.55527,-4.19456 7.83837,-6.77796 3.33754,-3.84698 6.18613,-8.07656 9.26811,-12.12282 -0.14615,3.96345 -0.55085,8.14435 1.07032,11.88281 0.96472,2.28834 3.25413,3.9097 5.74038,4.01978 2.99082,0.31513 5.62125,-1.56759 7.68887,-3.51265 4.48065,-4.31245 7.74932,-9.65914 11.14301,-14.81963 0.0427,4.56689 -0.36753,9.20995 0.63242,13.7062 0.51368,2.429 2.05548,4.75455 4.45537,5.63824 2.46307,0.90787 5.1728,1.00645 7.76067,0.71574 4.67512,-0.60047 8.55936,-3.57285 12.03796,-6.54146 0.96691,-0.83739 1.91431,-1.69764 2.85382,-2.5656 -1.05485,2.5619 -2.33309,5.29024 -1.87428,8.12918 0.27535,1.85442 2.05814,3.2451 3.91802,3.1322 1.85851,0.0868 3.57052,-1.08929 4.37227,-2.73012 1.35276,-2.65477 1.76607,-5.65174 2.67648,-8.46546 0.98655,-3.25199 1.90579,-6.57047 3.51154,-9.58231 0.15261,-0.48665 0.77901,-0.18333 1.14401,-0.38778 1.81748,-0.36222 3.05849,-1.84779 4.67659,-2.63305 2.08925,-1.14614 4.21179,-2.28794 6.48747,-3.01734 1.23401,0.58044 1.42507,2.08628 1.9336,3.20898 1.47551,4.35082 2.70779,8.80549 3.4061,13.35098 0.14912,1.46255 0.0999,2.99097 0.79702,4.33652 1.55748,3.32285 4.94726,5.9016 8.67062,6.06434 2.36071,0.0255 4.28262,-1.63138 5.92816,-3.13823 4.41617,-4.27496 7.65338,-9.56833 10.64957,-14.88795 1.06328,-1.79903 2.17117,-3.57413 3.38447,-5.27644 -0.30471,4.52011 -1.14997,9.00002 -1.2024,13.53588 -0.0846,2.7266 1.18024,5.3894 3.2024,7.18678 2.02645,1.70835 4.96429,1.90573 7.4375,1.22656 3.32667,-1.09563 5.72617,-3.83567 7.95826,-6.39549 3.99689,-4.74385 7.50913,-9.86536 11.13744,-14.88967 0.359,4.9583 0.43302,9.96638 1.42187,14.85352 0.51863,2.57808 1.81645,5.01443 3.86186,6.70022 1.93814,1.76431 4.48038,3.36648 7.21719,2.87085 3.00392,-0.54636 5.26404,-2.82257 7.34165,-4.89267 3.69898,-3.86957 6.84419,-8.27729 9.33163,-13.01607 0.82902,-1.76936 1.86085,-3.66692 1.58767,-5.68487 -0.36375,-1.77802 -2.00462,-3.42333 -3.92007,-3.14934 -2.29216,0.3352 -3.75262,2.4216 -4.83296,4.28344 -1.49003,3.0344 -3.40142,5.84099 -5.52642,8.46461 -0.26042,0.31386 -0.74626,0.92133 -1.11833,1.33861 -1.16475,1.32536 -2.35045,2.65844 -3.76839,3.71998 -1.63385,-1.22843 -2.45696,-3.22743 -2.61232,-5.22246 -0.39935,-4.06487 -0.29171,-8.15988 -0.2451,-12.23847 0.0182,-0.59997 0.0352,-1.33091 0.0688,-1.92717 0.1732,-4.65454 0.95072,-9.32155 1.95951,-13.79334 1.22464,-5.61823 2.82168,-11.15589 3.82716,-16.82051 0.32221,-1.92329 0.41537,-4.17858 -1.04688,-5.68555 -1.06763,-1.23636 -2.76819,-2.39875 -4.45312,-1.72265 -1.86987,0.75465 -2.45201,2.91578 -2.94105,4.68145 -0.66869,2.6809 -1.01573,5.44103 -1.94663,8.05509 -2.61673,7.82747 -6.382,15.21665 -10.43849,22.38455 -3.0147,5.18183 -6.28085,10.43221 -10.13999,15.13673 -1.30466,1.51166 -2.60653,3.10661 -4.33658,4.15038 -0.47068,-5.713 0.40656,-11.42662 1.26804,-17.06186 0.63254,-3.89482 1.4156,-7.96061 2.25147,-11.89564 0.97423,-4.76689 2.24464,-9.49796 3.21049,-14.30552 0.42571,-2.55042 1.06051,-5.19446 0.48289,-7.77018 -0.35554,-1.6301 -1.94366,-2.86598 -3.62304,-2.68945 -1.76813,-0.0261 -2.98348,1.48174 -3.70186,2.92688 -1.9684,3.89216 -2.78832,8.22444 -4.35118,12.27612 -0.38856,1.08461 -0.81815,2.2076 -1.21343,3.16668 -4.01405,9.89245 -9.80554,18.91026 -15.2957,28.02214 -1.90485,2.98146 -3.66812,6.10545 -6.09441,8.70429 -0.39579,0.59716 -0.7767,0.39805 -0.94564,-0.23343 -0.65786,-1.40483 -1.08812,-2.98839 -1.47574,-4.37363 -1.50586,-5.59715 -2.63858,-11.38816 -4.80284,-16.84695 -0.30459,-0.85111 -0.7858,-1.61584 -1.2403,-2.39015 1.59,-1.88844 3.68241,-3.28358 5.29882,-5.15473 4.1415,-4.55666 7.78216,-9.56273 11.00117,-14.80785 1.15818,-2.01392 2.47238,-4.04423 2.90186,-6.36072 0.24701,-2.11083 -1.27036,-4.53693 -3.52802,-4.63959 -2.3831,-0.1126 -4.24073,1.86922 -5.21093,3.85742 -0.63425,1.48283 -1.20578,3.00005 -2.08185,4.36714 -2.64321,4.38039 -5.71254,8.52019 -9.19779,12.26843 -2.60754,2.8246 -6.10419,4.58596 -9.49983,6.27472 -1.90664,0.89601 -3.84852,1.73985 -5.87288,2.33385 1.97531,-6.80154 3.3798,-13.75679 4.54054,-20.74003 0.29883,-2.16439 0.76254,-4.3393 0.64891,-6.53341 -0.34932,-2.16276 -2.71186,-3.66231 -4.81969,-3.07854 -2.28261,0.51088 -3.80619,2.65872 -4.2431,4.86089 -0.4855,1.76017 -0.4918,3.59337 -0.63419,5.37646 -0.74422,5.35104 -2.0794,10.62656 -3.41747,15.80795 -0.7138,2.76629 -1.4276,5.53258 -2.14141,8.29887 -4.8604,5.01383 -9.52615,10.2264 -14.64508,14.98241 -2.0073,1.73095 -4.04472,3.68954 -6.68123,4.37243 -1.10748,0.25737 -2.62683,0.27556 -3.18345,-0.93297 -1.0377,-2.21847 -0.81464,-4.76704 -0.6486,-7.14279 0.44875,-4.61488 1.59015,-9.25721 2.75993,-13.64822 2.06937,-7.65378 4.89792,-15.23615 6.80418,-23.0023 0.36838,-1.67236 0.94682,-3.36844 0.80147,-5.09691 -0.36655,-1.63733 -1.80106,-3.26913 -3.61378,-3.03742 -2.077,0.30169 -3.32309,2.24528 -4.38545,3.86183 -2.73152,4.4063 -4.60266,9.37915 -6.87205,13.94472 -3.66012,7.4887 -7.78807,14.90774 -12.36795,21.94466 -1.14297,1.7541 -2.33889,3.49988 -3.63435,5.26104 -0.76389,1.03703 -1.42629,1.88855 -2.26172,2.89299 -0.90894,1.06455 -1.83322,2.14401 -2.97621,2.96576 -0.23119,-2.85803 0.33377,-5.70788 0.63957,-8.54174 1.04262,-8.25868 3.82108,-16.17797 7.16206,-23.76369 1.44511,-3.42969 3.3676,-6.83273 3.51087,-10.63597 0.0953,-1.82955 -0.97478,-3.79246 -2.83594,-4.25 -1.77681,-0.56946 -3.81546,0.19134 -4.79512,1.7766 -1.36273,2.01052 -1.67296,4.4928 -2.71758,6.65683 -3.09332,7.04512 -7.07395,13.65895 -11.1891,20.14571 -3.22939,5.00839 -6.61023,9.92113 -10.35469,14.60855 -0.66122,0.8242 -1.35006,1.65585 -1.97406,2.37238 -1.58187,1.82839 -3.28455,3.56872 -5.19015,5.06102 -1.06519,-1.12302 -1.0894,-2.81285 -1.21259,-4.27236 -0.0907,-1.96163 0.13272,-4.12049 0.40399,-5.92686 0.78532,-5.28201 2.61832,-10.32384 4.57383,-15.26789 2.80931,-7.16062 5.69575,-14.3032 9.0618,-21.22336 1.00421,-1.88145 2.18103,-3.78497 2.25305,-5.98336 0.22442,-2.0388 -1.37011,-3.87207 -3.28516,-4.35742 -1.87853,-0.59607 -4.38311,-0.0991 -5.24414,1.85547 -0.20391,0.59415 -0.23796,1.23728 -0.76975,1.66276 -2.71563,2.94739 -5.94145,5.37202 -9.1595,7.73988 -2.31445,1.60132 -4.63385,3.31806 -7.24849,4.3708 -0.66868,-1.53004 -0.6867,-3.28804 -1.55859,-4.74805 -1.57183,-3.10945 -4.91093,-4.83402 -8.19991,-5.52341 -2.33681,-0.51521 -4.99038,-0.95658 -7.13603,0.40817 -3.54635,2.32279 -6.0623,5.83814 -8.49121,9.23951 -4.21245,5.99076 -7.94448,12.2978 -11.73165,18.55932 -1.98504,2.91506 -4.34968,5.65842 -7.28711,7.6465 -0.70719,0.66849 -0.6133,-0.0559 -0.5265,-0.64281 0.35739,-3.30419 0.68306,-6.63164 0.38943,-9.95572 -0.66264,-8.63149 -3.47164,-16.88978 -6.10292,-25.07673 -1.90117,-6.27542 -3.63281,-12.67823 -4.04362,-19.24926 -0.26328,-3.27968 0.51,-6.59278 2.10223,-9.46395 2.2393,-4.04764 5.79613,-7.53106 10.20307,-9.09982 2.12551,-0.74054 4.85077,-0.84409 6.50196,0.93945 1.03631,1.3432 2.03485,2.81924 3.60267,3.5982 1.73424,1.06915 4.35301,0.26095 4.95592,-1.74859 0.69643,-2.27434 -0.4491,-4.63085 -1.73668,-6.46551 -1.77195,-2.34469 -4.12292,-4.57576 -7.13246,-5.07355 -5.29752,-0.84706 -10.87454,0.47498 -15.26183,3.55446 -5.49434,3.78488 -9.66028,9.62177 -10.97035,16.21012 -1.39001,6.58216 -0.31901,13.37528 1.3209,19.80635 0.28698,1.21308 0.56578,2.42799 0.8312,3.64586 -2.66384,2.13466 -5.72166,3.7405 -8.21484,6.09571 -6.1903,5.62677 -10.96201,12.66817 -14.67603,20.12533 -2.73006,5.57095 -4.81509,11.50357 -5.68379,17.66268 -0.79707,2.57984 -2.82036,4.55714 -4.86052,6.22349 -2.24712,1.71186 -4.84106,3.29561 -7.73474,3.43576 -0.48548,-0.12676 -1.48308,0.2586 -1.63672,-0.2 0.0286,-6.01509 -0.25646,-12.10005 1.00811,-18.02354 0.73411,-3.69286 1.88837,-7.28649 3.16572,-10.82333 0.2145,-0.55793 0.53942,-1.4357 0.79627,-2.1163 2.01564,-5.46803 4.74595,-10.68445 6.18419,-16.35442 0.34271,-1.26318 0.43322,-2.77277 -0.58593,-3.76171 -1.72517,-1.6799 -4.2642,-2.00385 -6.55071,-2.27443 -3.695,-0.30165 -7.5298,-0.13969 -11.03328,1.17092 -5.07474,2.11079 -9.18018,5.97323 -12.74939,10.06026 -4.92872,5.74814 -8.88813,12.43278 -11.72717,19.37529 0.30375,-4.29031 0.003,-8.59504 -0.20499,-12.88299 -0.39891,-5.04711 -0.94131,-10.21968 -3.04501,-14.88459 -1.10873,-2.40987 -3.09459,-4.78672 -5.89062,-5.09375 -2.15482,-0.0994 -4.11568,1.03688 -5.97824,1.97917 -2.41719,1.35625 -4.74945,2.90847 -6.7659,4.81966 -0.2032,-2.12803 -1.7498,-4.05684 -3.74805,-4.7793 -1.88528,-0.64192 -3.78334,0.57226 -4.90077,2.03118 -2.64688,3.39616 -4.27847,7.42857 -6.25468,11.22201 -2.05238,4.14177 -4.62928,8.06405 -7.99649,11.25951 -3.09617,2.96199 -6.39022,5.72133 -9.81024,8.30136 -0.47321,0.52613 -0.89759,0.52526 -1.18977,-0.14541 -2.08781,-2.74451 -3.64823,-5.90602 -6.11368,-8.35029 -0.65654,-0.4801 -1.49277,-0.61774 -2.12302,-1.16234 -0.70206,-0.46631 -1.35976,-0.99474 -2.02932,-1.50563 1.74362,-2.83465 3.29037,-5.89563 3.65343,-9.24985 0.6027,-4.33602 -0.84631,-9.09885 -4.36074,-11.86089 -2.56825,-2.06823 -6.00615,-2.99775 -9.26925,-2.66075 -3.00491,0.65017 -5.41203,2.77196 -7.55325,4.86016 -3.00755,2.99671 -5.36256,6.58404 -7.21417,10.39168 -2.71005,5.10962 -5.27951,10.29584 -8.09803,15.34646 -2.26105,3.94061 -4.79,7.72813 -7.5701,11.32163 -0.64778,0.82004 -1.45519,1.84783 -2.19959,2.72182 -3.6902,4.32222 -7.72283,8.49641 -12.64096,11.42271 -1.44848,0.78231 -2.99532,1.62789 -4.66726,1.69922 -0.69351,-1.48132 -0.60253,-3.19269 -0.69924,-4.79446 -0.058,-1.888 -0.0109,-3.91477 0.22341,-5.67482 0.96237,-7.46163 3.02093,-14.73371 5.30851,-21.88437 1.96647,-6.15323 4.4866,-12.10785 6.54439,-18.22928 2.35051,-6.58075 4.27642,-13.34097 7.30066,-19.65926 2.80577,-4.30206 4.68235,-9.13073 6.29321,-13.98582 0.65937,-2.25376 1.54816,-4.56479 2.40992,-6.65871 1.74525,-4.45037 4.00214,-8.68736 5.57814,-13.204364 0.48322,-1.614447 1.22164,-3.48311 0.33983,-5.088608 -1.09194,-1.573927 -3.38934,-2.114679 -5.03321,-1.091797 -2.27957,1.38107 -3.53388,3.873839 -4.72803,6.160319 -0.51541,1.040737 -0.98625,2.103029 -1.49267,3.14828 -0.1874,0.36014 -0.53862,1.0731 -0.78872,1.56829 -1.19778,2.36647 -2.56042,4.89952 -3.87271,7.30644 -3.38417,6.17537 -6.9981,12.22259 -10.27851,18.45544 -6.01069,11.1375 -11.72815,22.43046 -17.45607,33.71517 -4.31996,8.32516 -8.66209,16.64788 -13.44348,24.71977 -1.39195,2.32998 -3.12944,4.6832 -4.79332,6.65481 -2.77802,3.19776 -5.91707,6.27817 -9.83985,8.01758 -1.35262,0.51387 -3.09134,1.08021 -4.38086,0.13671 -1.86215,-1.7393 -2.80264,-4.2478 -3.37658,-6.67827 -0.76956,-3.2706 0.10172,-6.60907 0.68908,-9.83344 2.04158,-9.38714 4.85086,-18.60303 8.22414,-27.59501 2.06991,-5.4389 4.68116,-10.66025 6.65086,-16.13742 1.14245,-2.87581 2.60481,-5.62438 3.91317,-8.43087 3.65759,-7.59928 7.74434,-15.08332 10.03327,-23.24614 1.09564,-4.06827 1.61789,-8.61827 -0.24136,-12.549549 -1.6425,-3.430603 -4.73257,-5.946886 -8.03125,-7.707031 -1.7066,-0.863092 -3.6188,-1.328415 -5.53515,-1.238282 z m 363.17773,41.195312 c -1.908,0.0826 -3.80033,0.38299 -5.71094,0.45117 -1.15668,0.0653 -2.5156,0.14471 -3.72513,0.19955 -11.4602,0.59893 -22.90473,0.75185 -34.36982,1.2887 -2.96976,0.21271 -6.00338,0.21917 -8.88552,1.04105 -1.40831,0.38455 -2.51557,1.72222 -2.37695,3.2168 0.1729,2.75633 2.74501,4.80711 5.36328,5.13672 1.9726,0.33856 3.91146,-0.32852 5.87979,-0.36531 10.17509,-0.69491 20.55425,-0.94708 30.8431,-1.31725 5.29167,-0.23961 10.60861,-0.35348 15.85601,-1.13001 1.71639,-0.32445 3.82806,-0.67416 4.70235,-2.39056 0.73591,-1.4619 -0.19589,-3.10252 -1.36706,-4.02001 -1.66247,-1.59178 -3.951,-2.20219 -6.20911,-2.11085 z m -518.98047,24.20899 c 1.02132,0.17148 2.09717,0.57254 2.76563,1.39648 0.0504,1.37467 0.28822,2.73764 0.5957,4.07617 -2.12281,-0.56477 -3.82759,-2.38664 -4.50927,-4.44252 -0.1232,-0.38564 -0.23643,-1.0751 0.38036,-1.04185 0.25521,-0.0325 0.51264,-0.014 0.76758,0.0117 z m 342.81446,1.56836 c 0.3873,0.12371 1.30661,-0.0144 1.30179,0.48119 -0.75748,3.40884 -2.2667,6.59312 -3.66882,9.77389 -2.49361,5.40407 -5.25838,10.71579 -8.30961,15.87753 -2.38214,3.91181 -4.76519,7.96407 -8.33464,10.92846 -1.2363,0.99257 -2.46135,2.15825 -4.01237,2.61578 -0.50981,0.20553 -0.95675,0.094 -1.09549,-0.4835 -0.8293,-1.88212 -1.96481,-3.93254 -1.33985,-6.04882 1.73694,-5.86885 4.27913,-11.49111 7.35231,-16.77907 3.01881,-5.04117 6.53112,-9.92838 11.18524,-13.58818 1.99044,-1.4832 4.33345,-2.95465 6.92144,-2.77728 z m 45.23632,1.17187 c 1.62747,1.50436 2.42829,3.66173 3.2793,5.6582 2.36564,6.36244 3.94809,13.23422 3.07617,20.04688 -0.64443,5.19492 -3.10121,10.18229 -7.04848,13.65701 -2.94539,2.63214 -6.51071,4.50881 -10.21543,5.82778 -1.77438,0.65682 -3.835,0.67447 -5.48607,-0.3333 -2.10357,-1.02797 -3.78857,-2.83164 -4.6268,-5.0223 -1.01919,-2.55844 -1.33456,-5.71737 0.22834,-8.12625 1.13128,-1.61058 1.53659,-3.59565 2.10924,-5.44893 0.81649,-3.82757 2.75054,-7.27923 4.6777,-10.64168 0.38997,-0.64696 0.74519,-1.26815 1.09567,-1.81263 2.45473,-3.88617 5.03509,-7.74904 8.26534,-11.04119 1.29583,-1.24985 2.85851,-2.29432 4.6001,-2.79093 z m 49.67774,3.91016 c 0.0193,0.95599 0.0424,1.91496 -0.0312,2.86914 -1.9699,0.22471 -4.09936,-0.32891 -5.46289,-1.82813 1.28664,-0.25373 2.6591,-0.10474 3.88127,-0.68072 0.58564,-0.22918 1.13457,-0.57172 1.56209,-1.03607 0.0169,0.22526 0.0338,0.45052 0.0508,0.67578 z m -446.43164,0.39453 c 1.84283,1.40398 3.32584,3.24787 5.35501,4.41389 1.46489,0.97367 3.10982,1.64437 4.83778,1.96818 0.8291,-0.0147 0.67972,0.60576 0.5266,1.20278 -1.26068,6.46977 -2.96379,12.84823 -4.83404,19.16623 -0.73816,2.29964 -1.33117,4.72759 -2.8831,6.64479 -2.2424,3.02914 -4.77698,5.97691 -8.03936,7.93811 -0.65812,0.31863 -1.4426,0.7854 -2.17383,0.59375 -1.20125,-2.59957 -1.6399,-5.47674 -2.07431,-8.28626 -0.4687,-3.15401 -0.5,-6.36884 0.0177,-9.51904 0.57384,-4.22956 1.45802,-8.44029 3.07484,-12.40475 1.60342,-4.00736 3.35846,-8.00128 5.7875,-11.58509 0.14418,-0.18833 0.18619,-0.38469 0.40524,-0.13259 z m 436.13086,8.66797 c 2.17803,1.39567 4.61514,2.57455 7.21906,2.82428 0.351,0.10555 1.40163,-0.21054 1.08288,0.36729 -2.00132,5.31234 -4.4844,10.43475 -7.13313,15.45169 -1.11578,2.07157 -2.27416,4.17727 -4.07116,5.74736 -2.76933,2.62468 -5.94492,4.85619 -9.42383,6.43164 -0.96283,-0.26365 -1.08527,-1.49966 -1.24915,-2.33106 -0.41999,-3.76422 0.53472,-7.5216 1.60853,-11.10253 1.73501,-5.47159 4.40719,-10.61281 7.69315,-15.30997 0.76049,-1.14407 1.52097,-2.28815 2.28146,-3.43222 0.66406,0.45117 1.32812,0.90234 1.99219,1.35352 z m -128.64649,19.13281 c -1.26399,3.77064 -3.25036,7.28791 -5.63867,10.45898 -1.51623,1.93297 -3.43203,3.58218 -5.60156,4.73829 -0.85741,0.47116 -2.10399,0.68416 -2.74805,-0.24415 -0.76162,-1.03219 -1.51153,-2.2627 -1.4707,-3.58593 0.43646,-1.58756 1.81686,-2.67435 2.93027,-3.80429 2.80448,-2.59644 6.14404,-4.53671 9.4951,-6.33687 1.01285,-0.52499 2.03841,-1.03043 3.09807,-1.45455 -0.0215,0.0762 -0.043,0.15235 -0.0645,0.22852 z m -50.4414,6.08203 c -0.94662,2.4786 -2.07006,4.93187 -3.63437,7.08613 -2.01114,2.62722 -5.28868,3.68908 -8.23746,4.88622 -1.63975,0.60839 -3.2869,1.21852 -4.99146,1.6214 -1.35308,-0.6935 -2.53494,-1.71245 -3.52343,-2.86133 1.66354,-1.90627 3.78196,-3.43114 6.0789,-4.48285 3.36333,-0.96396 6.53407,-2.49572 9.62646,-4.11558 1.55222,-0.81842 3.08103,-1.70282 4.73409,-2.30782 l -0.029,0.0957 z" />
  </g>
</svg>
