<?xml version="1.0" encoding="UTF-8" standalone="no"?>
<!-- Created with Inkscape (http://www.inkscape.org/) -->

<svg
   version="1.1"
   id="svg1"
   width="835.00586"
   height="898.89154"
   viewBox="0 0 835.00586 898.89154"
   xmlns="http://www.w3.org/2000/svg"
   xmlns:svg="http://www.w3.org/2000/svg">
  <defs
     id="defs1" />
  <g
     id="g1"
     transform="translate(-213.70117,-127.39751)">
    <path
       id="path1"
       style="fill:#070707"
       d="m 583.10938,127.44727 c -6.89017,0.17719 -13.7681,1.34154 -20.25975,3.68441 -5.11163,1.85599 -10.17731,3.92543 -14.89952,6.64106 -5.81647,3.37508 -10.78883,7.9765 -15.60843,12.61661 -10.82954,10.78874 -19.0385,24.36824 -22.80459,39.23044 -1.43444,5.99107 -1.24206,12.19972 -1.32171,18.31534 0.007,8.67591 -0.0329,17.5088 2.33144,25.93115 1.64105,6.01746 4.54495,11.60066 7.35185,17.10808 0.66953,1.39163 1.31432,2.79974 1.81031,4.26392 -101.99735,65.72105 -204.00187,131.43095 -306.00781,197.13867 0,191.30404 0,382.60808 0,573.91215 278.33529,0 556.67057,0 835.00583,0 -0.1687,-194.84379 -0.339,-389.68754 -0.5058,-584.53129 -70.61819,-45.48415 -141.26739,-90.93249 -211.84887,-136.46395 -25.24749,-16.32203 -50.53863,-32.57545 -75.70759,-49.01842 -0.36714,-0.36919 -1.36171,-0.51653 -0.95096,-1.17943 1.1845,-3.41771 3.17352,-6.47797 4.67145,-9.75812 3.07833,-6.34704 5.19059,-13.16744 6.08945,-20.16981 0.87827,-6.75094 1.10928,-13.57496 1.0348,-20.37765 -0.094,-7.31214 -1.11087,-14.65279 -3.53685,-21.57198 -2.68466,-7.82315 -6.32253,-15.39519 -11.45683,-21.91938 -4.19609,-5.33296 -8.95224,-10.20911 -13.95026,-14.79025 -5.64692,-5.1401 -12.07898,-9.42585 -19.07257,-12.50624 -4.31709,-1.89702 -8.74642,-3.565 -13.28304,-4.85663 -5.35967,-1.4219 -10.95798,-1.24446 -16.45477,-1.30806 -5.78988,0.0438 -11.59256,-0.10144 -17.36978,0.3502 -4.84755,0.3466 -9.39309,2.21365 -13.83789,4.04257 -6.99475,3.03564 -13.76088,6.7014 -19.84251,11.32187 -0.99406,0.76419 -1.96859,1.55359 -2.95451,2.32833 -3.79602,-2.86982 -7.60514,-5.75115 -11.78201,-8.05459 -5.6397,-3.17461 -11.59333,-5.77952 -17.68969,-7.94008 -6.2349,-2.09042 -12.88609,-2.14972 -19.38781,-2.42599 -2.58635,-0.0746 -5.17492,-0.0872 -7.76158,-0.0129 z m 107.9707,30.94726 c 11.45171,-0.16199 22.87249,4.02336 31.55766,11.47804 5.97692,5.0643 10.66375,11.58728 13.75874,18.77196 0.13245,0.31886 0.45211,1.06386 0.64169,1.55705 1.61238,4.01095 2.75157,8.23972 2.96431,12.57282 0.25821,5.28997 0.29865,10.61095 -0.2438,15.88503 -0.54053,5.45861 -2.37084,10.70308 -4.8243,15.58239 -0.99728,2.14471 -2.17793,4.25216 -2.71954,6.56873 0.0268,0.91022 -0.8257,1.52036 -1.24945,2.26632 -3.89343,5.13114 -8.10089,10.02439 -12.50338,14.7246 -1.09484,1.07079 -2.08321,2.32453 -3.46003,3.02703 -2.63167,2.43548 -4.95929,5.17938 -7.40019,7.80247 -22.5648,24.93492 -44.2753,50.62876 -66.80262,75.5979 -0.39244,0.33634 -0.78541,1.04311 -1.18374,1.13937 -9.66053,-10.58923 -19.0889,-21.38763 -28.56031,-32.14583 -13.87398,-15.81745 -27.675,-31.70271 -41.83505,-47.26493 -1.75867,-1.87628 -3.42193,-3.85677 -5.34507,-5.56881 -1.31851,-0.68427 -2.21726,-1.94384 -3.27643,-2.95535 -3.92238,-4.20529 -7.61074,-8.6254 -11.23988,-13.08406 -0.70646,-0.97094 -1.60188,-1.88057 -2.12406,-2.94338 0.01,-1.66233 -0.91391,-3.14835 -1.55725,-4.63174 -5.13975,-9.82475 -7.71099,-21.08935 -6.66746,-32.17072 0.78656,-8.78946 3.86007,-17.37104 8.90219,-24.61904 0.2769,-0.3991 0.77099,-1.09103 1.14609,-1.58914 1.32764,-1.76559 2.76884,-3.44472 4.30508,-5.03196 0.35261,-0.35057 0.9537,-0.96447 1.41709,-1.39848 6.42507,-6.2192 14.53319,-10.80109 23.34488,-12.52901 7.02061,-1.42417 14.31137,-1.15085 21.32048,0.19523 3.9129,0.789 7.66486,2.26208 11.15779,4.18148 0.3392,0.1878 1.02496,0.569 1.48897,0.84529 3.91718,2.28375 7.6966,5.05611 11.23954,7.72502 3.55094,2.64621 6.91039,5.56517 10.65855,7.93573 2.26907,1.45865 5.09231,2.39612 7.76919,1.59162 3.44587,-1.04481 6.22424,-3.46339 9.08398,-5.54688 5.61161,-4.30756 11.33459,-8.50776 17.45117,-12.07617 1.01679,-0.54883 2.31015,-1.15516 3.2051,-1.56109 6.14979,-2.73926 12.84291,-4.25907 19.58006,-4.33149 z M 539.3418,278.82617 c 8.00195,8.73468 15.81134,17.66392 23.64787,26.52922 23.80943,27.01114 47.32355,54.28311 71.33549,81.11491 1.4153,1.49226 2.69705,3.13164 4.24914,4.48207 0.48164,0.17619 0.96709,1.16828 1.44525,0.59845 1.81815,-1.25887 3.12806,-3.07987 4.65025,-4.65662 15.61692,-17.4208 30.99726,-35.05048 46.40444,-52.65694 16.15746,-18.47407 32.28014,-36.97908 48.54099,-55.36226 25.80043,16.49868 51.53566,33.10069 77.29791,49.65982 63.54577,40.89645 127.0609,81.84086 190.62386,122.71031 1.1505,0.73795 2.3009,1.4759 3.4513,2.21385 -8.2579,0.32292 -16.64096,0.36201 -24.96351,0.45311 -37.28451,0.27198 -74.57034,0.27316 -111.85564,0.31848 -121.8466,0.0755 -243.69324,0.0464 -365.53985,0.0441 -66.07541,-0.0399 -132.15115,0.022 -198.22617,-0.24335 -13.30602,-0.094 -26.61417,-0.11267 -39.9168,-0.45712 -0.94572,-0.0345 -2.0595,-0.0653 -3.07031,-0.11524 52.35401,-33.63846 104.65067,-67.3666 156.98235,-101.04 35.71869,-22.97244 71.42709,-45.96193 107.24848,-68.77319 2.55817,-1.61316 5.10317,-3.24729 7.67346,-4.8411 z m 91.85937,207.46289 c 129.16667,0 258.33334,0 387.50003,0 0,170 0,340 0,510 -258.33336,0 -516.66669,0 -775.00003,0 0,-170 0,-340 0,-510 129.16667,0 258.33334,0 387.5,0 z m 7.9375,14.29883 c -2.48779,0.1928 -4.525,1.85641 -6.4073,3.34487 -4.40819,3.63259 -8.64127,7.6265 -11.63578,12.54029 -4.66326,7.53566 -8.08357,15.74522 -12.38288,23.48217 -3.83789,7.0429 -7.87335,13.89051 -12.40902,20.52491 -8.88361,12.84685 -17.53916,25.84729 -26.20533,38.84098 -10.01601,14.96664 -20.20849,29.85407 -28.96138,45.61051 -2.48924,4.45835 -4.66819,9.07736 -6.8655,13.68361 -5.42307,11.18922 -11.1883,22.38012 -17.472,33.17709 -6.25691,10.81445 -13.17054,21.44127 -20.35464,31.75328 -6.07063,8.82723 -12.00932,17.75066 -17.67199,26.84638 -6.3781,10.41202 -11.69384,21.42089 -17.14475,32.33231 -5.71882,11.54973 -11.30872,23.16277 -17.00891,34.72184 -2.74885,5.42042 -5.58951,10.63306 -8.76703,15.84528 -2.26632,3.83952 -4.99851,7.37034 -7.84088,10.79579 -1.10285,1.33404 -2.26653,2.73036 -3.41469,4.07166 -9.75162,11.37748 -19.95059,22.37014 -30.48586,33.02493 -5.47521,5.47288 -11.39064,10.85356 -18.68488,13.75237 -7.23882,2.91047 -15.17268,3.24007 -22.8801,3.19161 -2.83824,-0.0253 -5.5935,-0.12663 -8.4597,-0.26463 -4.08824,-0.19979 -8.27467,-0.45046 -12.33326,-0.78722 -2.58324,-0.19265 -5.16116,-0.47308 -7.6981,-1.00951 -0.44995,-4.97148 -0.99669,-9.94093 -1.02643,-14.9386 -0.18955,-9.92629 0.004,-19.8797 0.36036,-29.76079 0.2762,-6.02913 0.47011,-12.07713 1.25786,-18.06624 0.58212,-3.7856 1.9397,-7.56831 3.41602,-10.97656 1.86958,-4.17296 4.02366,-8.21281 5.8947,-12.38579 3.29996,-7.05408 6.33225,-14.22648 9.41614,-21.37597 1.36429,-2.93681 2.60623,-6.17277 5.31402,-8.1564 5.60313,-4.27032 11.98,-7.40143 18.46836,-10.08092 2.4816,-0.92553 4.97715,-1.99773 7.63567,-2.26045 0.75122,-0.11449 1.06448,0.82717 1.47785,1.27357 2.13232,3.34441 3.78429,6.87942 5.6292,10.36877 2.74421,5.44446 5.42207,10.96586 7.23868,16.80001 0.65095,2.45498 1.08312,4.97135 1.95448,7.36653 1.92085,5.68392 4.73133,11.1184 8.66161,15.67963 0.63491,0.78767 1.26982,1.57535 1.90499,2.36282 6.37911,-1.49984 12.83583,-2.70537 19.12022,-4.58086 1.32545,-0.47926 2.86825,-0.7278 3.87392,-1.78438 1.05217,-1.41765 0.75675,-3.31497 0.70876,-4.97154 -0.60138,-6.75958 -2.03807,-13.41181 -3.53173,-20.02113 -1.921,-8.36329 -4.47259,-16.56131 -6.79421,-24.81788 -7.97279,-7.93406 -15.85768,-15.95766 -23.91016,-23.81054 -3.51075,-3.3089 -7.07468,-6.83317 -11.67839,-8.56366 -3.15071,-1.13715 -6.31948,-2.40346 -9.67513,-2.76056 -3.18673,-0.24936 -6.3647,0.33612 -9.49267,0.87673 -6.27953,1.19374 -11.95645,4.30426 -17.38037,7.55686 -11.78728,7.07042 -22.37956,16.14518 -31.05032,26.8186 -10.09631,12.39397 -17.71865,26.66613 -23.38395,41.57503 -4.97542,13.19637 -8.56716,26.94516 -10.33091,40.94643 -1.03537,8.7087 -1.47893,17.59612 7.8e-4,26.28119 0.82105,5.11778 2.94935,9.88521 4.96227,14.62015 3.49023,7.89197 7.37673,15.62527 11.88561,22.98748 1.83646,3.07121 3.99079,5.94008 6.39902,8.58578 3.05759,3.55408 6.63596,6.7752 10.9536,8.70822 5.44659,2.4743 11.33706,3.71595 17.12385,5.11476 5.72994,1.32662 11.4625,2.64613 17.19395,3.96783 14.83682,-3.98704 29.66684,-8.00347 44.54297,-11.83984 4.02062,-1.09882 7.07848,-4.10142 10.0408,-6.86322 6.14864,-5.92313 12.08326,-12.06383 18.07068,-18.14873 16.99453,-17.4605 33.25597,-35.77831 46.86111,-56.04212 8.85783,-13.10056 16.55253,-26.95306 23.59843,-41.09714 5.37378,-10.70846 11.38012,-21.09103 17.86045,-31.16636 8.90203,-13.90781 18.37454,-27.40166 27.36891,-41.26037 8.29985,-12.66269 16.18561,-25.60682 23.30217,-38.97468 7.34167,-13.87051 14.81389,-27.67507 22.64958,-41.27374 14.20005,-25.08741 28.33805,-50.215 42.39779,-75.38313 1.01121,-1.81457 2.0173,-3.63204 3.03172,-5.44481 0.25581,25.61127 -0.27798,51.22997 0.42961,76.83601 0.29418,8.62545 0.5695,17.27756 1.78719,25.83196 0.32818,2.39292 0.90544,4.73993 1.54819,7.06351 0.80333,4.67332 0.90437,9.43246 1.10025,14.16067 0.22589,7.14486 0.21753,14.29637 0.0215,21.44184 -0.0457,1.2145 -0.0907,2.76147 -0.1491,3.96784 -0.15757,4.50514 -0.61673,8.9896 -1.06977,13.47169 -0.61785,5.88272 -0.34761,11.80998 0.20002,17.68616 1.33368,14.60364 3.25014,29.15135 4.40362,43.77274 0.31196,4.0315 0.55121,8.22002 0.69705,12.31938 0.57964,16.20959 -0.14128,32.59172 0.89865,48.84469 0.35846,5.05497 1.00244,10.12396 2.52148,14.9746 0.91809,4.94403 1.31118,9.96871 1.77749,14.97105 1.15374,14.51987 2.45895,29.03667 4.4513,43.4683 0.4184,2.53734 0.65606,5.13558 1.47239,7.58409 0.35453,1.18863 1.66159,1.4562 2.55078,2.11719 2.30611,1.51542 4.44894,3.4414 7.20515,4.09539 2.54151,0.65918 5.22619,0.65135 7.81633,0.32258 2.1542,-0.28667 3.85556,-1.80988 5.05813,-3.52964 2.1437,-2.86403 5.53326,-4.45656 8.84066,-5.57393 2.73384,-0.98591 5.65763,-1.15368 8.45082,-1.89448 1.55717,-0.50036 3.34482,-0.9081 4.40235,-2.25781 1.22205,-2.35948 1.82242,-4.98137 2.64453,-7.4961 3.05716,-10.29639 5.46846,-20.76934 8.43657,-31.09099 3.51611,-12.38524 7.17559,-24.74163 11.51265,-36.86799 1.26213,-3.40204 2.72216,-6.73584 3.67286,-10.24619 1.06031,-3.46627 1.79541,-7.01673 2.60831,-10.54493 1.95519,-7.5739 5.43409,-14.61919 8.73442,-21.67163 6.05143,-13.52087 10.66106,-27.6206 15.20876,-41.70027 4.4169,-13.45238 8.73458,-26.97878 14.56643,-39.90293 4.30546,-9.58811 8.90852,-19.05615 12.57387,-28.91684 3.81626,-9.89128 7.10422,-19.98569 11.26794,-29.74194 2.17295,-5.20797 4.49981,-10.35466 7.12356,-15.35172 1.80831,-3.76423 3.63874,-7.55362 4.82002,-11.57003 0.46408,-2.9463 2.16553,-5.51781 4.20508,-7.625 2.66014,-3.41802 4.62317,-7.30978 6.58688,-11.15227 2.3402,-4.76655 4.37871,-9.68587 7.02561,-14.29865 4.75341,-8.58829 11.012,-16.21469 17.45196,-23.57838 9.40945,-10.71318 19.54615,-21.11504 30.99264,-29.77652 6.95421,-5.17427 14.44997,-9.88274 22.8047,-12.40909 1.1394,-0.32577 2.08791,-0.57894 3.26847,-0.81385 1.0668,-0.22003 2.37879,-0.41008 3.31505,-0.49468 1.46854,-0.15165 3.05241,-0.11701 4.40191,-0.0388 4.15241,0.24284 8.48912,0.88876 12.44184,1.61501 0.75783,0.14997 1.72542,0.34066 2.35159,0.46476 3.40517,0.77315 6.87896,1.46339 10.07257,2.91826 1.89256,1.15341 3.42784,2.80034 5.05088,4.29278 5.00578,4.90467 9.79489,10.04662 14.17565,15.51973 2.47752,2.94822 3.99596,6.53991 5.33007,10.11341 1.42995,3.94082 2.44335,8.02089 3.24385,12.13247 0.10354,0.55209 0.26339,1.44321 0.38852,2.1253 2.2235,13.29278 2.50401,26.8233 2.22685,40.27049 -0.22139,10.3203 -0.94756,20.63317 -1.7267,30.97139 -0.40085,4.4211 -0.58521,8.90266 -1.68842,13.22081 -1.56419,5.25364 -4.9149,9.71519 -8.27056,13.95693 -2.16645,2.61589 -4.4879,5.11536 -6.99878,7.40377 -2.84951,2.57426 -6.72304,3.35065 -10.27741,4.46764 -3.51718,1.04394 -7.13368,1.73378 -10.78436,2.09148 -0.42534,0.0411 -1.26639,0.12517 -1.7306,0.16061 -8.23336,0.64223 -16.52801,0.78658 -24.81625,1.14175 -1.54363,0.0581 -3.08726,0.11613 -4.63089,0.1742 -3.27025,-3.19067 -6.53979,-6.38206 -9.80859,-9.57422 0.49653,-6.44762 0.60842,-12.96564 1.95929,-19.31148 1.68507,-5.03843 5.39612,-9.10013 9.3933,-12.46497 6.27527,-5.234 13.51021,-9.11295 20.65159,-13.00799 7.60867,-4.30281 15.14737,-8.75631 22.34373,-13.72428 1.19899,-0.90426 2.79035,-1.92595 2.75706,-3.61341 -0.0424,-1.40496 -1.42928,-2.28229 -2.72297,-2.35668 -0.40171,-0.14356 -1.21911,0.10126 -1.1619,-0.51293 -0.19596,-2.78664 0.20956,-5.7415 -1.08985,-8.33292 -1.44963,-2.94385 -3.712,-5.37686 -5.76707,-7.90193 -1.90614,-2.14837 -3.84429,-4.34998 -6.26748,-5.92966 -1.36025,-0.94143 -3.0452,-0.39126 -4.55488,-0.28212 -6.26498,0.80503 -12.59475,1.52284 -18.62676,3.48915 -8.4149,2.63115 -16.11562,7.4217 -22.25871,13.73903 -4.66836,4.66373 -8.27849,10.21984 -12.23381,15.46772 -3.44551,4.79832 -7.06765,9.49484 -10.04802,14.6054 -1.63783,2.76867 -2.64764,5.88161 -2.9702,9.08116 -1.49473,11.89316 -2.03415,24.1052 0.54678,35.89166 1.72115,7.92261 5.06918,15.47038 9.6569,22.14599 3.26973,4.72562 7.68003,8.70724 12.90934,11.14354 4.6432,2.28128 9.64558,3.77366 14.75601,4.54716 5.97697,0.90772 12.00773,1.44087 18.04015,1.80407 8.32067,0.46836 16.73525,-0.22133 24.78337,-2.43968 10.36318,-2.81409 20.13267,-7.38636 29.76951,-12.04674 8.80424,-4.34466 17.67028,-8.92311 25.00767,-15.55063 6.39054,-5.74078 11.10655,-13.05514 15.068,-20.61155 4.04985,-7.70917 7.50293,-15.70874 11.16833,-23.6033 0.0101,-13.99349 0.0211,-27.98698 0.0293,-41.98047 -2.12626,-6.55092 -4.49836,-13.03287 -6.12251,-19.73475 -1.24208,-4.80682 -2.24284,-9.67714 -3.0097,-14.55557 -0.69445,-4.17132 -1.79669,-8.32177 -3.86104,-12.04048 -1.9516,-3.60828 -4.14079,-7.08371 -6.04118,-10.72151 -3.40641,-6.25354 -6.53976,-12.64887 -9.66785,-19.04419 -1.83975,-3.758 -4.06143,-7.43016 -7.288,-10.16555 -4.16317,-3.58789 -8.87795,-6.4531 -13.40834,-9.54163 -12.65336,-8.45689 -26.07814,-16.05162 -40.68334,-20.56344 -4.79863,-1.5152 -9.72295,-2.57033 -14.60163,-3.78717 -6.15514,2.21525 -12.36278,4.32303 -18.28884,7.11442 -7.35935,3.42629 -14.58943,7.23631 -21.16966,12.01578 -5.09137,3.9213 -9.76829,8.34656 -14.44991,12.73995 -9.43685,9.00125 -18.63504,18.26757 -27.30839,28.01071 -12.98065,14.8107 -24.59659,30.78109 -35.24312,47.33804 -5.00421,7.73084 -9.61585,15.70282 -14.30819,23.62356 -8.66598,14.65374 -17.79934,29.03765 -25.93948,43.99624 -3.12907,5.91116 -5.69125,12.10023 -8.31758,18.24492 -5.77925,13.86499 -11.26105,27.86092 -16.20124,42.04829 -2.24631,6.59209 -4.29189,13.25111 -6.58668,19.82726 -3.15797,9.19292 -6.84201,18.20008 -9.79811,27.46294 -3.56722,10.89589 -5.9442,22.1254 -8.9777,33.17204 -1.499,5.55335 -2.99678,11.04339 -4.76071,16.49569 -1.64067,-6.39282 -2.76352,-12.81862 -3.88228,-19.30852 -2.02667,-12.24358 -3.74849,-24.52633 -4.91945,-36.86092 -0.58298,-5.88588 -0.78353,-11.93554 -1.40934,-17.87436 -0.48634,-5.48183 -1.27234,-10.92889 -2.03188,-16.37768 -1.84513,-14.40188 -2.68734,-28.8122 -3.57267,-43.31052 -0.77382,-14.1102 -1.58632,-28.21894 -2.70137,-42.30666 -0.50929,-6.94154 -1.2048,-13.86665 -1.83606,-20.79758 -0.8411,-10.47143 -1.38147,-20.8691 -1.76626,-31.36495 -0.29238,-8.21759 -0.39445,-16.5591 -0.7215,-24.83495 -0.30828,-7.62204 -0.54605,-15.3396 -1.29591,-22.88183 -0.82474,-9.54062 -1.45134,-19.03145 -2.08203,-28.57422 -0.53423,-6.48659 -1.00897,-13.05964 -2.93668,-19.31277 -1.23263,-4.04467 -3.58151,-7.79065 -6.96098,-10.37726 -1.8798,-1.42009 -3.82012,-2.79742 -5.92851,-3.8588 -0.77923,-0.35365 -1.62268,-0.59062 -2.48438,-0.55273 z" />
  </g>
  <path
     style="fill:none;stroke:none;stroke-width:1.64896;stroke-opacity:1"
     d="m 475.13566,31.231772 c -18.5427,-0.420918 -31.2378,14.954865 -46.84766,22.068057 -10.84435,1.42393 -17.77939,-9.765974 -26.69892,-14.162106 -18.29583,-12.33423 -45.58136,-10.718687 -60.8328,5.896794 -9.87392,9.687189 -16.72455,23.075566 -14.88083,37.212961 -1.20724,16.044313 5.37782,31.583852 16.69033,42.826272 27.12834,28.54107 51.61619,59.58258 79.5913,87.28433 5.77317,5.60555 11.52864,-3.95866 15.39893,-7.24292 25.50077,-28.3263 50.66339,-56.96987 76.13477,-85.29808 9.45913,-10.92508 13.52217,-25.366937 12.049,-39.668597 2.3081,-27.132115 -23.9844,-51.081642 -50.60412,-48.916711 z"
     id="path9" />
  <path
     id="path10"
     style="fill:#710627;fill-opacity:1;stroke:none;stroke-width:1.64896;stroke-opacity:1"
     d="m 373.08203,27.060547 c -11.76268,0.250844 -23.60592,4.413412 -32.36107,12.390432 -4.82548,4.528436 -9.29733,9.522711 -12.61007,15.281634 -4.62229,7.857668 -7.18605,17.076216 -6.39205,26.219126 0.25366,1.993222 -0.0742,3.994861 0.0241,5.997028 0.22639,14.045163 6.0105,27.770013 15.37438,38.168623 3.11822,3.3995 6.36207,6.68262 9.4593,10.10262 23.94539,25.93071 46.20106,53.41662 71.17187,78.396 1.83067,1.90827 3.88697,3.91359 6.62174,4.31409 2.70434,0.53374 5.46786,-0.40931 7.66188,-1.97939 3.2654,-2.22584 5.60111,-5.48435 8.47075,-8.15025 25.57519,-28.39818 50.8207,-57.08986 76.35134,-85.529 9.18,-10.62559 13.77425,-24.897461 13.11961,-38.873626 -0.0686,-1.768818 -0.29224,-3.531305 -0.11049,-5.300178 0.35,-11.099902 -3.77082,-22.104565 -10.70262,-30.703648 -8.91021,-11.213842 -22.37982,-18.87662 -36.71028,-20.13325 -3.55934,-0.317047 -7.13254,-0.05345 -10.69452,0.04979 -7.53884,0.543813 -14.67158,3.532544 -21.08095,7.407004 -5.50634,3.275051 -10.65398,7.103772 -16.06358,10.530496 -1.26943,0.79204 -2.73501,1.694311 -4.12724,2.451813 -1.17477,0.573812 -2.28474,1.379828 -3.55272,1.706968 -3.78177,0.194838 -7.20272,-1.863691 -10.11301,-4.063078 -0.69246,-0.505867 -1.57458,-1.221631 -2.33044,-1.821781 -2.88466,-2.327253 -5.85458,-4.899691 -9.10315,-6.865719 -2.4495,-1.336673 -4.74237,-2.948926 -7.27173,-4.143975 -7.735,-3.821769 -16.41623,-5.640409 -25.03101,-5.451728 z" />
</svg>
