<?xml version="1.0" encoding="UTF-8" standalone="no"?>
<!-- Created with Inkscape (http://www.inkscape.org/) -->

<svg
   version="1.1"
   id="svg1"
   width="2329"
   height="231.02225"
   viewBox="0 0 2329 231.02225"
   xmlns="http://www.w3.org/2000/svg"
   xmlns:svg="http://www.w3.org/2000/svg">
  <defs
     id="defs1" />
  <g
     id="g1"
     transform="translate(-3.7485974,-95.09735)">
    <path
       style="fill:#2c2c2c"
       d="m 596.92888,323.54386 c -2.54939,-2.14517 -3.19533,-3.74862 -4.53201,-11.25 -1.89177,-10.61658 -2.38826,-34.25721 -1.32831,-63.24825 0.5957,-16.29343 0.50552,-21.22019 -0.37241,-20.34455 -1.25186,1.24861 -8.45573,16.82703 -12.64483,27.34455 -1.42391,3.575 -3.37427,7.625 -4.33413,9 -0.95986,1.375 -2.42517,4.79163 -3.25623,7.59251 -2.00328,6.7515 -4.99805,12.55571 -10.44198,20.23774 -7.34121,10.35934 -13.04103,12.55295 -18.48132,7.11266 -2.8378,-2.83779 -3.01781,-3.43767 -2.5095,-8.36269 0.87071,-8.43642 7.49935,-19.9159 22.89562,-39.6507 4.04609,-5.18624 8.30326,-11.04337 9.46038,-13.01586 1.15712,-1.97249 2.94234,-4.86603 3.96715,-6.43009 1.72339,-2.63021 1.73057,-2.76947 0.0957,-1.85455 -0.97217,0.54405 -4.04852,3.20187 -6.83633,5.90625 -2.78781,2.70439 -6.09383,5.60279 -7.3467,6.4409 -9.41407,6.2975 -18.71842,12.92091 -22.5154,16.02783 -9.76841,7.9931 -24.28297,15.96812 -29.09501,15.98623 -3.54194,0.0133 -5.90499,-2.91291 -5.90499,-7.31234 0,-3.1239 0.84845,-4.51826 5.75,-9.4497 8.69319,-8.74619 29.62747,-22.50996 49.25,-32.38064 5.225,-2.62832 9.05,-4.78841 8.5,-4.80019 -0.55,-0.0118 -6.625,0.86223 -13.5,1.94225 -14.15426,2.22354 -29.05226,2.6032 -43.03719,1.09676 -9.69169,-1.04398 -14.3287,-2.62321 -17.28095,-5.88542 -3.32686,-3.67613 0.64502,-10.36378 7.24388,-12.19689 5.08328,-1.4121 23.54581,-1.20383 45.07426,0.50847 17.8748,1.4217 25,1.24273 25,-0.62795 0,-1.00417 -26.14046,-14.01553 -38.69878,-19.26224 -13.44229,-5.61601 -23.37968,-12.07424 -26.55235,-17.25616 -2.11613,-3.45627 -2.52157,-4.92238 -1.75655,-6.35183 3.54842,-6.63028 8.16235,-6.63471 21.46442,-0.0206 5.52379,2.74657 12.29326,6.76915 15.04326,8.93906 2.75,2.16991 8.69739,6.46623 13.21641,9.54738 4.51903,3.08115 8.44642,5.97424 8.72754,6.4291 1.14602,1.85429 14.658,12.32208 15.20258,11.7775 0.3234,-0.3234 -3.03414,-4.54773 -7.46119,-9.38741 -4.42705,-4.83967 -10.53673,-12.46283 -13.57706,-16.94036 -5.90158,-8.69132 -12.60827,-21.63009 -12.60827,-24.32431 0,-0.89909 -0.49712,-2.13183 -1.10472,-2.73943 -0.60759,-0.60759 -1.33989,-4.87425 -1.62732,-9.48147 -0.51917,-8.32165 -0.50501,-8.38477 2.15177,-9.59528 4.06475,-1.85203 8.19253,-1.46472 10.99312,1.03147 4.05359,3.61299 16.50725,23.293 24.08715,38.06393 7.66274,14.93236 8.8627,15.15099 6.50971,1.18607 -0.64869,-3.85 -1.96023,-14.65 -2.91452,-24 -1.68722,-16.53105 -1.68242,-17.1793 0.17379,-23.5 2.34082,-7.97086 4.30063,-10.15741 9.22933,-10.29712 3.01139,-0.0854 4.30199,0.5092 6.53833,3.0121 3.87855,4.34085 4.46336,10.57151 4.46336,47.5536 0,32.50482 0.39579,34.64376 4.03853,21.82524 0.8743,-3.0766 3.64597,-9.85937 6.15925,-15.07282 2.51329,-5.21344 5.3983,-11.28844 6.41114,-13.5 2.87623,-6.28028 9.05621,-15.72479 14.32475,-21.89169 4.23049,-4.95183 5.25305,-5.62931 8.49667,-5.62931 13.7572,0 8.7449,18.07101 -13.72965,49.5 -6.86922,9.60609 -10.20069,14.51813 -10.20069,15.04027 0,0.66967 11.65368,-7.45031 18,-12.54192 7.38178,-5.92237 13.71213,-9.70481 27.46147,-16.40848 14.89836,-7.26389 20.62391,-8.72757 23.601,-6.03333 2.19706,1.98831 2.34989,3.41874 0.91658,8.5789 -1.76878,6.36793 -13.13128,15.36115 -26.97905,21.35345 -4.125,1.78499 -10.875,5.08859 -15,7.34132 -4.125,2.25273 -11.64837,6.24164 -16.71859,8.86424 -5.07023,2.6226 -8.89523,5.06401 -8.5,5.42536 0.39522,0.36135 4.76859,0.28631 9.71859,-0.16674 30.07032,-2.75224 42.83734,-3.30232 49.62593,-2.13821 3.80116,0.65183 8.49576,1.18514 10.43247,1.18514 4.98379,0 11.05733,3.33279 11.85335,6.50442 0.89452,3.56405 -1.80997,7.78908 -6.7705,10.57705 -3.78057,2.1248 -5.06606,2.25791 -20.09865,2.08112 -8.83287,-0.10387 -18.5309,-0.61441 -21.55118,-1.13452 -3.02028,-0.52012 -10.80876,-1.86421 -17.30774,-2.98687 -13.27617,-2.29338 -16.68368,-2.50166 -16.68368,-1.01976 0,1.14256 -0.40692,0.95715 17.5,7.97376 7.15,2.80164 17.84122,7.99885 23.75826,11.54935 5.91705,3.5505 11.0131,6.45545 11.32455,6.45545 1.39029,0 15.74176,11.55898 17.95629,14.46238 2.86913,3.76161 3.03368,5.27485 0.9042,8.31511 -1.38157,1.97246 -2.431,2.22251 -9.3276,2.22251 -11.0322,0 -20.32809,-3.83788 -33.4449,-13.808 -9.39539,-7.14145 -30.92915,-21.27255 -31.91536,-20.94381 -0.72704,0.24234 14.06588,20.89863 16.29361,22.75181 1.7397,1.4472 9.54271,14.03686 13.50638,21.79168 3.64643,7.13415 4.64663,10.23052 5.11698,15.84085 0.5793,6.90988 0.55543,6.99797 -2.62062,9.67044 -3.82324,3.21704 -6.21754,3.37575 -10.5483,0.69919 -3.09971,-1.91573 -10.50349,-10.4668 -10.50349,-12.13111 0,-0.4404 -2.49663,-4.91804 -5.54806,-9.95031 -3.05143,-5.03227 -7.28682,-13.77866 -9.41198,-19.43644 -2.12516,-5.65777 -4.4019,-11.29207 -5.05943,-12.52068 -2.33988,-4.3721 -2.69744,0.10335 -0.78737,9.85518 2.47042,12.6127 3.57001,43.5801 1.86127,52.41857 -2.10726,10.89975 -5.73697,13.42497 -11.87414,8.26088 z m 6.36833,-4.93211 c 3.7592,-5.73727 3.72311,-32.19249 -0.0731,-53.56614 -3.44751,-19.41044 -5.74845,-29.94936 -6.44484,-29.51897 -1.22048,0.7543 -2.54163,29.04027 -2.31288,49.51897 0.23749,21.26036 1.53122,31.24904 4.42174,34.13956 2.36491,2.36491 2.49486,2.34801 4.40906,-0.57342 z m 42.36668,-15.97598 c 2.14396,-2.28214 2.20041,-2.71583 1.06522,-8.18399 -2.52218,-12.14929 -10.07256,-25.03487 -26.98052,-46.04532 -10.37378,-12.89084 -15.46387,-18.36085 -17.08558,-18.36085 -1.54185,0 -0.41611,3.11315 5.76014,15.92922 3.02935,6.28607 6.77037,14.83607 8.31337,19 1.54301,4.16393 4.50288,10.49578 6.5775,14.07078 2.07461,3.575 5.27551,9.26412 7.1131,12.64249 3.03473,5.57929 10.10983,13.35751 12.15004,13.35751 0.45254,0 1.84157,-1.08443 3.08673,-2.40984 z m -95.88698,-5.10481 c 5.1865,-2.68204 11.76677,-12.60423 16.36474,-24.67587 1.32177,-3.47021 6.04906,-14.51269 10.50508,-24.53883 4.45602,-10.02614 8.10186,-18.46364 8.10186,-18.75 0,-2.0517 -2.58429,0.55233 -6.67831,6.72935 -2.64286,3.9875 -7.55405,10.85 -10.91377,15.25 -9.54549,12.50109 -19.24038,27.06766 -21.81983,32.7843 -3.91652,8.6799 -4.03119,9.61514 -1.50817,12.30078 2.68377,2.85673 2.28248,2.796 5.9484,0.90027 z m -31.59689,-29.83697 c 5.46096,-3.00172 16.58426,-10.6368 35.46394,-24.34261 6.77825,-4.9207 23.27491,-19.46882 22.71329,-20.03045 -0.77597,-0.77597 -15.60486,5.71107 -21.28334,9.31061 -3.39607,2.15274 -10.11102,6.16407 -14.92211,8.91407 -13.48153,7.70599 -31.40321,21.34652 -31.40321,23.90157 0,1.2794 2.03838,5.59843 2.6422,5.59843 0.38044,0 3.43559,-1.50823 6.78923,-3.35162 z m 168.81857,-0.51286 c 0.4125,-0.0745 0.75,-0.94724 0.75,-1.93935 0,-3.03676 -10.32053,-11.71637 -20.54348,-17.27715 -3.27609,-1.78203 -8.20652,-4.66414 -10.95652,-6.40468 -5.32592,-3.37091 -19.37646,-9.84657 -26,-11.98298 -2.2,-0.7096 -6.79894,-2.46945 -10.21987,-3.91077 -7.0966,-2.98998 -8.28013,-3.16834 -8.28013,-1.24784 0,1.80995 4.5597,5.61278 16.93894,14.12725 5.59754,3.85 15.21368,10.51032 21.3692,14.80071 17.45743,12.16781 26.80146,15.66716 36.94186,13.83481 z m 6.97036,-47.77744 c 1.49619,-0.75833 3.1913,-2.25876 3.76691,-3.33429 0.86063,-1.6081 0.60924,-2.24206 -1.41501,-3.5684 -5.36162,-3.51307 -24.84426,-5.10456 -43.57226,-3.55932 -19.34374,1.59604 -33.07641,2.98647 -36.25,3.67029 -4.98197,1.07348 -2.87414,2.21412 5,2.70571 4.2625,0.26612 12.925,1.46846 19.25,2.67187 20.35502,3.87281 46.97388,4.58011 53.22036,1.41414 z m -128.3749,-2.19882 c 6.79,-1.65927 12.57349,-3.24487 12.85218,-3.52357 0.83968,-0.83968 -4.97908,-1.41619 -32.29116,-3.19933 -29.17162,-1.90455 -41.23399,-1.66365 -46.17327,0.92215 -2.77954,1.45513 -3.11172,1.99998 -2.22708,3.65294 2.63303,4.91987 9.08801,5.95313 34.49387,5.52146 19.27941,-0.32758 22.0115,-0.60399 33.34546,-3.37365 z m 31.76293,-1.58112 c 0.99806,-2.60091 -1.30613,-5.35858 -4.04063,-4.83584 -2.52558,0.48279 -4.22502,3.38521 -3.07329,5.24875 0.94607,1.53078 6.49157,1.2089 7.11392,-0.41291 z m 26.29594,-16.22617 c 23.11687,-12.20115 27.55172,-14.43477 34.43339,-17.34243 13.32539,-5.63027 26.34897,-16.217 25.47955,-20.71205 -0.26993,-1.39562 -1.10699,-1.72096 -3.74398,-1.45518 -4.18458,0.42175 -18.06367,6.40016 -23.87342,10.28344 -2.36507,1.58084 -4.50538,2.87425 -4.75623,2.87425 -1.08858,0 -24.97682,17.6475 -30.88528,22.81657 -3.57301,3.12589 -7.74782,6.67974 -9.27737,7.89745 -5.15162,4.10136 -0.11304,2.36025 12.62334,-4.36205 z m -36.36227,-1.97944 c -0.64921,-3.46063 -9.56746,-23.52643 -16.61023,-37.37253 -3.21689,-6.32442 -11.29667,-18.66433 -17.18766,-26.25 -3.50618,-4.51482 -7.36006,-5.1286 -8.31489,-1.32426 -1.00346,3.99809 1.17882,14.64068 4.44227,21.66422 5.35065,11.51554 14.86814,24.78375 25.87178,36.06749 5.81536,5.9634 11.00221,10.84255 11.52632,10.84255 0.55384,0 0.66793,-1.51918 0.27241,-3.62747 z m 9.57771,-8.50434 c 1.44152,-13.20339 1.91037,-45.35834 0.84792,-58.15284 -0.93451,-11.25379 -3.01897,-17.03195 -5.95016,-16.4939 -0.83464,0.1532 -2.64253,2.52855 -4.01753,5.27855 -3.86834,7.73669 -3.44024,16.31852 2.94319,59 2.03172,13.58465 3.78473,21.10541 4.70496,20.18519 0.24684,-0.24685 0.90907,-4.6645 1.47162,-9.817 z m 13.2406,3.88181 c 2.00395,-2.8875 5.1785,-7.275 7.05457,-9.75 3.08224,-4.06623 10.53653,-14.88188 17.57494,-25.5 8.64032,-13.03475 12.81583,-27.5 7.93809,-27.5 -2.99726,0 -13.55138,12.50962 -18.13915,21.5 -6.96912,13.65702 -11.76416,24.63673 -15.28512,35 -1.49491,4.4 -3.13563,8.7875 -3.64605,9.75 -2.0519,3.86935 1.07539,1.43848 4.50272,-3.5 z m -48.36037,1.25715 c 0,-0.54607 -3.4875,-3.5334 -7.75,-6.63852 -4.2625,-3.10512 -10.225,-7.54353 -13.25,-9.86313 -3.025,-2.3196 -6.85,-4.96299 -8.5,-5.8742 -1.65,-0.91121 -3.675,-2.06426 -4.5,-2.56233 -9.15692,-5.5283 -17.70729,-7.51548 -18.74389,-4.35626 -1.25486,3.82438 16.19949,15.65465 31.24389,21.17659 4.4,1.615 10.475,4.27697 13.5,5.91551 5.90876,3.20057 8,3.77627 8,2.20234 z m 1611.54911,91.6329 c -1.7948,-1.79487 -2.532,-3.96674 -3.0785,-9.07034 -0.6122,-5.7165 -0.3364,-7.9219 1.8623,-14.89005 1.4195,-4.49881 3.7018,-11.77966 5.0718,-16.17966 3.5957,-11.54845 4.6989,-14.66287 6.2831,-17.73747 1.1907,-2.31092 1.1947,-2.65466 0.026,-2.20604 -0.7617,0.29229 -2.1315,1.97415 -3.0439,3.73747 -5.2545,10.15437 -8.2467,14.12857 -19.4337,25.81163 -4.8003,5.01313 -10.3302,9.72988 -12.8208,10.93557 l -4.3797,2.12016 -3.0153,-2.14705 c -3.893,-2.77208 -4.8092,-6.401 -2.6295,-10.41499 0.9257,-1.7046 4.8165,-7.34262 8.6463,-12.52892 3.8297,-5.1863 6.9632,-9.62556 6.9632,-9.86501 0,-0.23945 -1.0125,0.20885 -2.25,0.99623 -13.9991,8.90688 -23.0709,12.79842 -29.8355,12.79842 -4.7778,0 -6.9149,-2.12276 -6.9149,-6.86848 0,-4.13576 3.4743,-8.1436 12.0466,-13.8965 5.7749,-3.87554 31.559,-16.89953 35.2128,-17.78663 6.0647,-1.4724 3.5486,-2.44 -4.4438,-1.70897 -4.5736,0.41832 -14.6156,0.74766 -22.3156,0.73186 -21.0185,-0.0431 -28.5,-2.94092 -28.5,-11.0388 0,-1.72563 0.7829,-3.80539 1.75,-4.64899 3.9334,-3.43101 6.5528,-3.98991 18.2417,-3.89219 11.3339,0.0948 21.366,1.62616 36.7928,5.61648 10.6214,2.74733 10.3529,1.24623 -0.7845,-4.38554 -18.6935,-9.45261 -34.7834,-20.39664 -40.904,-27.82195 -9.2499,-11.22178 2.8697,-14.9779 20.5889,-6.38088 10.5907,5.13847 22.1919,12.09941 29.3689,17.62201 3.2704,2.51651 5.9462,4.31956 5.9462,4.00677 0,-0.31279 -1.485,-2.70159 -3.2999,-5.30845 -1.8149,-2.60686 -3.9193,-6.26203 -4.6763,-8.1226 -0.7571,-1.86057 -2.4379,-4.64419 -3.7351,-6.18583 -4.6305,-5.50305 -13.2887,-23.67512 -13.2887,-27.89067 0,-5.3086 2.9044,-8.04064 8.5478,-8.04064 3.4779,0 4.9669,0.70089 8.9643,4.21954 4.7846,4.21163 11.4824,13.5248 11.4941,15.98242 0,0.71392 0.6418,2.51644 1.4186,4.00559 0.7769,1.48915 3.1366,7.56415 5.2439,13.5 l 3.8313,10.79245 0.2638,-6 c 0.1451,-3.3 0.9095,-13.30785 1.6987,-22.23967 1.7449,-19.74967 3.2142,-23.90893 9.4377,-26.71533 l 4.2086,-1.89779 3.1463,3.14632 c 2.7268,2.72683 3.1987,3.98361 3.5393,9.42639 0.2161,3.45405 -0.101,9.65508 -0.7046,13.78008 -2.7823,19.01232 -3.2273,22.9166 -2.9194,25.61321 0.3164,2.77162 0.5072,2.62747 4.782,-3.61321 2.4489,-3.575 5.8239,-8.37537 7.5,-10.66748 1.6762,-2.29212 4.3976,-6.05299 6.0476,-8.3575 3.3363,-4.65974 12.8575,-11.97502 15.5861,-11.97502 0.9682,0 3.145,1.165 4.8372,2.58889 5.7373,4.82765 3.7557,14.48225 -5.4198,26.40661 -2.5123,3.26486 -5.5027,6.59093 -6.6453,7.39127 -1.1427,0.80035 -1.9139,1.94628 -1.7138,2.54652 0.2062,0.61851 2.7449,-0.49404 5.8597,-2.5679 19.4882,-12.97547 35.1942,-14.33606 33.6625,-2.91613 -0.3893,2.90257 -1.5653,4.94425 -4.403,7.64428 -4.5797,4.35763 -15.505,10.06086 -23.8233,12.43632 -10.3387,2.9524 -25.4403,9.31294 -25.4403,10.71502 0,0.51429 3.1209,0.62219 7.25,0.25065 3.9875,-0.3588 12.6969,-0.61257 19.3543,-0.56393 9.9577,0.0727 13.3429,0.5097 19.0885,2.4639 9.8528,3.35116 15.3072,6.97236 15.3072,10.1625 0,4.09644 -3.8619,7.07925 -10.0664,7.77488 -9.0739,1.01734 -30.0509,-2.09672 -43.6863,-6.4853 -8.3299,-2.68098 -9.8698,-1.90483 -3.1669,1.59621 7.2475,3.7855 16.0352,9.66425 23.7946,15.91814 7.2304,5.8275 20.125,20.88711 20.125,23.50405 0,6.95523 -15.351,4.78218 -25.0654,-3.5482 -1.889,-1.6199 -5.0096,-4.0195 -6.9346,-5.33245 -1.925,-1.31294 -8.4374,-7.0594 -14.4721,-12.76992 -10.3383,-9.78296 -14.7481,-12.12614 -9.2465,-4.91315 3.8001,4.98216 12.7709,23.43845 14.9209,30.69774 1.0588,3.575 2.291,10.55 2.7381,15.5 0.7302,8.08422 0.615,9.27982 -1.1318,11.75 -2.1569,3.04999 -5.843,3.60271 -10.3454,1.55128 -2.8564,-1.30147 -6.7893,-8.15914 -7.9151,-13.80128 -0.3842,-1.925 -2.2208,-8 -4.0815,-13.5 -1.8607,-5.5 -3.9005,-13.375 -4.533,-17.5 -1.2664,-8.25957 -2.6155,-11.71814 -4.022,-10.31155 -0.4968,0.49674 -1.5735,5.60755 -2.3928,11.35735 -2.1675,15.21167 -5.7613,31.95023 -8.0415,37.4542 -0.6835,1.65 -1.7871,4.43093 -2.4523,6.17984 -1.193,3.13644 -5.9642,6.32016 -9.4716,6.32016 -0.9044,0 -2.7063,-1.06198 -4.0043,-2.35995 z m 9.0109,-5.13496 c 2.4088,-2.55414 3.5937,-5.04407 4.4017,-9.25 0.6082,-3.1653 1.9887,-9.58009 3.068,-14.25509 4.222,-18.28858 6.973,-41.39734 5.1456,-43.22471 -1.1046,-1.10456 -4.1753,3.87502 -4.1753,6.77076 0,0.90495 -0.6689,2.8398 -1.4864,4.29966 -1.6994,3.03472 -3.5855,8.23301 -7.131,19.65429 -1.3659,4.4 -3.3266,10.25 -4.3571,13 -4.6129,12.30961 -4.4904,26.5 0.2289,26.5 0.5552,0 2.4927,-1.57271 4.3056,-3.49491 z m 44.4601,-3.02927 c 1.5802,-1.90407 0.7919,-13.3449 -1.5143,-21.97582 -2.7833,-10.41661 -20.2983,-43.35524 -23.1093,-43.45919 -1.1573,-0.0428 -0.1215,4.90811 2.9205,13.95919 0.8318,2.475 2.0294,7.2 2.6613,10.5 0.632,3.3 2.6508,10.725 4.4864,16.5 1.8356,5.775 4.096,12.975 5.0231,16 1.7003,5.54791 4.8453,10 7.0641,10 0.6618,0 1.7724,-0.68588 2.4682,-1.52418 z m -77.3602,-17.57462 c 4.6716,-2.88722 20.3788,-20.58424 24.4772,-27.57813 6.886,-11.75059 10.8143,-18.84485 10.8382,-19.57307 0.014,-0.4125 -0.5441,-0.75 -1.2392,-0.75 -1.4266,0 -26.405,24.77371 -29.9406,29.69525 -1.2625,1.75738 -3.8491,5.35738 -5.748,8 -1.8988,2.64261 -4.0363,5.39939 -4.75,6.12618 -1.386,1.41152 -1.7295,4.41321 -0.6308,5.5119 1.1892,1.18923 3.526,0.71067 6.9932,-1.43213 z m 114.3197,-12.6512 c -0.03,-2.54107 -10.2277,-13.55472 -19.4489,-21.00441 -7.3018,-5.89904 -25.1659,-17.23713 -27.1816,-17.25175 -0.467,-0.003 -2.079,-0.64775 -3.5822,-1.43191 -1.7593,-0.91777 -2.9553,-1.06616 -3.3568,-0.41649 -0.7322,1.18477 23.2479,24.81662 29.0899,28.66741 2.2,1.45015 5.7493,4.09402 7.8872,5.87528 7.6269,6.35433 16.6369,9.37453 16.5924,5.56187 z m -129.4796,-8.08362 c 3.3,-1.43646 10.4717,-5.49971 15.9372,-9.02945 15.2424,-9.84391 33.2952,-24.13501 30.4928,-24.13893 -5.5254,-0.008 -43.5634,18.24855 -53.7544,25.79935 -7.9329,5.87771 -9.0676,7.42287 -7.149,9.73472 1.608,1.93751 6.3791,1.15767 14.4734,-2.36569 z m 140.4018,-29.282 c 2.0841,-0.7265 3.0924,-1.67589 2.891,-2.72188 -0.4243,-2.203 -10.1069,-6.94008 -16.7928,-8.21561 -10.0325,-1.91401 -41,-1.07283 -41,1.11368 0,1.24573 13.8983,5.41475 26,7.79912 16.379,3.22711 23.9343,3.75639 28.9018,2.02469 z m -121.4018,-6.95778 c 23.9499,-1.89359 23.9331,-2.29424 -0.3114,-7.43185 -15.1331,-3.20683 -18.682,-3.62605 -28.2026,-3.33159 -12.1946,0.37716 -14.0563,1.1924 -12.1712,5.32979 1.4394,3.15896 4.8152,4.56693 13.1852,5.49915 10.0922,1.12404 12.5281,1.11824 27.5,-0.0655 z m 46.0842,-1.41991 c 2.0435,-2.04343 2.2996,-2.85539 1.4194,-4.5 -1.1789,-2.20268 -1.4399,-2.26912 -5.6286,-1.43234 -2.5853,0.51647 -2.8571,0.94469 -2.6973,4.25 0.098,2.02161 0.2102,3.78815 0.25,3.92565 0.3476,1.20155 4.6675,-0.25429 6.6565,-2.24331 z m -12.2092,-9.30444 c 0.7424,-1.20116 -0.315,-2.30002 -6.875,-7.14492 -3.3,-2.43722 -8.475,-6.53473 -11.5,-9.10559 -5.8187,-4.94518 -16.4055,-11.60366 -26.7605,-16.83083 -6.384,-3.22264 -18.2395,-5.43145 -18.2395,-3.39823 0,6.1828 34.3905,28.58029 53.4509,34.81093 7.9227,2.58986 9.22,2.80798 9.9241,1.66864 z m 38.9935,-5.18634 c 5.5866,-2.62834 12.9493,-5.49406 16.3616,-6.36826 6.7306,-1.72428 18.8607,-7.47099 23.9279,-11.33598 3.6111,-2.7543 4.6446,-4.78275 3.7973,-7.45255 -1.8551,-5.84472 -17.8292,1.60378 -45.247,21.09803 -2.3605,1.67829 -6.4911,4.16594 -9.1792,5.52812 -2.6882,1.36219 -5.2007,2.98338 -5.5834,3.60265 -1.2462,2.01626 5.2651,-0.0578 15.9228,-5.07201 z m -36.2825,-9.589 c -1.0781,-3.2598 -3.0705,-9.30191 -4.4276,-13.42691 -6.9591,-21.1529 -10.8156,-28.94984 -17.4711,-35.3223 -2.2738,-2.17708 -3.718,-2.74861 -6.3175,-2.5 -2.9982,0.28676 -3.4046,0.68407 -3.6854,3.6027 -0.4251,4.41845 6.2212,16.99844 20.3661,38.54858 11.633,17.72316 15.3603,20.6628 11.5355,9.09793 z m 11.2282,4.32309 c 2.0432,-4.95138 4.4365,-15.86458 6.6339,-30.25 3.0597,-20.02964 3.3329,-23.74261 2.0878,-28.3666 -1.0249,-3.80634 -1.4304,-4.22278 -3.8409,-3.94452 -4.0638,0.46914 -6.0791,5.62313 -7.2137,18.44926 -1.5997,18.08284 -1.2083,47.36186 0.6331,47.36186 0.1973,0 0.9622,-1.4625 1.6998,-3.25 z m 16.2519,-3.25 c 18.7668,-16.07492 26.526,-24.69112 29.9569,-33.26587 0.9356,-2.33842 1.4254,-5.30348 1.0941,-6.62357 -1.8464,-7.35683 -10.4437,-1.70742 -21.1368,13.88944 -2.6395,3.85 -5.7963,8.35 -7.0151,10 -4.517,6.11535 -11.4032,18.93288 -11.4432,21.29969 -0.029,1.71137 1.3774,0.83907 8.5441,-5.29969 z m -1006.6951,95.49401 c -8.196,-4.33088 -11.2477,-12.1362 -8.4068,-21.50205 2.2246,-7.33435 2.0415,-7.66699 -2.7142,-4.93062 -6.8137,3.92051 -11.0654,4.75153 -15.2866,2.98783 -6.099,-2.54836 -8.3416,-6.69587 -10.0295,-18.54917 -1.1145,-7.82593 -3.1386,-10.82214 -9.4704,-14.01842 -7.4781,-3.77492 -11.9635,-9.12103 -11.9635,-14.25908 0,-7.9282 5.4132,-13.34862 16.966,-16.98864 7.2922,-2.2976 8.3661,-3.17628 5.1355,-4.20165 -3.4543,-1.09634 -10.0483,-6.47607 -13.0979,-10.68589 -6.1974,-8.55531 -2.7538,-15.17323 13.1453,-25.26284 3.256,-2.06627 4.5364,-5.23359 5.389,-13.33084 0.8139,-7.72951 3.4839,-11.97985 9.4702,-15.07561 3.7114,-1.91935 5.5778,-2.24342 10.7417,-1.86517 3.4373,0.25179 7.359,1.18462 8.7148,2.07297 3.632,2.37977 4.1475,2.05147 4.1379,-2.63483 -0.013,-6.46548 1.0174,-9.09284 4.6087,-11.748 4.5664,-3.3761 15.4136,-3.49 21.274,-0.22337 6.7639,3.77023 12.1597,2.51221 23.0148,-5.365894 4.8608,-3.52775 5.2001,-3.6161 12.1905,-3.17475 11.9165,0.75239 15.5936,4.53237 15.4213,15.852754 -0.059,3.90836 0.12,7.47532 0.3989,7.92659 0.2789,0.45128 1.9656,0.0762 3.7482,-0.83344 4.3571,-2.22343 15.1855,-2.18292 19.3887,0.0725 1.9305,1.03592 4.0548,3.53627 5.4938,6.4663 2.2539,4.58919 2.6995,7.98152 2.8176,21.45055 0.05,5.72124 2.9252,9.55036 10.1046,13.45788 9.3137,5.06913 13.5942,16.03716 9.1864,23.53847 -0.9625,1.63801 -4.3375,4.55252 -7.5,6.47669 -3.1625,1.92417 -5.75,3.77146 -5.75,4.10509 0,0.33362 1.5335,2.01118 3.4077,3.72791 4.139,3.7912 5.9136,9.61765 5.0082,16.44306 -0.8491,6.40064 -3.3891,10.46179 -8.6638,13.85193 -9.1576,5.8858 -14.8507,10.77865 -15.3833,13.22087 -2.379,10.90834 -7.3367,21.21353 -11.011,22.88768 -5.4855,2.49934 -13.7305,0.5621 -18.2821,-4.29553 -1.3334,-1.42303 -2.7683,-2.58732 -3.1887,-2.58732 -0.4205,0 -1.0699,2.03693 -1.4432,4.5265 -0.7884,5.25716 -3.946,10.4091 -7.4738,12.19419 -3.7103,1.87742 -9.7448,1.54514 -20.8727,-1.14936 -10.8295,-2.62223 -13.5075,-2.42859 -21.3075,1.54064 -4.8664,2.47646 -13.1117,2.42218 -17.9188,-0.11796 z m 18.3675,-5.41361 c 6.6279,-3.1355 12.4986,-3.28857 22.2615,-0.5804 3.85,1.06797 9.2841,1.95487 12.0757,1.97088 4.1859,0.024 5.5007,-0.42353 7.5,-2.55291 2.2367,-2.38218 2.4173,-3.33029 2.3339,-12.25 -0.1892,-20.24169 -9.6404,-43.88681 -17.176,-42.97147 -2.3831,0.28947 -2.4964,0.60391 -2.4511,6.8035 0.026,3.575 0.9686,10.1 2.0942,14.5 2.7329,10.68224 3.0098,14 1.1684,14 -1.9063,0 -4.9251,-16.1044 -4.9947,-26.64496 l -0.05,-7.64497 -4.0457,-0.38582 c -2.2251,-0.2122 -4.3911,-0.14696 -4.8133,0.14497 -1.176,0.81315 -4.9417,11.73146 -6.6619,19.31534 -0.9818,4.32876 -1.3004,8.58191 -0.8801,11.75 0.659,4.9681 -0.063,6.10142 -2.399,3.76544 -2.7996,-2.79956 -0.2931,-17.52481 5.1575,-30.3 l 2.5599,-6 -2.5145,-2.25 c -1.3829,-1.2375 -2.8678,-2.25 -3.2997,-2.25 -0.432,0 -1.9906,2.1375 -3.4637,4.75 -1.4731,2.6125 -4.6734,7.45 -7.1118,10.75 -8.9424,12.10196 -11.8566,16.89972 -14.6128,24.05744 -5.4348,14.11413 -3.6681,21.32505 6.0851,24.83634 2.5788,0.92841 7.572,-0.13272 13.2385,-2.81338 z m 70.223,-9.18473 c 2.566,-2.56604 5.3188,-8.62821 7.5122,-16.54328 2.0692,-7.46701 3.4064,-9.22775 9.5204,-12.5361 6.0475,-3.27232 13.331,-9.47995 14.5359,-12.3886 1.5622,-3.77164 0.5285,-13.65307 -1.6841,-16.09796 -3.0576,-3.37863 -8.2437,-4.30949 -22.5085,-4.04009 -7.5144,0.14191 -15.6144,-0.16223 -18,-0.67588 -2.3855,-0.51365 -7.4874,-1.21949 -11.3374,-1.56853 l -7,-0.63461 -2.671,5.56426 -2.6711,5.56426 3.1711,1.37365 c 5.7483,2.4901 23.671,21.51292 23.671,25.12402 0,1.52033 -2.297,2.52484 -3.7059,1.62067 -0.5635,-0.36161 -1.3525,-1.70767 -1.7533,-2.99125 -0.9316,-2.9834 -11.55,-14.72733 -16.82,-18.60298 l -4.0399,-2.97098 0.7303,2.95387 c 0.4017,1.62462 2.0676,5.04804 3.7021,7.60759 2.053,3.21504 3.7864,8.31601 5.607,16.5 2.6187,11.77159 2.6666,11.87464 7.605,16.34627 9.1008,8.24063 12.8179,9.71393 16.1362,6.39567 z m 4.0385,-48.07459 c -12.9069,-3.15376 -33.5,-10.17541 -33.5,-11.42253 0,-1.35253 2.0007,-1.09827 8.0347,1.0211 5.9573,2.09245 23.1878,6.54011 29.2795,7.55784 2.302,0.38459 3.6591,1.11007 3.4229,1.82987 -0.4238,1.29166 -4.0315,1.797 -7.2371,1.01372 z m -110.1846,34.46627 c 2.2261,-0.66695 5.8391,-2.91695 8.0288,-5 2.1897,-2.08304 4.6956,-3.80129 5.5686,-3.81832 0.8795,-0.0172 5.2028,-5.25595 9.6967,-11.75 10.7688,-15.56214 13.7465,-20.84895 12.9344,-22.96512 -0.5712,-1.48872 -1.0244,-1.31133 -3.3522,1.31228 -1.4804,1.66852 -3.6335,3.68621 -4.7845,4.48375 -4.5535,3.15503 -12.0959,9.67187 -16.0074,13.8308 -2.7675,2.94247 -4.3611,3.99084 -4.8541,3.19317 -1.7916,-2.89885 0.6367,-6.06755 8.7082,-11.36318 9.5006,-6.2333 17.753,-14.22863 17.7308,-17.17842 -0.025,-3.3072 -1.5389,-4.86213 -4.1283,-4.23995 -9.893,2.37706 -29.6354,11.11406 -33.4483,14.80254 -2.5328,2.45014 -3.2962,2.74487 -4.2215,1.62989 -2.1073,-2.53915 1.4782,-5.38085 12.762,-10.11452 6.0444,-2.53565 11.5926,-4.61027 12.3294,-4.61027 0.7369,0 2.2076,-0.63457 3.2682,-1.41016 1.8143,-1.32663 1.722,-1.44214 -1.5588,-1.95022 -1.9181,-0.29704 -5.9521,-0.81652 -8.9644,-1.15441 -3.0124,-0.33788 -7.2934,-1.10012 -9.5133,-1.69386 -3.3026,-0.88331 -5.7059,-0.69512 -13.2218,1.03539 -14.7625,3.39898 -20.431,6.69857 -22.2192,12.93369 -1.3413,4.67673 1.6162,8.61672 9.1618,12.20554 8.6594,4.11859 10.6334,7.78462 12.1447,22.5548 0.3986,3.89563 2.0771,6.98218 4.855,8.92795 2.6683,1.86892 3.8327,1.91233 9.0852,0.33863 z m 64.5488,-40.53192 c 4.1619,-3.10196 6.3272,-7.77044 6.8971,-14.87088 0.4332,-5.39679 0.1462,-7.27954 -1.6614,-10.89889 -2.9718,-5.95057 -7.8935,-8.93307 -13.4219,-8.13352 -13.8007,1.99597 -16.1713,4.42666 -18.1865,18.64786 -0.528,3.726 -0.234,5.09791 1.7092,7.9762 2.4862,3.68258 8.5253,8.31119 9.8088,7.51792 0.4201,-0.25965 1.3597,0.24578 2.0879,1.1232 1.7557,2.11548 9.1611,1.32552 12.7668,-1.36189 z m -18.8278,-5.71163 c -1.2178,-1.46736 -0.6605,-3.5438 0.9512,-3.5438 1.4444,0 4.0713,3.09574 3.4626,4.08062 -0.8507,1.37635 -3.0478,1.10913 -4.4138,-0.53682 z m 11.2136,-0.27444 c -1.5175,-0.52935 -1.6466,-2.9062 -0.2062,-3.79643 1.0793,-0.66702 3.9562,1.18191 3.9562,2.54253 0,1.04743 -2.2169,1.78869 -3.75,1.2539 z m 6.75,-4.26936 c 0,-1.33333 0.6667,-2 2,-2 1.3333,0 2,0.66667 2,2 0,1.33333 -0.6667,2 -2,2 -1.3333,0 -2,-0.66667 -2,-2 z m -11.9996,-3.49949 c -0.9243,-1.1138 -1.0013,-1.89962 -0.2587,-2.64223 1.5385,-1.53846 5.4365,-0.0223 5.0537,1.96567 -0.4309,2.23757 -3.1778,2.62514 -4.795,0.67656 z m 11.4643,-3.17871 c -1.0157,-1.01566 -1.246,-1.94054 -0.6352,-2.55129 1.3947,-1.39469 4.5964,-0.51315 4.9581,1.36515 0.4413,2.29159 -2.4297,3.07935 -4.3229,1.18614 z m -20.1031,-0.8218 c -0.3166,-0.825 -0.3091,-2.19441 0.017,-3.04312 0.8335,-2.17207 4.6218,-0.0587 4.6218,2.5783 0,2.36867 -3.7631,2.74577 -4.6384,0.46482 z m 4.3472,-6.12448 c -1.2347,-1.23474 -0.7662,-4.13951 0.7623,-4.72604 1.7073,-0.65517 4.7943,2.04738 4.2452,3.71659 -0.4364,1.3267 -3.9765,2.04036 -5.0075,1.00945 z m 10.5412,-2.04219 c -0.6875,-0.275 -1.25,-1.39379 -1.25,-2.48621 0,-1.4878 0.5646,-1.90603 2.25,-1.66667 1.4396,0.20445 2.25,1.00991 2.25,2.23622 0,2.03399 -1.1949,2.73869 -3.25,1.91666 z m 67.25,12.07922 c 7.7211,-1.86773 16.4136,-7.71242 18.8324,-12.66255 1.7764,-3.63564 1.7764,-3.86291 0,-7.45237 -1.2342,-2.49377 -4.2769,-5.37497 -9.3208,-8.82607 -10.231,-7.00025 -11.3679,-9.20548 -11.5487,-22.39977 -0.2084,-15.20811 -2.6123,-19.13289 -11.6472,-19.01592 -6.3597,0.0823 -12.1648,2.8587 -19.2758,9.21896 -5.4654,4.88846 -18.5399,20.57669 -18.5399,22.24629 0,0.31622 -1.575,3.03707 -3.5,6.04633 -4.0026,6.25713 -4.4527,9.85229 -1.4357,11.46698 2.1837,1.16866 4.5356,-0.18121 13.0059,-7.46452 1.9636,-1.68845 6.2386,-5.19252 9.5,-7.78683 3.2614,-2.59431 8.4895,-6.75886 11.618,-9.25457 3.1284,-2.4957 5.9223,-4.15872 6.2085,-3.69558 0.6244,1.01018 -4.81,6.21965 -12.5063,11.98874 -7.5641,5.66998 -16.0728,13.17749 -19.9858,17.63417 l -3.2176,3.66464 1.7445,3.65822 c 1.4968,3.1387 1.8811,3.41417 2.7062,1.93975 0.7171,-1.28145 2.2858,-1.71845 6.1686,-1.71845 2.8638,0 6.7789,-0.45348 8.7003,-1.00773 5.2712,-1.52057 22.2015,-4.11752 22.8188,-3.5002 1.2275,1.22754 -1.7919,2.40341 -9.8254,3.8263 -10.033,1.77705 -26.991,5.55806 -28.1552,6.27757 -0.4493,0.27766 -0.6693,1.49466 -0.4889,2.70445 0.3754,2.51765 1.6486,2.88593 17.6441,5.10379 11.4336,1.58531 21.1535,1.2693 30.5,-0.99163 z m -91.7109,-6.53172 c 0.2245,-1.18365 -0.9491,-1.9355 -4.3635,-2.79525 -9.2293,-2.32396 -21.9847,-10.63136 -31.2625,-20.36078 -4.6918,-4.92022 -2.5126,-5.39235 2.8721,-0.62225 7.0943,6.28451 16.5439,12.81542 22.4649,15.52611 6.9452,3.17965 11.0504,2.87784 13.3215,-0.97938 1.6372,-2.78067 1.617,-2.88894 -0.8216,-4.40576 -3.5033,-2.17911 -20.213,-19.40441 -21.9229,-22.59941 -2.2037,-4.11774 -0.2409,-4.5241 3.1079,-0.64342 14.3607,16.64159 24.0579,23.73582 28.2525,20.66866 1.7596,-1.28668 1.7635,-1.54813 0.097,-6.56657 -0.9547,-2.87459 -4.1787,-9.36038 -7.1643,-14.41286 -12.0704,-20.42656 -28.428,-30.84817 -39.4624,-25.14202 -3.6075,1.86548 -4.7525,4.4927 -6.4813,14.87081 -1.4846,8.91265 -1.8471,9.41001 -11.9365,16.37713 -10.8904,7.52034 -11.9768,11.72112 -4.8271,18.66487 5.4113,5.25535 12.5045,8.14239 26.9115,10.95326 19.7842,3.86002 30.6642,4.3713 31.2151,1.46686 z m 27.0109,-20.08083 c 1.8219,-1.82187 1.4362,-3.09504 -0.7632,-2.51987 -2.5907,0.67749 -3.7072,-0.83562 -5.0332,-6.82103 -2.0177,-9.10781 -6.9556,-23.92446 -8.9846,-26.9591 -1.1032,-1.65 -2.0088,-3.5625 -2.0124,-4.25 -0.01,-1.89147 3.7967,-1.49658 4.8199,0.5 0.8894,1.73544 6.808,21.37298 9.1925,30.5 0.6825,2.6125 1.5639,4.75 1.9587,4.75 0.3948,0 2.6503,-5.2875 5.0123,-11.75 5.4632,-14.94808 9.4275,-22.53135 13.7731,-26.34687 4.5919,-4.03172 5.3359,-2.91881 1.1987,1.79315 -3.8872,4.42727 -9.9048,16.96832 -10.6342,22.16244 l -0.5114,3.64128 3.5544,-4 c 1.9549,-2.2 3.5712,-4.38546 3.5919,-4.85658 0.021,-0.47112 3.1932,-4.11111 7.0503,-8.08886 5.9273,-6.11291 7.2429,-8.11604 8.5,-12.94221 1.9787,-7.59683 1.8719,-10.46917 -0.5362,-14.4189 -4.1688,-6.837664 -13.0282,-7.431294 -20.9254,-1.40213 -2.5031,1.91106 -6.8724,4.61328 -9.7094,6.00495 l -5.1581,2.53029 -7.8419,-3.09157 c -11.5978,-4.57232 -15.1238,-4.60681 -19.5395,-0.19112 -2.6813,2.68127 -2.9694,3.50991 -2.4183,6.95611 0.7616,4.76272 4.727,12.44053 8.5219,16.50002 3.3106,3.54145 13.2933,19.64547 15.5903,25.15022 2.7196,6.51741 4.3275,8.34978 7.3269,8.34978 1.5273,0 3.3169,-0.54 3.9769,-1.2 z m 320.7,76.48417 c -3.1698,-0.76683 -6.2579,-4.17763 -6.8979,-7.61886 -0.5583,-3.00149 0.4757,-11.83222 1.8927,-16.16531 0.3927,-1.20081 -1.074,-0.17802 -3.6704,2.55955 -10.25,10.80734 -17.0203,13.62345 -20.3897,8.48109 -2.2069,-3.36805 -1.2039,-7.1409 3.73,-14.03092 2.2212,-3.1019 3.8593,-5.81904 3.6403,-6.0381 -0.2191,-0.21905 -2.5863,0.26022 -5.2606,1.06505 -2.6742,0.80483 -6.3108,1.46333 -8.0812,1.46333 -3.982,0 -10.4231,-2.59595 -10.5784,-4.26342 -0.7087,-7.61074 3.9017,-11.82137 15.6309,-14.27543 12.4571,-2.60636 17.3766,-6.46115 8.2458,-6.46115 -3.6006,0 -12.547,-2.32506 -19.5138,-5.07136 -2.9843,-1.17642 -6.3886,-6.86965 -5.6358,-9.42529 0.3245,-1.10184 1.3056,-2.56585 2.1802,-3.25335 1.9131,-1.50386 14.5264,-1.68507 17.213,-0.2473 3.4997,1.87302 2.8497,-0.53817 -1.5845,-5.87793 -3.4907,-4.20347 -4.4206,-6.11004 -4.4206,-9.0635 0,-3.03898 0.4782,-3.95813 2.5507,-4.9024 2.9768,-1.35632 9.5016,-0.087 15.842,3.08186 3.4622,1.73033 3.8215,1.75991 3.2488,0.26733 -0.3542,-0.92302 -0.9313,-4.12255 -1.2824,-7.11007 -0.7552,-6.42518 0.7619,-8.8229 6.2316,-9.84903 5.0861,-0.95415 8.6023,2.0392 13.1106,11.16112 l 3.766,7.61998 1.18,-7.04774 c 1.7041,-10.17785 3.5401,-13.28232 7.8553,-13.28232 5.3579,0 6.6588,2.86116 6.6844,14.70102 0.012,5.38944 -0.3287,10.92398 -0.7564,12.29898 -0.7129,2.29242 -0.632,2.38067 0.974,1.06281 0.9633,-0.79045 2.8366,-3.57877 4.163,-6.19626 2.4968,-4.92713 10.3487,-11.86655 13.427,-11.86655 3.8161,0 8.0297,2.24854 8.6198,4.59993 0.985,3.92431 -0.33,7.16004 -6.0681,14.93145 -1.4751,1.99776 -1.3874,2.02502 5.3014,1.64707 6.6121,-0.37362 6.8757,-0.29587 9.4768,2.79535 4.437,5.27308 3.3661,9.27827 -3.5517,13.28293 -5.2761,3.05435 -9.1825,4.2658 -18.6507,5.78406 -9.2921,1.49 -7.7938,2.57921 4.8077,3.49507 10.9061,0.79263 18.0264,3.56243 21.9211,8.52724 2.6793,3.41554 2.3371,7.42505 -0.7164,8.3942 -3.2163,1.02083 -15.506,0.75192 -18.5232,-0.40531 -1.5888,-0.60937 -3.0224,-0.97427 -3.1857,-0.81089 -0.1634,0.16338 1.924,3.88131 4.6387,8.26207 5.0891,8.21252 5.6745,10.24794 3.9005,13.56257 -0.7813,1.45986 -2.1082,1.93426 -5.4102,1.93426 -3.6065,0 -5.2793,-0.71477 -9.5227,-4.06899 -2.8312,-2.23794 -5.3947,-4.71294 -5.6967,-5.5 -0.3021,-0.78705 -0.8748,-1.43101 -1.2727,-1.43101 -0.398,0 -0.1342,2.8125 0.5861,6.25 1.7641,8.41844 1.6852,10.0559 -0.6261,12.99426 -2.3325,2.96533 -6.2193,3.93169 -10.2134,2.53934 -2.7807,-0.96934 -5.8091,-5.19808 -5.8091,-8.1115 0,-0.78496 -0.6484,-1.96534 -1.4409,-2.62306 -1.1979,-0.99415 -1.5578,-0.57296 -2.1337,2.49704 -0.5687,3.03119 -6.272,10.79726 -7.592,10.33792 -0.1834,-0.0638 -1.2334,-0.33373 -2.3334,-0.59983 z m 4.0478,-8.55405 c 3.8992,-7.52204 7.1551,-29.73012 4.3586,-29.73012 -0.6015,0 -1.3575,1.0125 -1.68,2.25 -0.3225,1.2375 -2.3501,5.58112 -4.5058,9.65249 -3.2735,6.18232 -3.9444,8.45403 -4.0701,13.78194 -0.1091,4.62264 0.2494,6.62787 1.3018,7.28153 1.8778,1.16646 2.5638,0.68346 4.5955,-3.23584 z m 20.9889,1.22932 c 1.6907,-1.86822 1.7388,-2.56504 0.5695,-8.25 -1.152,-5.60098 -7.8251,-20.70587 -10.2535,-23.20944 -1.4089,-1.45247 -0.01,18.82833 1.7414,25.18868 1.3358,4.86022 3.5458,8.31132 5.3223,8.31132 0.4255,0 1.6046,-0.91825 2.6203,-2.04056 z m -39.0937,-15.54754 c 9.5018,-11.00598 16.7698,-21.4119 14.955,-21.4119 -0.9273,0 -10.476,8.22243 -17.1297,14.75044 -6.154,6.03783 -9.9741,12.29849 -8.7313,14.30946 0.9622,1.55689 6.023,-1.99205 10.906,-7.648 z m 60.557,4.57295 c 0,-3.96963 -6.1544,-12.87776 -13.3031,-19.25547 -14.856,-13.25371 -15.6227,-10.36899 -2.0893,7.86044 8.3636,11.26565 15.3924,16.46909 15.3924,11.39503 z m -73.75,-18.00871 c 2.0625,-0.53688 5.3893,-1.39325 7.3928,-1.90304 3.8874,-0.98914 19.5078,-11.02043 18.8409,-12.0995 -0.7087,-1.14673 -13.855,1.10902 -18.4837,3.17159 -2.475,1.10288 -6.9584,2.4134 -9.963,2.91226 -5.7305,0.95145 -11.9958,5.58214 -10.6026,7.8364 0.8389,1.35733 7.7469,1.40169 12.8156,0.0823 z m 88.7432,-3.22614 c -0.01,-1.5674 -5.7445,-5.53149 -9.6067,-6.63915 -3.6965,-1.06014 -20.3865,-2.4766 -20.3865,-1.73017 0,0.30812 4.1625,2.59695 9.25,5.0863 7.7001,3.7677 10.2135,4.52667 15,4.52956 3.9388,0.002 5.7478,-0.39028 5.7432,-1.24654 z m -49.9932,-15.75 c 0,-3.21831 -2.5721,-4.2787 -3.6384,-1.5 -0.8143,2.12201 0.2992,4.5 2.107,4.5 1.0349,0 1.5314,-0.97267 1.5314,-3 z m 24.9829,-3.95435 c 10.7369,-1.87681 17.1479,-4.02791 20.2671,-6.80022 4.7064,-4.18304 -0.9309,-8.31862 -8.6796,-6.36747 -5.4589,1.37457 -25.4568,13.11117 -25.5226,14.97903 -0.031,0.88228 0.5584,1.12437 1.6851,0.69202 0.9531,-0.36573 6.4656,-1.49224 12.25,-2.50336 z m -41.9849,0.20435 c 0,-1.80226 -26.0482,-11.25 -31.0115,-11.25 -7.3141,0 -6.2828,3.95979 1.8562,7.12747 8.1469,3.17069 29.1607,6.14202 29.1553,4.12253 z m 7.002,-4.85821 c 0,-1.14665 -9.8432,-12.89086 -15.2137,-18.15183 -6.8227,-6.68356 -14.7863,-9.45584 -14.7863,-5.14737 0,3.21546 11.4673,13.96624 20.5,19.21902 7.8843,4.58496 9.5,5.27891 9.5,4.08018 z m 8,-3.81102 c 0,-5.21409 -6.1265,-24.23685 -9.5549,-29.66769 -2.9276,-4.63774 -4.8297,-5.66872 -7.0534,-3.82321 -3.3762,2.80198 -0.3954,10.95309 9.1107,24.91373 3.0237,4.44052 5.4976,8.50628 5.4976,9.03503 0,0.52876 0.45,0.96137 1,0.96137 0.55,0 1,-0.63865 1,-1.41923 z m 7.393,-0.16256 c 0.3339,-0.86998 0.607,-2.59953 0.607,-3.84345 0,-1.24391 0.8324,-4.69461 1.8497,-7.66821 1.407,-4.11244 1.7648,-7.54202 1.4951,-14.32814 -0.1951,-4.90688 -0.5849,-9.15188 -0.8664,-9.43334 -0.9581,-0.95809 -2.6315,1.60072 -3.5855,5.48267 -1.4664,5.96657 -2.3963,31.37226 -1.1483,31.37226 0.5728,0 1.3146,-0.7118 1.6484,-1.58179 z m 18.5223,-8.0542 c 12.3047,-11.58308 14.848,-16.36401 8.7052,-16.36401 -2.772,0 -3.9953,0.76403 -6.8047,4.25 -1.8838,2.3375 -4.6972,6.5 -6.2521,9.25 -1.5548,2.75 -3.7044,6.4625 -4.7769,8.25 -1.0724,1.7875 -1.5214,3.25 -0.9977,3.25 0.5237,0 5.0805,-3.88619 10.1262,-8.63599 z M 431.14906,237.5041 c -2.80474,-1.35766 -5.88503,-3.33644 -6.84508,-4.39729 -2.27951,-2.51882 -4.45622,-8.71193 -4.5115,-12.83595 -0.0534,-3.98835 -1.71621,-4.78044 -12.16678,-5.79595 -4.05741,-0.39427 -9.12119,-1.32715 -11.25284,-2.07308 -6.35704,-2.2245 -11.89055,-1.58692 -9.65067,1.11197 0.52594,0.63372 2.26109,4.35857 3.85589,8.27745 3.17263,7.79605 2.84776,9.25436 -2.06161,9.25436 -6.54977,0 -12.2335,-4.39346 -15.35872,-11.87212 -1.87958,-4.49784 -1.77642,-7.13885 0.33927,-8.68588 0.96163,-0.70316 1.45316,-1.57375 1.09227,-1.93463 -0.36088,-0.36089 -5.53518,-1.10881 -11.49843,-1.66205 -5.96325,-0.55324 -11.74227,-1.41534 -12.84227,-1.91578 -1.1,-0.50044 -4.7778,-1.54131 -8.17288,-2.31304 -3.39509,-0.77173 -6.65759,-1.70271 -7.25,-2.06884 -2.54937,-1.5756 -2.8901,0.77998 -0.61481,4.25045 2.89758,4.41964 5.87519,12.84678 5.02519,14.22211 -0.94659,1.53162 -7.39136,1.14964 -10.37892,-0.61515 -4.41923,-2.6105 -7.55172,-8.12878 -8.10858,-14.28429 l -0.5,-5.52696 -8,-1.41157 c -4.4,-0.77636 -9.36888,-2.01166 -11.04196,-2.74511 -1.67308,-0.73344 -5.27308,-1.86826 -8,-2.52181 -8.39372,-2.0117 -8.01,-1.79195 -6.23259,-3.56935 1.39112,-1.39112 2.20561,-1.42033 6.7966,-0.24369 5.1163,1.31127 5.25683,1.28782 7.34701,-1.22565 3.78703,-4.55397 19.39011,-13.87664 23.22493,-13.87664 1.38847,0 1.58229,0.81358 1.18324,4.96661 -0.39547,4.1157 -1.27691,5.90265 -5.14484,10.4301 -2.56718,3.00492 -4.32218,5.6685 -3.9,5.91906 0.42219,0.25056 3.24261,0.75463 6.26761,1.12016 3.025,0.36552 9.01289,1.38755 13.30641,2.27117 l 7.80642,1.60658 4.69358,-4.53095 c 6.10399,-5.89248 12.718,-9.61874 18.47316,-10.40757 4.34115,-0.59502 4.65586,-0.48059 5.25617,1.91121 0.77216,3.07652 -1.6354,8.5383 -5.66532,12.85235 -1.57873,1.69004 -2.87042,3.4111 -2.87042,3.82458 0,0.41348 2.5875,1.02903 5.75,1.36789 3.1625,0.33886 8.35946,1.30296 11.54879,2.14246 3.18933,0.83949 7.68933,1.52464 10,1.52254 3.89611,-0.004 4.50195,-0.39323 8.34235,-5.36607 5.11893,-6.6284 9.39586,-9.87503 15.81396,-12.00446 4.35361,-1.44447 5.13307,-1.46607 6.4212,-0.17793 2.25955,2.25955 -0.0529,8.42012 -5.38791,14.35395 -2.46861,2.7457 -4.48839,5.40284 -4.48839,5.90476 0,0.50192 4.8375,1.47638 10.75,2.16546 5.9125,0.68908 12.63677,1.6748 14.94282,2.19049 6.96469,1.55746 7.7722,1.26643 11.40067,-4.10885 3.69436,-5.47288 10.92724,-10.95354 14.45551,-10.95354 1.21336,0 2.76292,0.67091 3.44346,1.49092 1.83065,2.20579 0.38521,9.75848 -2.51311,13.13146 -3.1591,3.67647 -1.4942,4.74453 5.16362,3.31252 2.67137,-0.57457 7.21953,-1.3007 10.10703,-1.61362 4.25478,-0.46109 5.25,-0.28433 5.25,0.93245 0,3.46398 -2.99748,4.23261 -17.89983,4.58998 -13.71175,0.32881 -18.23613,-0.1101 -28.98215,-2.81152 -4.67801,-1.17599 -6.14218,-0.73949 -4.58265,1.36618 4.76916,6.43932 6.46463,9.94894 6.46463,13.38176 0,3.38704 -1.3837,6.28735 -2.95,6.18335 -0.3025,-0.0201 -2.84479,-1.14733 -5.64953,-2.50499 z m 3.59953,-6.36174 c 0,-3.46828 -7.90199,-12.89339 -9.81734,-11.70964 -1.33271,0.82366 -1.57186,6.45164 -0.35557,8.36736 1.20183,1.89293 7.3815,6.24553 8.86719,6.24553 0.77446,0 1.30572,-1.18124 1.30572,-2.90325 z m -47.37763,-5.55504 c 0.72628,-1.89267 -3.49927,-10.34208 -6.07394,-12.14545 -1.09639,-0.76794 -2.85219,-1.39626 -3.90178,-1.39626 -1.6446,0 -1.82587,0.51825 -1.31163,3.75 0.41819,2.62809 1.79203,4.87191 4.59212,7.5 4.31618,4.05106 5.82228,4.56658 6.69523,2.29171 z m 72.48865,-12.53254 c 5.6377,-5.36301 5.22071,-9.02942 -0.7418,-6.52237 -3.68839,1.55085 -8.82294,7.88843 -8.0413,9.92537 0.83385,2.17296 4.35616,0.80825 8.7831,-3.403 z m -126.47179,1.48859 c 0.86397,-2.25146 -0.29923,-5.66633 -2.97973,-8.74776 -2.32708,-2.67514 -6.6595,-3.79273 -6.6595,-1.71788 0,2.35591 3.23366,8.58926 5.28917,10.19564 2.73467,2.13715 3.61266,2.19165 4.35006,0.27 z m 78.52077,-11.33776 c 7.81863,-7.81863 7.66579,-10.07429 -0.45279,-6.68213 -3.92718,1.64088 -11.2426,9.84683 -10.23363,11.47938 1.48753,2.40687 5.10722,0.78195 10.68642,-4.79725 z m -49.76561,-5.33356 c 2.00603,-1.65354 4.3245,-4.31594 5.15215,-5.91644 l 1.50482,-2.91 h -3.38613 c -4.90539,0 -14.52893,7.0246 -14.63196,10.68045 -0.0356,1.26125 3.41183,2.12036 6.09026,1.51772 0.89294,-0.20091 3.26482,-1.71818 5.27086,-3.37173 z m -48.28153,-8.91985 c 2.43882,-1.2553 7.88714,-7.77726 7.88714,-9.44139 0,-1.92817 -0.23159,-1.88827 -5.99633,1.03294 -5.88217,2.98072 -12.2269,8.33165 -11.42244,9.63329 0.60581,0.98022 6.79201,0.18528 9.53163,-1.22484 z m -112.61286,47.55066 c -1.7406,-0.86868 -4.15433,-3.58782 -5.74971,-6.47723 -3.18767,-5.77323 -4.36324,-6.03761 -13.25029,-2.98002 -7.12806,2.45241 -9.85434,2.47722 -15,0.13652 -5.80545,-2.64084 -6.86732,-4.39516 -6.93817,-11.46263 l -0.0618,-6.16773 -5.15892,-0.63276 c -6.85236,-0.84047 -12.90321,-5.5631 -14.47481,-11.29745 -0.91589,-3.34186 -0.81101,-4.94812 0.58235,-8.91859 0.93469,-2.66345 1.52086,-5.02121 1.3026,-5.23947 -0.21825,-0.21826 -2.36266,-1.43639 -4.76534,-2.70696 -5.0739,-2.68314 -6.34874,-5.72974 -5.41555,-12.94207 0.79284,-6.12754 3.52772,-9.48003 10.10734,-12.38985 2.92728,-1.29459 5.32233,-2.62599 5.32233,-2.95867 0,-0.33269 -0.9,-1.74905 -2,-3.14747 -2.22712,-2.83133 -2.51479,-5.78867 -0.96069,-9.87628 1.33274,-3.50535 3.28529,-4.9453 9.46069,-6.97701 5.9856,-1.96926 7.48914,-3.63795 7.53322,-8.36071 0.0206,-2.21087 1.07891,-5.07396 2.79396,-7.55887 5.05659,-7.32644 15.03892,-8.43163 23.65215,-2.61863 4.76975,3.21906 6.51779,3.30201 6.52441,0.30961 0.0133,-6.0041 8.93987,-12.19098 17.58948,-12.19098 5.23582,0 7.60655,1.14639 13.18723,6.3768 2.7666,2.59296 3.5498,2.88219 5,1.84649 7.11025,-5.07799 17.27784,-4.42915 22.31985,1.42433 2.7149,3.15184 4.29987,10.7657 3.01084,14.46341 -0.61609,1.76731 -0.99163,3.34182 -0.83453,3.49891 0.15709,0.15709 3.26628,-0.22494 6.90932,-0.84896 7.97243,-1.36562 12.79198,-0.2447 17.66887,4.10939 2.81225,2.51078 3.32192,3.7051 3.69924,8.6687 0.24069,3.1662 -0.0992,7.54838 -0.75525,9.73818 -1.14759,3.83032 -1.07751,4.08452 1.84641,6.69704 1.89892,1.69669 3.47369,4.44077 4.19704,7.31348 1.94995,7.74393 1.55001,9.5834 -3.09224,14.22251 -3.40266,3.40036 -5.39293,4.4841 -9.98256,5.4357 -3.15291,0.65372 -6.016,1.64718 -6.36242,2.2077 -0.34642,0.56052 0.68969,2.44275 2.30247,4.18273 6.32539,6.82428 7.34845,10.32117 5.24037,17.91199 -1.26125,4.54152 -4.94952,6.7516 -11.26736,6.7516 -4.2845,0 -4.43627,0.10757 -4.99312,3.539 -0.77237,4.75956 -7.24713,13.37911 -11.33214,15.08593 -7.25945,3.03319 -15.8547,0.52 -20.916,-6.1157 -1.47217,-1.93008 -3.05218,-3.50923 -3.51116,-3.50923 -0.45899,0 -1.72497,2.013 -2.81329,4.47333 -1.20315,2.71993 -3.27932,5.26625 -5.29679,6.49626 -3.96727,2.41876 -11.00001,2.64265 -15.31803,0.48766 z m 13.75787,-4.64087 c 1.63262,-1.16253 3.56469,-3.54081 4.29349,-5.28506 1.37637,-3.29412 3.25734,-23.86069 3.07729,-33.64712 l -0.10333,-5.61579 -6.0652,0.48685 c -6.94287,0.55731 -12.7927,-1.75877 -17.69373,-7.00534 l -2.7836,-2.97986 -5.6724,4.36497 c -9.96365,7.66715 -15.94063,13.658 -20.29647,20.34361 -3.57805,5.4918 -4.32538,7.53238 -4.76518,13.01135 l -0.5216,6.49805 3.81369,1.59347 c 4.18071,1.74681 5.08144,1.66794 17.33833,-1.51821 4.60854,-1.19798 8.88354,-1.98384 9.5,-1.74636 0.61646,0.23749 1.70947,2.43361 2.42891,4.88027 0.71944,2.44666 2.46924,5.70075 3.88845,7.2313 2.26756,2.44547 3.06606,2.70517 6.58666,2.1422 2.20345,-0.35235 5.34206,-1.59179 6.97469,-2.75433 z m -8.18697,-17.64522 c -1.23185,-2.97393 -1.26524,-2.77682 3.12098,-18.42116 0.57827,-2.0625 1.44666,-3.75 1.92976,-3.75 1.20373,0 1.16343,0.31757 -1.2321,9.70942 -1.16854,4.58131 -1.83001,9.39163 -1.48208,10.77789 0.88266,3.5168 0.86412,3.92216 -0.19553,4.27538 -0.51594,0.17198 -1.4794,-0.99421 -2.14103,-2.59153 z m -19.0709,-6.44937 c 0,-2.59354 5.86681,-14.96994 8.86765,-18.70685 3.80434,-4.7375 3.17098,-1.24557 -1.33733,7.37318 -2.49168,4.76345 -4.53032,9.77481 -4.53032,11.13635 0,1.5338 -0.57062,2.47553 -1.5,2.47553 -0.89439,0 -1.5,-0.9198 -1.5,-2.27821 z m 60.39671,22.34205 c 4.97341,-3.07374 7.69453,-7.54776 8.32891,-13.69427 l 0.56738,-5.49738 6.20204,0.66418 c 5.92593,0.63461 6.29783,0.54241 8.3535,-2.07095 3.00538,-3.82072 2.74435,-8.34688 -0.7604,-13.18505 -4.83721,-6.67757 -10.67348,-9.94214 -19.22036,-10.75105 -4.05228,-0.38353 -10.95394,-1.30011 -15.33703,-2.03684 -4.38308,-0.73673 -8.31833,-1.12376 -8.745,-0.86007 -0.42666,0.2637 -0.73353,1.91678 -0.68193,3.67352 0.0516,1.75674 -0.39771,9.12916 -0.99848,16.38316 l -1.09232,13.18908 3.87104,5.81092 c 3.98932,5.98845 6.50985,8.64323 9.11594,9.60147 3.11429,1.14511 7.37183,0.64275 10.39671,-1.22672 z m -9.28567,-17.9528 c -2.46295,-2.46295 -8.69428,-13.83683 -9.51147,-17.36104 -0.95762,-4.1298 1.064,-3.30875 2.46225,1 1.9066,5.87529 8.0233,14.45586 11.14486,15.63411 1.53632,0.5799 2.79332,1.40571 2.79332,1.83513 0,1.54915 -5.04283,0.73793 -6.88896,-1.1082 z m 10.7325,-13.44165 c -5.37787,-3.19071 -15.62362,-10.50453 -16.34054,-11.66454 -1.08745,-1.75953 1.90369,-1.03678 4.497,1.08661 6.2925,5.15227 14.52722,9.90854 17.15504,9.90854 1.86219,0 2.84496,0.51816 2.84496,1.5 0,2.13945 -3.80326,1.75215 -8.15646,-0.83061 z m -88.02352,4.08061 c 1.3147,-1.2375 5.15552,-5.11557 8.53517,-8.61793 3.37964,-3.50236 9.65152,-9.29472 13.93751,-12.8719 4.28598,-3.57719 7.62954,-6.99346 7.43012,-7.59172 -0.19942,-0.59825 -4.38114,-1.8776 -9.2927,-2.84298 -6.25612,-1.22966 -11.95789,-3.26293 -19.04172,-6.79035 -10.97422,-5.46467 -16.04939,-6.29603 -21.43463,-3.51121 -3.03492,1.56941 -5.95377,6.94349 -5.95377,10.96185 0,3.51602 4.54999,7.32421 9.66787,8.09168 2.47016,0.37043 4.72981,1.29532 5.02145,2.05531 0.29163,0.76 -1.14389,3.23488 -3.19006,5.49975 -3.25196,3.59953 -3.64897,4.57425 -3.15368,7.74272 1.27305,8.14377 12.03588,12.994 17.47444,7.87478 z m -6.15335,-9.41667 c -0.36667,-0.36666 -0.66667,-1.01964 -0.66667,-1.45106 0,-1.63092 12.70818,-7.75361 17.5,-8.43135 2.75,-0.38895 4.775,-0.47611 4.5,-0.1937 -0.275,0.28242 -3.93657,1.93587 -8.13683,3.67434 -4.20025,1.73846 -8.43249,4.04005 -9.40498,5.11464 -1.87925,2.07655 -2.71753,2.36113 -3.79152,1.28713 z m 6.33333,-16.19605 c -8.07587,-2.2145 -11,-3.75342 -11,-5.7891 0,-1.83661 0.75396,-1.66603 10,2.26236 5.14092,2.18424 8.12032,2.77504 14.24941,2.82557 9.70647,0.08 9.84905,1.98025 0.1706,2.27372 -4.17735,0.12667 -9.4962,-0.49659 -13.42001,-1.57255 z m 53.92535,5.61272 c -0.34172,-2.63157 0.12791,-3.75 1.57465,-3.75 0.825,0 1.5,-0.81 1.5,-1.8 0,-0.99 0.54,-2.34 1.2,-3 1.19102,-1.19102 4.8,-1.69088 4.8,-0.66482 0,1.44108 -3.39802,5.46482 -4.61501,5.46482 -1.63316,0 -1.86015,2.5883 -0.31096,3.54575 1.66211,1.02724 5.83302,-3.50348 7.09121,-7.70295 0.92802,-3.09743 0.82857,-4.57049 -0.55275,-8.18742 -2.05393,-5.37814 -4.02702,-7.20805 -8.66605,-8.03718 -4.79677,-0.85732 -13.82593,3.61429 -15.91509,7.8818 -2.96269,6.05185 -0.97684,15.35951 2.63712,12.36018 1.34761,-1.11841 5.33153,-0.26044 5.33153,1.14819 0,0.48048 -0.45734,1.15625 -1.01631,1.50171 -1.85977,1.1494 0.0887,2.48992 3.61916,2.48992 2.20776,0 3.42534,-0.45808 3.3225,-1.25 z m -4.4792,-4.83713 c -0.36954,-0.59793 -0.2103,-1.54872 0.35385,-2.11287 1.26163,-1.26163 3.2,-0.19612 3.2,1.75902 0,1.68362 -2.57364,1.93987 -3.55385,0.35385 z m -5.44615,-5.41287 c 0,-0.83333 0.88889,-1.5 2,-1.5 1.11111,0 2,0.66667 2,1.5 0,0.83333 -0.88889,1.5 -2,1.5 -1.11111,0 -2,-0.66667 -2,-1.5 z m 6,-3 c 0,-0.83333 0.88889,-1.5 2,-1.5 1.11111,0 2,0.66667 2,1.5 0,0.83333 -0.88889,1.5 -2,1.5 -1.11111,0 -2,-0.66667 -2,-1.5 z m 5.25357,-2.17236 c -2.65502,-2.10873 -3.51802,-2.35305 -4.73727,-1.34117 -1.75669,1.45793 -4.5163,0.66583 -4.5163,-1.29632 0,-1.01777 1.35723,-1.31444 5.25,-1.14757 6.95207,0.29802 6.75,0.23942 6.75,1.95742 0,0.825 0.675,1.5 1.5,1.5 0.825,0 1.5,0.675 1.5,1.5 0,2.18287 -2.04806,1.76504 -5.74643,-1.17236 z m 56.83443,13.56007 c 3.40558,-0.73037 6.32861,-2.18968 8.51284,-4.25 3.251,-3.06658 3.30432,-3.25035 2.35212,-8.10647 -0.7024,-3.58213 -1.99575,-6.01483 -4.63452,-8.71717 -3.65278,-3.74079 -3.65745,-3.75682 -2.29703,-7.87896 0.74976,-2.27179 1.36321,-6.27785 1.36321,-8.90235 0,-3.9571 -0.4846,-5.22092 -2.83834,-7.40228 -2.79911,-2.59414 -5.52607,-3.11699 -14.04628,-2.69318 -3.96665,0.19731 -15.69607,5.99741 -22.20693,10.98115 -2.86381,2.19211 -6.57477,4.69298 -8.24657,5.5575 -4.01577,2.07664 -6.71376,8.11522 -4.65993,10.42979 1.90669,2.14877 3.60104,8.6504 3.60785,13.84426 0.003,2.3375 0.24955,4.25 0.54774,4.25 0.29819,0 3.78569,0.65654 7.75,1.45898 12.45453,2.52099 26.93115,3.1154 34.79584,1.42873 z m -22.588,-12.91406 c -5.42981,-1.09577 -9.91479,-2.8922 -9.1443,-3.66269 0.3482,-0.34819 3.02746,-0.0587 5.95392,0.64337 5.29428,1.27008 12.60308,1.0907 15.94038,-0.39122 1.20567,-0.53538 1.75,-0.33945 1.75,0.6299 0,3.65971 -5.20134,4.65716 -14.5,2.78064 z m -19.5,-7.88476 c 0,-3.10282 12.12179,-9.77574 23.99682,-13.21001 7.24897,-2.0964 8.00982,-2.20393 7.98787,-1.12888 -0.0449,2.1977 -2.30764,3.34545 -9.19252,4.66275 -8.16699,1.5626 -13.71044,3.96471 -18.553,8.03945 -3.22255,2.7116 -4.23917,3.10411 -4.23917,1.63669 z m -34.98894,5.89044 c 1.71222,-3.19931 1.05998,-3.70624 -11.51106,-8.94664 -1.65,-0.68782 -7.03338,-2.2767 -11.96306,-3.53083 -4.92969,-1.25413 -9.14999,-2.84102 -9.37847,-3.52644 -0.30573,-0.9172 0.52041,-1.07064 3.12926,-0.58122 5.50308,1.03238 21.68544,6.58362 26.9917,9.25929 l 4.77943,2.41003 4.02383,-3.28176 c 3.79378,-3.09412 3.9934,-3.52402 3.49147,-7.51888 -0.84271,-6.70712 -9.92088,-23.32647 -16.2014,-29.6598 -4.20673,-4.2421 -10.60384,-6.83796 -14.87605,-6.03648 -6.06417,1.13764 -8.95089,5.98908 -9.73684,16.36374 -0.24555,3.24135 -0.53534,3.49269 -5.25987,4.56207 -11.22651,2.54108 -14.02013,6.16183 -10.1195,13.11564 5.30758,9.46202 25.29564,18.66348 41.83432,19.25834 2.78975,0.10034 3.98411,-0.36958 4.79624,-1.88706 z m -0.51106,-13.54283 c -4.15087,-2.14626 -11.18301,-9.062 -14.62433,-14.38228 -3.35829,-5.19192 -3.51163,-6.05422 -1.07656,-6.05422 1.13684,0 2.24981,1.24637 3.02345,3.38585 2.48716,6.87811 13.40896,16.61415 18.6376,16.61415 0.84691,0 1.53984,0.45 1.53984,1 0,1.50088 -4.10378,1.19255 -7.5,-0.5635 z m 23.4419,-5.23632 c 2.20684,-5.76682 12.65945,-22.20018 14.12066,-22.20018 2.47944,0 1.53786,2.72097 -2.86152,8.26916 -8.78429,11.07813 -13.8899,24.15503 -6.69756,17.1543 3.29953,-3.21161 7.33436,-6.1537 18.154,-13.2374 5.25723,-3.44195 7.31479,-5.41616 7.75,-7.43606 1.63589,-7.59248 1.76893,-8.99614 1.1602,-12.24091 -0.6927,-3.6924 -4.39595,-6.50909 -8.55786,-6.50909 -2.93668,0 -9.78261,3.66332 -11.25656,6.02348 -1.72454,2.76143 -4.58379,2.49994 -5.33366,-0.48779 -0.34017,-1.35537 -2.58869,-4.28037 -4.99671,-6.5 -3.40233,-3.13616 -5.17047,-4.03569 -7.93267,-4.03569 -11.40258,0 -17.6047,9.88666 -11.82631,18.85208 0.83378,1.29364 1.32399,3.09364 1.08936,4 -0.23464,0.90636 0.38784,2.99792 1.38329,4.64792 0.99545,1.65 3.02294,5.5875 4.50554,8.75 1.48259,3.1625 3.06964,5.75 3.52676,5.75 0.45713,0 0.83114,-3.72985 0.83114,-8.28856 0,-6.31426 -0.47639,-9.22297 -2,-12.21144 -2.22525,-4.3647 -2.57594,-6.85865 -0.88518,-6.29506 4.3305,1.4435 7.26518,24.55792 3.58518,28.23792 -2.8323,2.8323 -2.06184,4.54013 1.7219,3.81682 1.80899,-0.34581 2.88604,-1.7897 4.52,-6.0595 z m 1186.54361,83.92554 c -5.6486,-4.59995 -8.1069,-7.9868 -10.4342,-14.37572 l -1.0018,-2.75 -10.2747,-0.009 c -5.6512,-0.005 -12.6373,-0.29246 -15.5248,-0.63929 -6.1904,-0.74356 -6.6654,0.24202 -2.3446,4.86524 1.598,1.70984 3.9171,5.26863 5.1535,7.90842 1.8539,3.95817 2.0243,5.06914 0.9721,6.33697 -1.8712,2.25467 -3.6424,1.9268 -10.5948,-1.96119 -7.1495,-3.99821 -10.5945,-7.67409 -13.4813,-14.3846 -1.4499,-3.37047 -2.8646,-5.02176 -4.9893,-5.82375 -3.1174,-1.17668 -3.9792,-3.96692 -1.5171,-4.91173 0.7967,-0.30572 5.264,0.3834 9.9272,1.53138 4.6633,1.14798 10.4824,2.08724 12.9313,2.08724 4.2564,0 4.6419,-0.25345 8.7442,-5.75 5.2851,-7.08119 8.4979,-10.05001 14.2386,-13.15738 5.6728,-3.07056 7.7216,-2.36954 7.6748,2.626 -0.046,4.86724 -1.4513,7.29613 -6.9311,11.97638 l -4.4551,3.805 6.4608,0.63312 c 3.5535,0.34821 10.997,0.68571 16.5413,0.75 l 10.0805,0.11719 3.0762,-4.28354 c 3.5464,-4.93827 12.0649,-13.41905 15.6853,-15.61577 2.252,-1.36644 2.6617,-1.33445 4.5268,0.35344 3.0895,2.79598 2.4058,6.98782 -2.2596,13.85345 -1.0494,1.54416 -1.7079,3.00757 -1.4634,3.25201 0.4441,0.44417 20.4935,-1.28706 24.2737,-2.09599 1.238,-0.26492 2.9387,-2.4351 4.4636,-5.69579 1.3549,-2.8973 4.454,-7.40531 6.8868,-10.01781 4.4569,-4.78606 7.5942,-5.90544 9.9496,-3.55 2.526,2.52597 0.892,10.35156 -3.0372,14.54606 -2.6909,2.87252 -1.6087,3.95196 2.5123,2.50615 1.7737,-0.62226 5.0249,-1.42645 7.2249,-1.78709 8.9112,-1.46078 23.5927,-4.54987 26.0321,-5.47734 4.2673,-1.62242 7.4679,-1.24682 7.4679,0.87636 0,2.30566 -6.0726,4.72907 -14.2632,5.69203 -5.5858,0.65671 -8.5737,2.37589 -5.6639,3.25878 0.7849,0.23815 3.7992,2.9446 6.6985,6.01433 5.2872,5.59811 8.0636,11.55245 6.8551,14.70172 -1.6906,4.40545 -14.4958,-3.5682 -21.7939,-13.57077 -2.7931,-3.82813 -5.4436,-6.96023 -5.8901,-6.96023 -0.4465,0 -3.8787,0.64375 -7.6271,1.43055 -3.7485,0.7868 -10.7652,1.74968 -15.5927,2.13974 -4.8276,0.39005 -9.0271,1.11318 -9.3322,1.60696 -0.3052,0.49377 1.4749,2.98597 3.9557,5.53822 8.947,9.20466 9.6464,16.08339 1.5244,14.994 -5.2137,-0.69931 -10.2396,-5.07462 -14.9929,-13.05206 -3.8874,-6.5243 -4.2236,-6.81757 -7.2274,-6.30464 -1.7326,0.29588 -9.5628,0.84523 -17.4003,1.22078 -7.8375,0.37555 -14.25,0.83462 -14.25,1.02015 0,0.18554 1.3528,1.72124 3.0062,3.41267 1.6534,1.69142 4.4019,5.84006 6.1077,9.21918 2.9379,5.81998 3.0065,6.21321 1.3026,7.45916 -3.0972,2.26474 -5.752,1.47282 -11.931,-3.55899 z m 7.5145,-1.22135 c 0,-2.66445 -9.7897,-13.90437 -12.1104,-13.90437 -2.8067,0 0.9649,6.86364 6.2642,11.39963 4.3666,3.73765 5.8462,4.37158 5.8462,2.50474 z m -46,-2.53634 c 0,-3.28339 -10.1042,-13.36803 -13.3939,-13.36803 -2.0953,0 -2.03,0.5781 0.5346,4.72758 3.1475,5.09281 12.8593,11.61837 12.8593,8.64045 z m 93.0041,-3.51067 c -1.2489,-2.49235 -8.8832,-9.85736 -10.2179,-9.85736 -2.0953,0 1.2977,5.93007 6.1954,10.82773 3.6653,3.66534 6.0563,3.08856 4.0225,-0.97037 z m 49.9959,-3.62952 c 0,-1.57131 -6.2749,-8.31863 -9.09,-9.77438 -4.7579,-2.46041 -3.7528,1.0203 1.7834,6.17583 4.3226,4.02538 7.3066,5.49503 7.3066,3.59855 z m -123.6748,-20.16598 c 5.4197,-5.99903 5.0032,-7.66402 -0.9906,-3.95966 -3.1252,1.93153 -8.3346,8.27904 -8.3346,10.15561 0,1.58606 5.7404,-2.22806 9.3252,-6.19595 z m 45.3481,4.55259 c 2.9068,-2.45312 5.7266,-8.24926 4.4093,-9.06338 -1.1281,-0.6972 -7.3513,4.82957 -9.3891,8.33839 -1.7665,3.04162 -1.7627,3.11054 0.1732,3.11054 1.0889,0 3.2519,-1.0735 4.8066,-2.38555 z m 42.6733,-6.16259 c 3.2884,-3.19364 4.9167,-7.45186 2.8496,-7.45186 -1.3639,0 -6.9369,6.37167 -7.6533,8.75 -0.9668,3.21004 0.5969,2.78746 4.8037,-1.29814 z m 600.5267,7.5115 c -3.8953,-4.14902 -5.0498,-6.29067 -6.551,-12.15243 -1.6691,-6.51775 -2.1165,-7.23962 -5.3223,-8.58912 -4.4189,-1.86016 -16.4308,-5.22181 -18.6586,-5.22181 -0.9262,0 -2.3944,-0.60519 -3.2627,-1.34488 -1.8902,-1.61026 -10.1484,-4.91873 -10.7574,-4.30975 -0.236,0.23599 0.4935,1.94232 1.6211,3.79185 1.1276,1.84953 2.0518,4.57099 2.0539,6.04768 0,1.4767 0.4368,3.82398 0.9661,5.21618 0.7227,1.90085 0.591,2.9027 -0.5289,4.02261 -1.915,1.91499 -4.0517,1.12657 -8.5757,-3.16441 -3.6897,-3.49967 -5.1661,-6.2305 -8.8673,-16.40093 -2.202,-6.05081 -3.6807,-7.13801 -11.4905,-8.44812 -2.2,-0.36906 -4.45,-0.99567 -5,-1.39249 -0.55,-0.39681 -3.475,-1.51984 -6.5,-2.49562 -3.025,-0.97578 -6.5337,-2.16744 -7.7971,-2.64813 -4.7706,-1.81517 -5.3752,-1.09151 -2.5963,3.10771 1.4492,2.18993 2.8616,5.99231 3.1386,8.44973 0.4704,4.17415 0.3297,4.51167 -2.1402,5.13158 -3.3139,0.83174 -7.6231,-0.90735 -10.8669,-4.38567 -2.8628,-3.0698 -7.6469,-10.39051 -9.4281,-14.42734 -0.7377,-1.67172 -1.9934,-2.75 -3.2027,-2.75 -2.6971,0 -3.6654,-1.87044 -1.8883,-3.64754 2.0496,-2.04961 14.6439,-0.36648 26.8879,3.59335 l 9.3931,3.03782 5.0232,-5.24182 c 6.2998,-6.57385 8.8534,-8.58338 13.2323,-10.41299 4.5037,-1.88177 5.9869,-1.21898 6.7843,3.03168 0.9018,4.80689 0.088,6.69911 -5.0554,11.75018 -2.4582,2.41412 -4.4727,4.65527 -4.4769,4.98033 -0.011,0.88774 26.2371,10.90899 28.5736,10.90899 0.8581,0 3.6658,-1.77326 6.2395,-3.94058 5.1209,-4.31241 12.4192,-8.003 15.8942,-8.03746 3.0208,-0.03 4.7173,3.27656 3.1954,6.22804 -1.7255,3.34649 -5.0553,6.7554 -8.1929,8.3876 -1.5305,0.79617 -2.5401,1.84006 -2.2436,2.31977 1.1545,1.86815 23.4824,7.93269 33.5263,9.10621 5.775,0.67475 10.9084,1.5924 11.4076,2.03923 0.5323,0.47647 0.3421,1.49384 -0.4599,2.46022 -1.3632,1.64254 -6.485,1.57903 -16.655,-0.20649 l -3.2073,-0.5631 3.4573,7.01782 c 4.1204,8.36388 4.5043,12.67489 1.2073,13.55845 -3.6684,0.9831 -3.9464,0.84513 -8.8767,-4.40635 z m 5.6719,-3.71336 c -0.7711,-3.15742 -5.3942,-10.25 -6.6812,-10.25 -1.7384,0 -0.7901,3.72491 2.114,8.30422 3.3548,5.29009 5.6196,6.25493 4.5672,1.94578 z m -50.1546,-17 c -1.1802,-5.01214 -7.47,-13.50398 -8.9247,-12.04922 -0.7081,0.70812 1.1316,5.39836 4.1379,10.54922 2.8833,4.94013 5.813,5.85818 4.7868,1.5 z m 22.3946,-12.93749 c 1.4931,-0.92812 3.7664,-2.84062 5.0517,-4.25 4.7063,-5.16071 -2.2613,-3.29733 -8.5869,2.29642 -4.1624,3.6809 -1.5586,5.1198 3.5352,1.95358 z m -70.7889,-3.06251 c -0.01,-3.20002 -3.8657,-8.1427 -8.0062,-10.25507 l -4.0884,-2.08574 1.6862,3.29541 c 4.1549,8.12031 10.418,13.56324 10.4084,9.0454 z m 28.4845,-14.11268 c 4.7985,-3.26117 7.5261,-7.53043 5.8695,-9.18707 -1.6347,-1.63464 -6.0749,0.94243 -11.1958,6.49793 -6.4644,7.01304 -3.3498,8.58553 5.3263,2.68914 z M 709.93858,206.56708 c -5.94801,-1.85741 -10.97484,-5.49462 -12.12267,-8.77147 -0.5298,-1.5125 -1.32419,-2.74419 -1.7653,-2.7371 -1.40848,0.0227 -13.2918,3.91126 -15.39923,5.03912 -2.2293,1.19309 -4.90279,-0.21219 -4.90279,-2.57706 0,-1.24168 8.59556,-4.27498 18.13421,-6.39941 2.54882,-0.56767 7.84129,-2.22088 11.76106,-3.6738 5.98112,-2.21699 7.20801,-3.06448 7.63172,-5.27171 1.62794,-8.48041 2.94496,-12.0654 6.26712,-17.0593 2.03824,-3.06391 4.38089,-5.57074 5.20589,-5.57074 2.82341,0 5.13903,6.4503 4.75667,13.25 -0.1933,3.4375 0.0253,6.25 0.48577,6.25 0.46048,0 2.60138,-0.9 4.75756,-2 2.15618,-1.1 4.50075,-1.99783 5.21016,-1.99518 0.70941,0.003 4.50797,-1.16645 8.44125,-2.59799 l 7.15141,-2.60281 0.36518,-8.15201 c 0.3318,-7.40683 0.70532,-8.67762 4.08617,-13.90201 2.04654,-3.1625 4.33183,-5.75 5.07842,-5.75 4.92892,0 7.12049,10.54856 3.79162,18.25 -2.40075,5.55421 -1.55545,6.03097 4.87579,2.75 2.15618,-1.1 4.58546,-2 5.39841,-2 0.81295,0 5.0047,-1.13751 9.31499,-2.52779 7.80445,-2.51732 7.84397,-2.54769 9.54315,-7.33183 2.09748,-5.90559 7.86908,-13.63687 11.63352,-15.58354 7.07064,-3.65636 10.28918,2.79004 5.75572,11.52809 -3.2874,6.33632 -2.49383,6.75882 9.28089,4.94122 4.71532,-0.72788 10.59832,-1.59403 13.07332,-1.92478 4.18714,-0.55956 4.56339,-0.85792 5.41175,-4.29154 1.07933,-4.36842 10.98674,-17.61488 14.75775,-19.73149 2.28504,-1.28256 2.86978,-1.29063 4.35248,-0.0601 1.41912,1.17777 1.63264,2.67078 1.24524,8.70735 -0.31009,4.83184 -1.02327,7.89986 -2.1174,9.10886 -2.6768,2.95783 -1.98054,3.42985 4.38044,2.96974 6.41564,-0.46406 8.75291,0.71252 7.56498,3.80822 -0.48188,1.25576 -1.49952,1.51586 -4.36188,1.11485 -7.30812,-1.02386 -33.23336,2.39265 -33.23336,4.37959 0,0.49123 0.38942,0.89315 0.86538,0.89315 0.47596,0 3.17701,1.88043 6.00234,4.17874 5.74427,4.67274 8.22797,10.15414 5.73198,12.65013 -1.13568,1.13569 -2.35835,1.15368 -7.2332,0.10648 -6.90079,-1.48242 -8.07613,-2.37308 -13.89824,-10.53203 -2.66872,-3.73988 -5.37724,-6.41464 -6.87668,-6.79098 -3.24189,-0.81366 -15.96394,1.00474 -16.41091,2.34566 -0.19104,0.5731 -1.99734,1.09524 -4.014,1.16031 -8.24477,0.26604 -13.00289,2.84673 -8.11117,4.3993 4.98726,1.5829 14.41131,12.10232 13.34096,14.89161 -0.83886,2.18604 -11.33549,2.17403 -15.69612,-0.018 -4.0731,-2.04742 -11.70034,-9.36445 -11.70034,-11.22443 0,-2.00832 -5.00952,-0.88109 -12.62271,2.84035 -3.3675,1.64607 -7.1925,2.99975 -8.5,3.00817 -5.2667,0.0339 -5.16931,1.62738 0.29192,4.77609 2.93194,1.69043 6.62602,4.14257 8.20907,5.44921 2.62884,2.16981 2.75884,2.56887 1.5,4.60468 -1.87005,3.02427 -4.85466,3.59497 -11.11062,2.1245 -8.4744,-1.99192 -15.76766,-6.45275 -15.76766,-9.6441 0,-0.72913 -0.21473,-1.32569 -0.47717,-1.32569 -0.51976,0 -12.78778,4.49403 -16.02283,5.86949 -1.1,0.46769 -4.5875,1.66148 -7.75,2.65285 -5.60371,1.75665 -7.52277,3.44199 -4,3.51287 3.0204,0.0608 14.73351,6.56936 15.08765,8.38371 0.494,2.53086 -2.4607,5.28778 -6.47403,6.04069 -1.92811,0.36171 -4.03619,0.82644 -4.68463,1.03272 -0.64845,0.20628 -3.11849,-0.23061 -5.489,-0.97086 z m 9.59968,-5.64342 c 0.20768,-1.09488 -1.01457,-2.151 -3.76124,-3.25 -6.1354,-2.4549 -12.02843,-1.9767 -12.02843,0.97607 0,3.6917 15.10803,5.86747 15.78967,2.27393 z m 40.68698,-13.84026 c 0.93657,-1.51542 -6.5248,-5.87879 -11.35968,-6.64308 -5.15231,-0.81448 -5.41569,0.9309 -0.54978,3.64327 6.0877,3.39343 10.91474,4.60929 11.90946,2.99981 z m -36.76182,-8.9426 c 2.3471,-3.48286 3.14208,-10.44756 1.32099,-11.57305 -1.46168,-0.90337 -6.19994,7.28259 -6.79852,11.74533 -0.4615,3.4407 -0.2941,3.89012 1.33228,3.57691 1.02304,-0.19703 2.88841,-1.88416 4.14525,-3.74919 z m 75.69533,-1.94983 c 1.20464,-1.94915 -10.8249,-10.14536 -14.89029,-10.14536 -3.03846,0 -3.15473,0.92318 -0.53562,4.25284 3.53315,4.49168 13.8549,8.43447 15.42591,5.89252 z m 44.58984,-8.2291 c 0,-2.21503 -13.25035,-10.99925 -14.58235,-9.66725 -0.98756,0.98757 5.94415,8.99966 8.83929,10.21698 3.14845,1.32382 5.74306,1.07547 5.74306,-0.54973 z m -79.46376,-8.16626 c 2.75398,-5.91533 3.22754,-10.75 1.05297,-10.75 -1.49422,0 -5.31709,7.1265 -5.63252,10.5 -0.66808,7.14518 1.31888,7.25365 4.57955,0.25 z m 44.09534,-10.11842 c 4.34995,-4.34996 6.02549,-9.63158 3.05551,-9.63158 -1.71518,0 -6.03029,4.65047 -8.07293,8.70034 -3.38338,6.70811 -1.17022,7.11888 5.01742,0.93124 z m 47.96842,-8.03158 c 3.53873,-3.53873 4.85648,-9.6 2.08709,-9.6 -1.64159,0 -5.66591,4.32371 -8.60949,9.25 l -2.24072,3.75 h 2.68156 c 1.71628,0 3.90545,-1.22389 6.08156,-3.4 z m 1030.90001,53.49756 c -10.6706,-4.95788 -17.8568,-15.52466 -17.3914,-25.57277 l 0.2614,-5.64269 -5.1791,-2.95792 c -6.5089,-3.71739 -10.4382,-10.86161 -12.1368,-22.067 -1.2211,-8.05568 -0.852,-11.19594 1.9814,-16.85718 2.4594,-4.91398 4.6142,-6.52354 11.2902,-8.43333 6.6244,-1.89503 12.666,-1.4271 19.4696,1.50795 4.7104,2.03206 4.6649,2.06795 5.5682,-4.39632 0.6404,-4.58298 5.4089,-10.38831 11.2168,-13.655674 3.5163,-1.97816 4.8987,-2.20002 10,-1.60493 9.8892,1.15359 15.679,3.21623 19.0643,6.791794 4.7139,4.97888 5.3554,6.91994 5.3554,16.20572 0,8.52202 0.01,8.54829 2.75,9.10342 9.688,1.96133 14.1327,8.01026 14.9811,20.3884 0.7103,10.36319 -1.1592,15.3162 -8.3467,22.11388 l -5.3637,5.07277 -7.3822,-0.40053 -7.3821,-0.40053 -2.3782,4.51758 c -1.308,2.48466 -3.117,5.90632 -4.0201,7.60369 -2.3193,4.35942 -4.568,6.12026 -10.8581,8.50228 -6.9849,2.64514 -16.0331,2.72148 -21.5,0.18139 z m 13.3694,-2.99569 c 1.04,-0.65879 0.4522,-1.49077 -2.4432,-3.45819 -2.0969,-1.42489 -3.9525,-2.45067 -4.1237,-2.27952 -0.1711,0.17115 0.3987,1.73423 1.2664,3.47351 1.6169,3.24121 2.8958,3.78752 5.3005,2.2642 z m -14.3694,-4.67831 c -4.9328,-4.31783 -7.5,-5.85973 -7.5,-4.50455 0,1.22599 8.8761,8.09496 10.3938,8.04344 0.6084,-0.0206 -0.6938,-1.61315 -2.8938,-3.53889 z m 27.2923,-0.17356 c 3.856,-5.4986 8.2035,-14.81714 8.2056,-17.58826 0,-1.56104 -1.3218,-5.69846 -2.9398,-9.19428 -2.1671,-4.68204 -3.8132,-6.80646 -6.25,-8.06627 -3.0456,-1.57455 -3.198,-1.57749 -1.9201,-0.037 1.1915,1.43634 1.1632,1.92167 -0.1994,3.42737 -1.0845,1.19839 -1.2915,2.22204 -0.6533,3.23124 1.476,2.33419 1.1498,5.97716 -0.5353,5.97716 -1.9833,0 -1.8985,0.54201 0.6178,3.94542 1.9756,2.6722 1.9191,5.05458 -0.1199,5.05458 -0.4863,0 -3.8347,-2.50318 -7.441,-5.56262 -3.6063,-3.05945 -6.5569,-5.18756 -6.5569,-4.72915 0,0.45841 4.05,4.8647 9,9.79177 4.95,4.92707 9,9.53018 9,10.22915 0,2.48125 -3.298,1.19859 -11.1551,-4.33845 -4.3778,-3.08512 -8.1585,-5.41042 -8.4016,-5.16734 -0.8109,0.81093 14.0307,15.61088 15.7386,15.6944 0.9251,0.0452 2.5497,-1.15526 3.6104,-2.66776 z m -14.7923,-3.05207 c 0,-1.52497 -19.9082,-21.19793 -21.4514,-21.19793 -3.6793,0 -0.6813,4.11261 9.281,12.7315 10.2691,8.8843 12.1704,10.20697 12.1704,8.46643 z m -22.9218,-11.51975 c -1.2913,-1.29125 -1.4269,0.53332 -0.3213,4.32182 l 0.7296,2.5 0.3349,-2.87182 c 0.1842,-1.5795 -0.1502,-3.357 -0.7432,-3.95 z m 27.297,3.07182 c -0.4086,-0.6875 -2.6092,-3.275 -4.8902,-5.75 -2.2811,-2.475 -6.2074,-6.73855 -8.7251,-9.47456 l -4.5777,-4.97457 -3.2433,1.53599 -3.2433,1.53599 3.4022,2.015 c 1.8712,1.10825 6.3272,4.481 9.9022,7.495 6.1629,5.19576 11.0409,8.86715 11.7815,8.86715 0.1851,0 0,-0.5625 -0.4063,-1.25 z m 41.1861,-10.2613 c 3.8389,-4.12229 7.0681,-11.52592 5.6471,-12.94695 -0.3049,-0.30496 -2.0625,2.12152 -3.9057,5.3922 -1.9133,3.39513 -4.2862,6.24344 -5.5303,6.6383 -4.5523,1.44483 -6.4545,5.42775 -2.5923,5.42775 1.2972,0 3.8816,-1.82711 6.3812,-4.5113 z m -12.2187,-2.97827 c 2.1135,-3.55005 3.6667,-6.98261 3.4516,-7.62792 -0.4873,-1.46182 -9.7942,9.28421 -9.7942,11.30864 0,1.52191 0.8927,2.82205 1.9167,2.79138 0.3208,-0.01 2.3125,-2.92205 4.4259,-6.4721 z m -34.3975,-4.58747 c -2.5585,-3.59321 -1.51,-5.83082 1.8818,-4.0156 2.4808,1.3277 3.1731,1.36994 3.1731,0.19361 0,-0.49447 -1.7975,-1.83595 -3.9945,-2.98108 -3.2993,-1.7197 -4.4305,-1.88337 -6.5,-0.94045 -3.448,1.57104 -3.1715,2.68079 1.7445,7.00065 5.1922,4.56257 6.6193,4.84947 3.6951,0.74287 z m 45.6798,-5.67296 c 1.928,-3.19438 3.1901,-4.25 5.0814,-4.25 2.3616,0 2.4746,-0.23049 1.838,-3.75 -1.6246,-8.98192 -7.0649,-14.27949 -11.6949,-11.38804 -1.0022,0.62592 -2.5334,1.13804 -3.4026,1.13804 -1.9425,0 -12.4468,8.92391 -12.4468,10.57415 0,0.65598 1.2326,1.42832 2.739,1.7163 2.1931,0.41922 3.5984,-0.26853 7.05,-3.4501 4.7344,-4.36402 6.8102,-4.52319 6.5254,-0.50035 l -0.1857,2.62157 2.6754,-2.48079 c 1.4715,-1.36443 2.9694,-2.48078 3.3287,-2.48078 1.7586,0 1.4431,3.08966 -0.6734,6.59447 -3.7178,6.1566 -7.4615,13.26541 -7.4372,14.12229 0.031,1.10057 3.5569,-3.42038 6.6027,-8.46676 z m -15.3443,3.11713 c 1.7706,-1.99808 3.5793,-4.24808 4.0191,-5 1.3726,-2.34654 -1.2489,-1.52495 -3.752,1.17588 -1.8206,1.96452 -2.9472,2.39483 -4.9522,1.89159 -2.9125,-0.73099 -2.9867,-0.59368 -1.6203,3.0003 1.3072,3.43818 2.4896,3.23796 6.3054,-1.06777 z m -52.654,1.16356 c 0.3101,-0.80811 3.6735,-3.38817 7.4741,-5.73346 6.9312,-4.27705 7.6158,-5.31192 4.7214,-7.13763 -1.1324,-0.71431 -2.3726,-0.40381 -4.5339,1.13515 -2.328,1.65772 -3.242,1.85602 -4.2026,0.91184 -0.9617,-0.9453 -1.6576,-0.68021 -3.2132,1.22416 -1.5518,1.89954 -3.066,2.47929 -6.9291,2.65285 -5.8175,0.26138 -5.8821,0.054 -2.9673,-9.5319 2.2208,-7.30345 1.9372,-8.92376 -0.6948,-3.97023 -0.9796,1.84379 -2.9819,4.52589 -4.4494,5.96023 l -2.6682,2.60788 1.8665,4.16898 c 2.8869,6.44801 6.1486,9.18144 10.9558,9.18144 2.6635,0 4.2723,-0.50937 4.6407,-1.46931 z m 42.7484,-7.32844 c 0.8986,-1.45397 -1.006,-3.28107 -2.7305,-2.61934 -1.3171,0.50542 -1.4393,0.9594 -0.5476,2.03387 1.2887,1.55272 2.542,1.77656 3.2781,0.58547 z m -19.7882,-10.8135 c 0.7741,-4.12626 -0.9772,-8.56863 -5.7573,-14.60405 -3.6719,-4.63615 -5.3829,-4.76328 -7.1967,-0.5347 -0.7667,1.7875 -3.0227,5.92353 -5.0134,9.19117 -1.9907,3.26765 -3.6194,6.38359 -3.6194,6.92432 0,1.61493 4.6009,-3.20922 6.5987,-6.91888 1.1052,-2.05229 2.6182,-3.44661 3.74,-3.44661 1.6024,0 1.7882,0.51016 1.2434,3.41401 -0.5501,2.93214 -0.3893,3.35445 1.1387,2.99202 1.1714,-0.27782 2.6333,0.76707 4.2792,3.05846 1.375,1.91425 2.8171,3.49284 3.2047,3.50798 0.3876,0.0151 1.0095,-1.59753 1.3821,-3.58372 z m 20.2599,1.18893 c 5.2057,-2.63794 12.5361,-10.00466 11.8385,-11.89716 -0.2394,-0.64929 -0.9926,-1.05096 -1.6739,-0.89262 -0.6813,0.15835 -3.6193,-0.40415 -6.5289,-1.25 -7.6882,-2.235 -9.7444,-1.93894 -5.0601,0.72855 5.9944,3.41357 5.9375,5.11866 -0.1515,4.53359 l -4.989,-0.47938 0.4883,4.3316 c 0.3019,2.67888 0.011,4.907 -0.7634,5.83967 -1.9603,2.36207 1.211,1.93818 6.84,-0.91425 z m -12.0271,-1.74935 c -0.4044,-2.7481 -2.8196,-3.67178 -2.8196,-1.07833 0,2.07546 0.8082,3.25 2.2362,3.25 0.4966,0 0.7591,-0.97725 0.5834,-2.17167 z m -46.6701,-2.29508 c 0.4173,-1.56003 0.3293,-3.63863 -0.1954,-4.6191 -1.2827,-2.39661 -1.3522,-2.20093 2.0459,-5.75673 2.789,-2.91842 3.9829,-6.17749 2.25,-6.14211 -3.2455,0.0663 -7.25,8.36702 -7.25,15.02819 0,5.63949 1.8107,6.49596 3.1495,1.48975 z m 17.3287,-6.95443 c 3.1451,-5.1984 5.4226,-9.93025 5.0611,-10.51522 -0.3615,-0.58498 -2.0111,-1.0636 -3.6657,-1.0636 -2.4771,0 -2.9042,0.32826 -2.4184,1.85871 0.3374,1.06323 -0.9177,5.38092 -2.9327,10.08862 -5.8365,13.63618 -4.4387,13.50595 3.9557,-0.36851 z m 29.5218,2.00455 c 0,-0.65085 -0.5209,-1.7043 -1.1576,-2.34099 -0.8768,-0.87682 -0.8726,-1.50106 0.017,-2.57353 0.9407,-1.13347 0.6516,-1.75893 -1.4493,-3.13548 -3.2033,-2.09885 -2.2073,-3.29701 3.0894,-3.71654 l 4,-0.31683 -5.5,-1.86782 c -10.3031,-3.49898 -10.2263,-6.91876 0.1056,-4.70295 6.6088,1.41733 7.2974,0.77201 1.5276,-1.43152 -2.4686,-0.94276 -5.3745,-2.53968 -6.4576,-3.5487 -1.8973,-1.76766 -2.0287,-1.76877 -3.6019,-0.0305 -1.0135,1.11991 -1.7558,4.03735 -1.9574,7.69279 -0.2962,5.36978 -0.042,6.24117 2.8862,9.88869 1.7661,2.2 3.5161,4.96628 3.8891,6.14728 0.4808,1.52294 1.2494,1.99786 2.6432,1.63337 1.0809,-0.28265 1.9652,-1.04643 1.9652,-1.69728 z m -36.0203,-8.54353 c 2.4071,-4.71844 2.5479,-6.17953 0.5203,-5.40147 -0.825,0.31659 -1.5,1.6259 -1.5,2.9096 0,1.2837 -0.45,2.61211 -1,2.95203 -0.999,0.61744 -1.4276,3.5 -0.5203,3.5 0.2638,0 1.3888,-1.78207 2.5,-3.96016 z m 61.8142,-4.1691 0.294,-5.47126 -3.794,-0.0727 c -2.0866,-0.04 -6.0439,-0.75074 -8.7939,-1.57948 -2.75,-0.82874 -5.4048,-1.26774 -5.8997,-0.97555 -1.1243,0.66391 4.5115,3.59373 10.1497,5.27642 3.0024,0.89606 4.25,1.80901 4.25,3.1101 0,2.24214 -0.6663,2.27078 -6.5283,0.28057 -8.2105,-2.78751 -8.1806,-1.00707 0.038,2.28614 4.3945,1.76081 8.44,3.06996 8.99,2.90923 0.55,-0.16073 1.1323,-2.7543 1.2939,-5.76349 z m -2.5138,-11.72437 c -2.78,-3.76172 -8.1446,-6.02731 -15.9908,-6.753284 -5.9804,-0.55334 -7.2603,-0.34985 -10.7424,1.707964 l -3.9531,2.33615 3.4531,0.84386 c 10.1283,2.47515 10.3515,2.47609 12.4531,0.0526 l 2,-2.30628 6.9848,4.53201 c 7.1867,4.66308 9.4285,4.5033 5.7953,-0.41305 z m 389.0346,89.38997 c -1.7519,-0.76195 -3.9009,-2.76934 -4.7757,-4.46086 -1.8174,-3.51446 -3.8386,-3.83456 -9.3211,-1.47621 -5.7962,2.49325 -9.1162,3.40121 -17.4854,4.78193 -6.4779,1.06868 -7.9544,1.05639 -8.8925,-0.074 -1.5284,-1.84153 -0.5029,-2.63083 4.9463,-3.80716 4.0218,-0.86819 4.715,-1.39542 5.259,-4 0.3446,-1.65 1.6002,-4.89405 2.7901,-7.20899 2.2487,-4.37495 9.3671,-12.29101 11.0524,-12.29101 3.6868,0 6.7846,10.92756 3.9122,13.8 -4.5442,4.54419 11.1248,1.36432 20.5792,-4.17636 2.4623,-1.443 4.7343,-2.62364 5.0489,-2.62364 0.3145,0 0.5719,1.27777 0.5719,2.83948 0,2.12685 -0.6898,3.1538 -2.7486,4.09182 l -2.7485,1.25233 2.7485,1.44012 c 2.4772,1.29795 2.7486,1.9694 2.7486,6.8012 0,3.96611 -0.4116,5.51901 -1.5818,5.96806 -2.681,1.02879 -8.7572,0.59872 -12.1035,-0.85667 z m 11.1853,-5.47277 c 0,-0.7907 -1.5098,-1.82767 -3.3586,-2.30673 -2.6242,-0.68001 -3.7669,-0.5007 -5.2264,0.82008 -2.7196,2.46125 -1.3738,3.56662 3.9256,3.22417 3.2436,-0.2096 4.6594,-0.73755 4.6594,-1.73752 z m -30.7976,-6.25974 c 2.4198,-2.34535 3.2976,-4.07564 3.2976,-6.5 0,-2.17212 -0.4817,-3.30383 -1.4062,-3.30383 -2.0025,0 -8.6786,9.61546 -7.9658,11.47303 0.8796,2.29203 2.4258,1.86713 6.0744,-1.6692 z m -1200.2024,-2.48529 c -8.4583,-4.51502 -14.4176,-11.93768 -14.478,-18.03336 -0.03,-2.99537 -2.1842,-3.90978 -11.022,-4.67799 -4.125,-0.35856 -11.6232,-1.14247 -16.6626,-1.74203 -5.0394,-0.59956 -9.6363,-0.92699 -10.2154,-0.72763 -0.579,0.19936 0.9566,3.71695 3.4126,7.81686 4.9014,8.18221 5.4389,10.55777 2.5594,11.31079 -5.1018,1.33414 -13.1588,-5.47239 -19.3817,-16.37367 -2.3996,-4.20358 -3.042,-4.66485 -7.3111,-5.25 -7.1653,-0.98211 -30.40122,-0.76676 -30.40122,0.28176 0,0.50781 1.03,2.19531 2.2889,3.75 4.86672,6.01007 5.98632,11.5739 2.68472,13.34087 -1.63372,0.87433 -3.03882,0.54198 -7.25002,-1.71481 -5.1405,-2.75478 -7.2516,-5.64297 -11.2236,-15.35434 -0.9646,-2.35844 -1.5297,-2.48664 -15.9643,-3.62154 -8.2304,-0.64711 -15.3258,-0.95315 -15.7676,-0.6801 -0.4418,0.27304 1.2296,2.87601 3.7143,5.78436 5.0012,5.85397 5.5357,7.95708 2.4428,9.61236 -5.8251,3.11747 -14.833,-2.43621 -18.5298,-11.42424 l -1.8954,-4.60833 -6.143,-0.004 c -6.20937,-0.004 -8.10946,-1.1682 -6.40544,-3.92536 0.75038,-1.21413 15.32904,-0.95464 29.82154,0.53082 l 5.2732,0.54048 1.9161,-4.32484 c 3.4304,-7.74286 15.2574,-16.54715 18.5535,-13.81166 2.3881,1.98193 1.7427,7.08488 -1.5159,11.98681 -1.6453,2.475 -2.9933,4.9667 -2.9957,5.5371 0,0.58842 5.0792,1.56677 11.7457,2.26138 17.40692,1.81368 17.16632,1.85487 21.36022,-3.65811 2.5213,-3.31435 5.7324,-5.8609 10.6463,-8.44305 7.8025,-4.10014 9.4082,-4.40869 11.2698,-2.16559 1.9508,2.35055 -0.376,8.81436 -4.2699,11.86179 -1.7575,1.37544 -2.8561,2.84007 -2.4415,3.25474 1.0527,1.05266 10.0765,2.29213 24.1851,3.32194 10.7494,0.78462 12.093,0.70155 12.8928,-0.79715 2.0451,-3.83259 11.5469,-11.59286 17.534,-14.32029 5.6498,-2.5738 6.6042,-2.75032 7.8945,-1.46007 2.3491,2.34912 -2.0187,12.07901 -6.9521,15.48697 -2.0863,1.44119 -3.8104,2.8957 -3.8312,3.23225 -0.021,0.33654 2.9995,0.91348 6.712,1.28208 3.7125,0.36859 12.1959,1.61199 18.852,2.76311 l 12.1019,2.09294 4.6782,-4.48252 c 6.0616,-5.80803 13.5519,-9.8393 18.725,-10.0778 6.2854,-0.2898 6.9742,1.80723 2.5875,7.87755 -1.9606,2.713 -4.4939,5.71583 -5.6297,6.67294 -1.1357,0.95712 -2.0649,2.16269 -2.0649,2.67904 0,1.34846 9.4965,3.89179 16.353,4.37963 6.1248,0.43577 8.427,2.05635 6.3967,4.50274 -0.654,0.78802 -2.2207,1.16782 -3.6928,0.89522 -10.5468,-1.95302 -15.1037,-3.01384 -18.7296,-4.36017 -2.295,-0.85214 -6.57,-1.63508 -9.5,-1.73986 -2.93,-0.10478 -6.2273,-0.67566 -7.3273,-1.26863 -1.6288,-0.87774 -13.2841,-3.32793 -15.8319,-3.32793 -1.4602,0 -0.5091,2.45337 2.6617,6.86602 7.9295,11.0352 7.0266,17.18002 -1.8298,12.45252 z m 1.5,-5.7408 c 0,-1.70752 -5.8052,-9.45609 -8.202,-10.94774 -4.7854,-2.97814 -2.4351,4.72541 2.86,9.3746 3.7409,3.28451 5.342,3.75602 5.342,1.57314 z m -55.523,-12.4332 c -2.4843,-3.75402 -5.1684,-5.78647 -6.2342,-4.72068 -0.754,0.75397 3.7155,7.43351 6.084,9.0925 3.1303,2.19252 3.1976,0.23314 0.1502,-4.37182 z m -47.92082,0.0326 c -0.8053,-2.53733 -6.4926,-8.17714 -8.246,-8.17714 -2.6372,0 -1.2049,4.34058 2.731,8.27647 4.1746,4.17464 6.8562,4.12636 5.515,-0.0993 z m -44.5562,-3.04074 c 0,-1.51462 -6.824,-8.1364 -8.3849,-8.1364 -2.5186,0 -1.9028,3.35775 1.1349,6.18815 3.7513,3.49526 7.25,4.43546 7.25,1.94825 z m 175.01022,-1.3864 c 3.7741,-2.56867 7.666,-7.40713 6.7194,-8.35373 -1.178,-1.17798 -5.1966,0.53679 -10.1543,4.33289 -2.7085,2.07396 -5.1085,4.33334 -5.3333,5.02084 -0.6909,2.11315 5.1774,1.44388 8.7682,-1 z m -52.5204,-10.61956 c 3.2259,-1.8673 6.4075,-6.56646 5.2378,-7.73618 -0.3955,-0.39553 -1.8219,-0.2167 -3.1697,0.3974 -3.0554,1.39212 -10.5579,8.09536 -10.5579,9.43311 0,1.28704 4.6148,0.14861 8.4898,-2.09433 z m -57.7,-3.02403 c 4.2504,-2.16927 7.5801,-5.49658 7.0606,-7.05528 -0.6649,-1.99466 -12.8504,5.70822 -12.8504,8.12318 0,1.30529 1.7851,0.97603 5.7898,-1.0679 z m -46.33792,-3.70115 c 2.0821,-2.08211 4.8418,-7.44496 4.1745,-8.11226 -0.2867,-0.28662 -2.1255,0.47042 -4.0864,1.68231 -3.4507,2.13261 -5.54,4.75708 -5.54,6.95895 0,1.62453 3.6528,1.2701 5.4519,-0.529 z M 3.7485975,178.57024 c 0,-1.64979 1.8044619,-3.10088 7.8844005,-6.34041 l 7.884401,-4.20098 0.718722,-6.71133 c 0.538072,-5.02444 1.460875,-7.79001 3.671388,-11.00288 5.625405,-8.17624 10.799005,-11.42705 12.234105,-7.68724 0.33384,0.86998 0.60698,4.18429 0.60698,7.36514 0,4.33667 -0.51844,6.44245 -2.07258,8.41821 -2.99934,3.81305 -1.32672,3.57303 18.07258,-2.59337 1.925,-0.6119 6.18423,-1.59905 9.46496,-2.19367 l 5.96495,-1.08113 1.63633,-5.49848 c 2.68818,-9.033 14.57052,-20.50307 19.34287,-18.67174 1.11973,0.42968 1.59089,1.90872 1.59089,4.99398 0,5.75969 -3.18599,10.46213 -9.26797,13.67927 -2.59943,1.375 -4.72761,2.725 -4.72929,3 -0.002,0.275 11.5451,0.5 25.659516,0.5 16.2275,0 25.78072,0.36766 25.9839,1 0.93892,2.92202 -1.21909,3.35825 -11.98754,2.4232 -13.40686,-1.16414 -14.923,-0.55589 -10.05634,4.03447 4.40975,4.15939 8.39772,10.32688 8.39772,12.98727 0,2.80901 -2.95492,4.08014 -7.23882,3.11397 -7.552816,-1.70344 -16.761176,-10.88194 -16.761176,-16.70683 v -3.64215 l -6.75,0.56754 c -7.22143,0.60718 -23.44913,3.48433 -26.75,4.74275 -1.89491,0.72241 -1.86864,0.81552 0.5,1.77213 2.75713,1.1135 15.29226,10.91235 15.85263,12.39217 0.19394,0.51217 -0.43831,1.80517 -1.40499,2.87334 -1.32504,1.46415 -3.081,1.94214 -7.13474,1.94214 -8.82931,0 -15.60437,-3.89741 -20.48595,-11.7847 -1.59416,-2.57572 -2.49636,-3.15111 -4.17995,-2.66581 -2.0555,0.5925 -17.018288,7.51123 -30.347499,14.03254 -6.1426175,3.00527 -6.2994975,3.02875 -6.2994975,0.9426 z m 62.9602365,-4.47889 c 1.24859,-0.78977 1.18713,-1.22542 -0.42402,-3.00572 -2.97469,-3.287 -10.66968,-8.04002 -13.01653,-8.04002 -1.17558,0 -2.87729,0.5625 -3.78157,1.25 -1.50137,1.14145 -1.44372,1.47902 0.6639,3.88723 4.45941,5.09542 13.01637,8.14882 16.55822,5.90851 z m 42.007956,-6.29574 c -0.0175,-1.2375 -0.65835,-3.07681 -1.42412,-4.08735 -2.35926,-3.11338 -7.813346,-6.66265 -10.238356,-6.66265 -3.87427,0 -2.72983,3.43335 2.80244,8.40733 5.661146,5.08987 8.911006,5.94916 8.860036,2.34267 z m -79.552686,-8.66347 c 2.58046,-2.64263 4.06534,-5.24749 4.57261,-8.02153 1.26816,-6.93505 -1.72734,-6.58318 -6.738116,0.79148 -3.014361,4.43642 -4.490749,11.14352 -2.452948,11.14352 0.438379,0 2.516682,-1.76106 4.618454,-3.91347 z m 52.21822,-15.83439 c 4.45226,-2.81671 7.26578,-7.75264 5.4526,-9.56581 -1.44274,-1.44274 -7.44245,2.74231 -10.4528,7.29127 -1.44844,2.18873 -2.63353,4.21417 -2.63353,4.50096 0,1.34143 3.69981,0.26236 7.63373,-2.22642 z M 1686.9613,177.19317 c -2.3581,-0.95738 -6.8134,-4.30724 -9.9007,-7.44413 -3.3923,-3.44672 -6.4684,-5.70343 -7.7743,-5.70343 -3.3544,0 -17.7199,3.85017 -20.7898,5.57194 -3.1231,1.75167 -4.7479,1.19812 -4.7479,-1.61754 0,-1.22923 1.1774,-2.41993 3.25,-3.28664 2.6098,-1.09133 3.6247,-2.42372 5.1522,-6.76342 2.6407,-7.5023 5.9395,-13.81011 9.2713,-17.72833 2.4967,-2.9361 3.1314,-3.20761 5.4398,-2.32672 4.8893,1.86581 4.7165,11.0133 -0.3299,17.46699 -1.6413,2.09895 -2.8208,3.97967 -2.6211,4.17938 0.1997,0.1997 2.3824,-0.0149 4.8504,-0.47699 2.468,-0.46205 9.365,-1.62434 15.3267,-2.58286 l 10.8393,-1.74278 1.6237,-3.59651 c 2.1093,-4.67246 7.7452,-12.59781 12.3306,-17.3396 4.3497,-4.49807 8.4886,-5.11289 9.4206,-1.39939 0.6354,2.53182 -3.5856,13.82934 -6.3137,16.8986 -2.1996,2.47461 -1.3524,2.77851 3.2601,1.16941 2.2,-0.76749 5.5381,-1.4022 7.4181,-1.41048 3.0525,-0.0135 12.9121,-1.36242 18.7501,-2.56535 1.4952,-0.30807 3.5799,-3.03651 6.7157,-8.78928 5.4656,-10.02672 12.3537,-16.94062 16.4111,-16.47251 2.0008,0.23084 2.7952,0.95144 3.0516,2.76813 0.4782,3.38962 -1.5196,9.59266 -4.578,14.21429 -1.4087,2.12868 -2.3515,4.08014 -2.095,4.33659 0.2565,0.25646 5.3848,0.0295 11.3963,-0.50441 6.0116,-0.53388 14.7384,-1.13016 19.3929,-1.32506 8.2686,-0.34623 8.4906,-0.42119 9.6731,-3.26591 2.4859,-5.98026 19.7726,-19.95949 23.102,-18.68187 1.2084,0.4637 1.4083,1.86043 0.9979,6.97338 -0.5568,6.93558 -1.9961,9.33371 -6.7954,11.32162 -4.5608,1.88917 -2.5041,2.96655 5.8686,3.07422 4.2301,0.0544 10.166,0.39189 13.191,0.75 4.8038,0.56868 5.5425,0.95181 5.836,3.02665 l 0.336,2.37554 -7.836,-0.87554 c -8.974,-1.0027 -48.9771,-1.06782 -49.9635,-0.0813 -0.3602,0.36017 1.6497,2.98382 4.4665,5.83035 6.0489,6.11276 7.1622,8.67015 4.5924,10.54924 -4.5869,3.35408 -15.2226,0.0709 -20.0544,-6.19066 -7.3205,-9.48679 -6.1317,-8.8422 -13.9203,-7.54763 -3.8262,0.63595 -10.1067,1.61178 -13.9567,2.16851 -12.9597,1.87402 -12.4208,1.31248 -6.608,6.88574 2.8094,2.69361 5.108,5.62081 5.108,6.50488 0,0.90063 -1.5845,2.26947 -3.6036,3.11309 -6.1385,2.56485 -12.9144,0.0975 -19.7452,-7.19003 l -4.1512,-4.42875 -14.9477,2.50552 c -8.2212,1.37804 -15.3087,2.50553 -15.75,2.50553 -0.4413,0 -0.8023,0.675 -0.8023,1.5 0,0.825 0.5702,1.5 1.2672,1.5 0.6969,0 3.6219,2.0599 6.5,4.57755 5.6511,4.94347 6.787,8.52032 3.2985,10.38727 -2.7037,1.44697 -5.862,1.20914 -10.853,-0.81726 z m 6.7873,-4.13735 c 0,-1.54751 -10.6444,-8.22742 -12.5072,-7.84888 -1.4408,0.29279 -1.35,0.69513 0.6703,2.96995 3.869,4.35644 11.8369,7.64064 11.8369,4.87893 z m 44.5,-11.55371 c 0,-2.44308 -5.9972,-6.4565 -9.6479,-6.4565 -1.5686,0 -2.8521,0.36581 -2.8521,0.81291 0,1.31814 5.2916,5.98986 8,7.0628 3.2515,1.28812 4.5,0.89437 4.5,-1.41921 z m 51.4682,-4.2065 c -0.063,-1.47706 -2.5624,-4.0327 -5.9859,-6.11968 -3.4604,-2.10951 -7.0127,-2.81511 -6.949,-1.38032 0.052,1.16304 3.2025,4.62782 5.9392,6.53076 2.4892,1.73086 7.0548,2.36341 6.9957,0.96924 z m -125.9407,-6.81572 c 2.3123,-4.76607 2.4772,-6.43428 0.636,-6.43428 -1.3341,0 -6.6635,9.41585 -6.6635,11.77283 0,2.4089 3.9783,-1.11468 6.0275,-5.33855 z m 46.153,-6.05315 c 0.9243,-1.58462 1.9961,-4.23113 2.3819,-5.88113 l 0.7013,-3 -3.7195,3.5 c -3.6042,3.39151 -7.5442,9.70473 -7.5442,12.08832 0,1.73573 6.2401,-3.38056 8.1805,-6.70719 z m 46.3585,-4.63113 c 5.4029,-6.21481 7.9913,-12.75 5.0499,-12.75 -1.87,0 -6.447,5.5103 -8.7216,10.5 -3.4982,7.6741 -1.897,8.65538 3.6717,2.25 z m 58.0132,-4.87954 c 2.6249,-1.23383 5.144,-3.31602 5.9891,-4.95034 3.4771,-6.724 0.1344,-6.61811 -7.1012,0.22494 -7.6045,7.19209 -7.259,8.66029 1.1121,4.7254 z m -925.1929,32.0837 c -3.94518,-2.52756 -5.79421,-6.82242 -4.9271,-11.44452 0.57398,-3.05957 0.35855,-3.64245 -1.63558,-4.42537 -3.85094,-1.51192 -6.10623,-5.09639 -6.2054,-9.86263 -0.0779,-3.74634 0.38419,-4.8095 3.17455,-7.30314 4.01251,-3.58583 9.70892,-3.98819 13.00385,-0.9185 2.51753,2.34544 4.23037,2.57895 4.23037,0.57673 0,-2.86732 5.04771,-7.57673 8.12101,-7.57673 4.08456,0 9.50616,2.43484 10.7985,4.8496 1.44774,2.70514 1.30787,7.11224 -0.3189,10.04758 -1.23971,2.23694 -1.03681,2.67669 3.03544,6.57858 3.3833,3.24178 4.36395,4.90523 4.36395,7.40248 0,4.01758 -2.40913,8.82561 -4.73903,9.45795 -6.33555,1.71945 -7.57619,1.67538 -11.08312,-0.39376 l -3.63255,-2.14326 -1.42912,2.15237 c -1.22049,1.83816 -7.01954,5.08444 -8.9883,5.03161 -0.34534,-0.009 -2.04119,-0.92231 -3.76857,-2.02899 z m 8.00583,-5.02674 c 3.95923,-3.11433 3.51876,-6.4806 -1.04505,-7.9868 -3.37745,-1.11465 -3.82951,-1.02973 -5.5,1.03324 -2.13873,2.64121 -2.27706,4.32155 -0.57954,7.03971 1.58936,2.54497 3.81386,2.51807 7.12459,-0.0861 z m 19.38486,-2.17225 c 1.81341,-1.45081 1.532,-6.22075 -0.5,-8.47504 -0.9625,-1.06779 -3.00012,-2.46375 -4.52804,-3.10212 -2.48777,-1.03941 -2.87936,-0.92649 -3.74762,1.08065 -0.53326,1.23274 -1.52219,3.01514 -2.19763,3.96089 -1.04114,1.45781 -0.70663,2.25754 2.19758,5.25392 3.4417,3.55093 5.55376,3.8594 8.77571,1.2817 z m -25.09635,-14.34932 c 1.60793,-2.45402 1.59998,-2.77941 -0.14717,-6.02367 -3.35388,-6.22779 -8.83587,-5.47376 -10.12399,1.39251 -0.55762,2.97236 -0.29102,3.88096 1.58432,5.39952 3.23044,2.61585 6.66868,2.31174 8.68684,-0.76836 z m 18.8913,-6.8599 c 2.13311,-2.13311 2.30349,-2.78448 1.30279,-4.98077 -2.38198,-5.22789 -9.01992,-3.61071 -10.36773,2.52586 -1.16326,5.29626 4.64944,6.87042 9.06494,2.45491 z"
       id="path1" />
  </g>
</svg>
